<?xml version="1.0" encoding="utf-8"?>

<!-- charts -->
<svg version="1.1" xmlns="http://www.w3.org/2000/svg" xmlns:xlink="http://www.w3.org/1999/xlink">

    <!-- line -->
    <svg id="icon-chart-line" viewBox="0 0 405.3 405.3">
        <g>
            <path d="M18.9,106.7c0.2,13.7,7.1,25.7,17.6,33.1c6.1,4.3,13.4,7,21.4,7.5v-0.1c1.2,0.1,2.3,0.1,3.5,0.1c1.7,0,3.4-0.2,5.1-0.4
                v-20.1c-1.8,0.5-3.7,0.8-5.6,0.9c-0.6,0-1.2,0-1.9,0v0c-11.3-0.6-20.2-9.9-20.4-21.3c0-0.1,0-0.2,0-0.4c0,0,0,0,0,0c0,0,0,0,0,0
                c0-2.3,0.3-4.5,1-6.5l0,0c2.8-8.8,11-15.2,20.7-15.2c0.2,0,0.5,0,0.7,0l0,0c11.4,0.3,20.7,9.5,21,21.1c0,0,0,0,0,0
                c0,0.1,0,0.2,0,0.3c0,0.1,0,0.2,0,0.3c0,0,0,0,0,0c0,2.5-0.4,4.8-1.2,7.1l0,0c-0.3,1-0.8,1.9-1.2,2.9l18.2,7.5
                c0.6-1.3,1.1-2.6,1.6-3.9l0,0c1.4-4.2,2.2-8.7,2.2-13.4c0,0,0-0.1,0-0.1c0-0.2,0-0.3,0-0.5c0-0.2,0-0.3,0-0.5c0,0,0-0.1,0-0.1
                c-0.3-9.2-3.5-17.7-8.8-24.4C85.4,71,74.1,64.9,61.5,64.5l0,0.1c-0.4,0-0.9,0-1.3,0c-18.5,0-34.2,12.1-39.4,28.9l0,0
                c-1.2,3.9-1.9,8.1-1.9,12.4c0,0,0,0,0,0c0,0,0,0,0,0C18.9,106.2,18.9,106.4,18.9,106.7z"/>
            <path d="M76.7,119.9c-1.6,1.8-3.4,3.4-5.5,4.6v21.2c10.2-2.8,18.8-9.4,24.2-18.1L76.7,119.9z"/>
            <rect x="9.1" y="309.2" width="387" height="53.8"/>
            <polygon points="92.3,289.5 145.7,197 236.8,249.6 241.8,254.1 282.5,209.4 357.8,126.6 357,145.6 355.8,173.3 382.6,173.3 
                385.6,102.7 385.7,102.7 386.8,76 386.8,76 386.8,75.6 360,74.5 360,74.8 315.7,72.9 294.1,72 294.1,98.9 344.9,101 304.7,145.2 
                237.5,219 159.1,173.8 159.1,173.8 135.9,160.4 69.1,276.1"/>
        </g>
    </svg>      

    <!-- bar -->
    <svg id="icon-chart-bar" viewBox="0 0 405.3 405.3">
        <g>
            <rect y="202.7" width="101.3" height="101.3"/>
            <rect x="152" y="101.3" width="101.3" height="202.7"/>
            <rect x="304" y="0" width="101.3" height="304"/>
            <rect y="354.7" width="405.3" height="50.7"/>
        </g>
    </svg>    

    <!-- scatter -->
    <svg id="icon-chart-scatter" viewBox="0 0 405.3 405.3">
        <g>
            <rect x="11.9" y="337.8" width="386.7" height="53.8"/>
            <path d="M57.3,220.1c15.2,0,28.8-6.5,38.4-17l103.1,59.5c-0.2,1.3-0.3,2.7-0.3,4.1c0,16.8,13.7,30.5,30.5,30.5
                c16.8,0,30.5-13.7,30.5-30.5c0-7.6-2.8-14.6-7.5-20l29.9-45.8l70-107.2c2.5,0.5,5.1,0.8,7.7,0.8c22.3,0,40.4-18.1,40.4-40.4
                c0-22.3-18.1-40.4-40.4-40.4c-22.3,0-40.4,18.1-40.4,40.4c0,9.9,3.6,19,9.5,26l-35.2,53.9l-66.8,102.3c-4.7,0.3-9.1,1.7-13,4
                l-105.7-61c0.8-3.6,1.2-7.3,1.2-11.2c0-28.6-23.3-51.9-51.9-51.9c-28.6,0-51.9,23.3-51.9,51.9C5.4,196.8,28.7,220.1,57.3,220.1z
                M359.5,26.7c15.1,0,27.5,12.3,27.5,27.5s-12.3,27.5-27.5,27.5c-15.1,0-27.5-12.3-27.5-27.5S344.4,26.7,359.5,26.7z M228.9,249.2
                c9.7,0,17.5,7.9,17.5,17.5s-7.9,17.5-17.5,17.5c-9.7,0-17.5-7.9-17.5-17.5S219.3,249.2,228.9,249.2z M57.3,129.1
                c21.5,0,39,17.5,39,39s-17.5,39-39,39c-21.5,0-39-17.5-39-39S35.8,129.1,57.3,129.1z"/>
        </g>
    </svg>    

    <!-- pie -->
    <svg id="icon-chart-pie" viewBox="0 0 405.3 405.3">
        <g>
            <path d="M388.6,266.8c6.9-20,10.7-41.5,10.7-63.9c0-108.6-88-196.6-196.6-196.6C94.1,6.3,6.1,94.3,6.1,202.8
                c0,104.7,81.9,190.3,185.1,196.2V185.7L388.6,266.8z"/>
            <path d="M369.2,283.7l-155-63.7v167.6C281,383.5,340,343.9,369.2,283.7z"/>
        </g>
    </svg>  

    <!-- doughnut -->
    <svg id="icon-chart-doughnut" viewBox="0 0 405.3 405.3">
        <g>
            <path d="M399.2,202.5c0-0.8,0-1.6,0-2.4c0-0.8,0-1.6,0-2.4c0-0.1,0-0.3,0-0.4c-1.2-43.9-16.7-84.1-41.9-116.1
                C322.3,36.8,268.8,8,208.8,6.2l0,0.3c-2.1-0.1-4.1-0.1-6.2-0.1c-87.9,0-162.4,57.8-187.5,137.4l-0.1,0c-5.9,18.7-9,38.5-9,59
                c0,0.1,0,0.1,0,0.2c0,0,0,0.1,0,0.1c0,1.1,0,2.3,0,3.4c1.1,65,33.8,122.3,83.4,157.3c29.1,20.5,63.9,33.3,101.6,35.5v-0.3
                c5.6,0.3,11.2,0.4,16.8,0.3c8.2-0.2,16.2-0.9,24.1-2.1v-95.5c-8.5,2.5-17.4,4-26.6,4.2c-3,0.1-5.9,0-8.8-0.1v0.2
                c-53.5-3.1-96.1-47-97.1-101.1c0-0.6,0-1.2,0-1.8c0,0,0,0,0,0c0,0,0-0.1,0-0.1c0-10.8,1.6-21.2,4.7-31l0,0
                c13.2-41.8,52.2-72.1,98.4-72.1c1.1,0,2.2,0,3.2,0.1l0-0.2c54.2,1.7,98.3,45.4,99.8,100.3c0,0.1,0,0.1,0,0.2c0,0.4,0,0.8,0,1.3
                c0,0.4,0,0.8,0,1.3c0,0.1,0,0.1,0,0.2c0,11.7-2,23-5.6,33.5l-0.1,0c-1.6,4.7-3.6,9.3-5.9,13.6l86.6,35.6
                c2.8-6.1,5.4-12.3,7.6-18.7l0.1,0c6.9-20,10.7-41.5,10.7-63.9C399.2,202.8,399.2,202.7,399.2,202.5z"/>
            <path d="M255.1,291.4v100.7c48.4-13.4,89.2-44.7,114.9-86.2l-88.7-36.4C273.8,278.1,265,285.6,255.1,291.4z"/>
        </g>
    </svg>

    <!-- polarArea -->
    <svg id="icon-chart-polarArea" viewBox="0 0 405.3 405.3">
        <g>
            <path d="M203.2,397.6c66.8-4.1,125.8-43.7,155-103.9l-155-63.7V397.6z"/>
            <path d="M191.7,16.3c-65,0-122.6,31.5-158.4,80.1l146.9,99.7v-0.4l0.2,0.1l33.5-178.2C206.6,16.7,199.2,16.3,191.7,16.3z"/>
            <path d="M54.5,137.1c-13.3,23.3-20.9,50.3-20.9,79.1c0,47.7,20.9,90.5,54,119.8l93.4-113.1L54.5,137.1z"/>
            <path d="M181.1,251.7L92.9,358.5c25.4,17.3,55.6,28.1,88.2,30V251.7z"/>
            <path d="M220.2,86.6l-22.2,118.3l76.3-92.4C258.6,100.3,240.2,91.3,220.2,86.6z"/>
            <path d="M388.3,212.9c0-55.1-22.6-104.8-59.1-140.5L215.4,210.2l162.2,66.6C384.5,256.8,388.3,235.3,388.3,212.9z"/>
        </g>
    </svg>
</svg>
