<?xml version="1.0" encoding="utf-8"?>
<svg viewBox="0 0 150 50">
    <!-- Fundusze Europejskie - Polska Cyfrowa -->
    <svg id="icon-logo-fe-pc" viewBox="0 0 90 40" preserveAspectRatio="xMidYMid meet">
        <path d="M19.8 39.2L.3 35.6V6.3L19.8.2z" fill="#034ea1" />
        <path d="M.3 28.5v-7.6c1 .3 2.1.4 2.8 0 1.6-.9 4-3.8 4-3.8s-1.3 3.1-.8 4.2c.5 1.2 3.5 1.3 3.5 1.3s-3.4 2-4.9 3.4c-1.6 1.4-2.7 6.5-2.7 6.5s-.9-3.3-1.9-4" fill="#fff100" />
        <path d="M19.8 15.1c-.7.4-1.3.8-1.8.9-1.6.3-3.2-1.5-3.2-1.5s.4 2.6-.6 4.3-4.4 3.8-4.4 3.8 3.7-.7 4.4.4c.8 1.2.9 5.5.9 5.5s1.9-5.1 3.6-5.8c.3-.1.7-.3 1.2-.4v-7.2h-.1z" fill="#ec1c24" />
        <path d="M7.1 17.1s1.9-3 1.8-4-2.1-1.4-2.1-1.4 2.6-.6 3.7-1.6 2-3 2-3 .2 1.7 1.2 1.9 3.6-.8 3.6-.8l-2.9 3c-.9 1.1.3 3.3.3 3.3s-2.2-.8-3.4-.5c-1.2.2-4.2 3.1-4.2 3.1" fill="#fff" />
        <g fill="#231f20">
            <path d="M29.6 14.9V7.5h4.6v1.1h-3.3v1.9h2.9v1.1h-2.9v3.2h-1.3v.1zm9.9-.3c-.2.1-.6.1-1 .2s-.8.1-1.3.1c-.4 0-.8-.1-1.1-.2s-.5-.3-.7-.5-.3-.5-.4-.8V9.2h1.3v2.9c0 .6.1 1 .3 1.3s.5.4.9.4h.5c.2 0 .3 0 .4-.1V9.2h1.3v5.4h-.2zm1.6-5.1c.2-.1.6-.1 1-.2s.8-.1 1.3-.1.8.1 1.1.2.5.3.7.5.3.5.4.8.1.7.1 1v3.1h-1.3V12c0-.3 0-.5-.1-.8 0-.2-.1-.4-.2-.5a1.38 1.38 0 0 0-.4-.3c-.2-.1-.3-.1-.6-.1h-.5c-.2 0-.3 0-.4.1v4.5h-1.3V9.5h.2zm10.8 5.1c-.3.1-.6.1-1 .2s-.8.1-1.2.1-.8-.1-1.2-.2c-.3-.1-.6-.3-.9-.6-.2-.2-.4-.6-.6-.9-.1-.4-.2-.8-.2-1.2s.1-.8.2-1.2.3-.7.5-.9c.2-.3.5-.4.8-.6.3-.1.7-.2 1-.2s.5 0 .7.1.4.1.5.2V7.8l1.3-.2v7h.1zM48.2 12c0 .6.1 1 .4 1.3s.6.5 1.1.5h.5c.1 0 .3 0 .4-.1v-3.2c-.1-.1-.3-.1-.4-.2-.2-.1-.4-.1-.6-.1-.5 0-.8.2-1 .5-.3.3-.4.7-.4 1.3zm9.8 2.6c-.2.1-.6.1-1 .2s-.8.1-1.3.1c-.4 0-.8-.1-1.1-.2s-.5-.3-.7-.5-.3-.5-.4-.8-.1-.7-.1-1V9.2h1.3v2.9c0 .6.1 1 .3 1.3s.5.4.9.4h.5c.2 0 .3 0 .4-.1V9.2H58v5.4zm2.9-.8c.3 0 .6 0 .7-.1.2-.1.2-.2.2-.4s-.1-.3-.2-.5l-1.4-.7c-.2-.1-.4-.2-.5-.3s-.3-.3-.3-.5c-.1-.2-.1-.4-.1-.7 0-.5.2-.9.6-1.2s.9-.4 1.5-.4c.3 0 .6 0 .9.1s.5.1.7.2l-.2 1c-.1-.1-.3-.1-.5-.2s-.5-.1-.8-.1-.5 0-.6.1c-.2.1-.2.2-.2.4v.2c0 .1.1.1.2.2s.2.1.3.2.3.1.5.2l.8.3c.2.1.4.2.5.4.1.1.2.3.3.5s.1.4.1.6c0 .5-.2.9-.6 1.2s-.9.4-1.7.4c-.5 0-.9 0-1.2-.1s-.5-.1-.6-.2l.2-1.1c.2.1.4.2.7.2.1.3.4.3.7.3zm7.2-3.6c-.1.1-.3.4-.6.6-.2.3-.5.6-.7.9-.3.3-.5.7-.8 1l-.7 1h2.8v1.1h-4.4V14c.2-.3.3-.6.6-.9l1.4-2c.2-.3.5-.6.6-.8h-2.5v-1H68v.9h.1zm.7 1.8c0-.5.1-.9.2-1.3s.3-.7.6-.9c.2-.2.5-.4.8-.5s.6-.2.9-.2c.8 0 1.4.2 1.8.7s.6 1.2.6 2.1v.4h-3.6c0 .4.2.8.5 1s.7.4 1.2.4c.3 0 .6 0 .8-.1.3-.1.5-.1.6-.2l.2 1c-.1 0-.2.1-.3.1s-.3.1-.4.1c-.2 0-.3.1-.5.1h-.6c-.5 0-.9-.1-1.3-.2s-.7-.3-.9-.6-.4-.6-.5-.9c0-.2-.1-.6-.1-1zm3.7-.6c0-.2 0-.3-.1-.5 0-.2-.1-.3-.2-.4l-.3-.3c-.1-.1-.3-.1-.5-.1s-.4 0-.5.1-.3.2-.4.3a.76.76 0 0 0-.2.4c-.1.2-.1.3-.1.5h2.3zM29.6 24.6v-7.3h4.7v1.1h-3.4v1.8h3v1.1h-3v2.1h3.6v1.1h-4.9v.1zm10.4-.3c-.2.1-.6.1-1 .2s-.8.1-1.3.1c-.4 0-.8-.1-1.1-.2s-.5-.3-.7-.5-.3-.5-.4-.8-.1-.7-.1-1V19h1.3v2.9c0 .6.1 1 .3 1.3s.5.4.9.4h.5c.2 0 .3 0 .4-.1V19H40v5.3zm4.7-4.1c-.1 0-.3-.1-.4-.1-.2 0-.4-.1-.6-.1h-.4c-.2 0-.3.1-.3.1v4.4h-1.3v-5.3c.2-.1.6-.2.9-.3.4-.1.8-.1 1.2-.1h.6c.1 0 .2 0 .3.1.1 0 .2 0 .3.1l-.3 1.2zm6 1.5c0 .4-.1.8-.2 1.2s-.3.7-.5.9c-.2.3-.5.5-.8.6s-.7.2-1.1.2-.8-.1-1.1-.2-.6-.3-.8-.6-.4-.6-.5-.9c-.1-.4-.2-.8-.2-1.2s.1-.8.2-1.2.3-.7.5-.9c.2-.3.5-.4.8-.6.3-.1.7-.2 1.1-.2s.7.1 1.1.2c.3.1.6.3.8.6s.4.6.5.9c.1.4.2.8.2 1.2zm-1.3 0c0-.5-.1-1-.4-1.3-.2-.3-.6-.5-1-.5s-.8.2-1 .5-.4.8-.4 1.3c0 .6.1 1 .4 1.3.2.3.6.5 1 .5s.8-.2 1-.5c.3-.3.4-.7.4-1.3zm7.5.1c0 .4-.1.8-.2 1.2s-.3.7-.5.9c-.2.3-.5.5-.8.6s-.7.2-1 .2-.5 0-.7-.1-.4-.1-.5-.2v2.1H52v-7.3c.3-.1.6-.1 1-.2s.8-.1 1.2-.1.8.1 1.2.2c.3.1.6.3.9.6.2.2.4.6.6.9v1.2zm-1.3.1c0-.6-.1-1-.4-1.3s-.7-.5-1.2-.5h-.4c-.1 0-.3 0-.4.1v3.2c.1.1.3.1.4.2.2.1.4.1.6.1.5 0 .8-.2 1-.5.3-.4.4-.8.4-1.3zm2.3-.2c0-.5.1-.9.2-1.3s.3-.7.6-.9c.2-.2.5-.4.8-.5s.6-.2.9-.2c.8 0 1.4.2 1.8.7s.6 1.2.6 2.1v.4h-3.6c0 .4.2.8.5 1s.7.4 1.2.4c.3 0 .6 0 .8-.1.3-.1.5-.1.6-.2l.2 1c-.1 0-.2.1-.3.1s-.3.1-.4.1c-.2 0-.3.1-.5.1h-.6c-.5 0-.9-.1-1.3-.2s-.7-.3-.9-.6-.4-.6-.5-.9c-.1-.2-.1-.5-.1-1zm3.7-.5c0-.2 0-.3-.1-.5 0-.2-.1-.3-.2-.4L61 20c-.1-.1-.3-.1-.5-.1s-.4 0-.5.1-.3.2-.4.3a.76.76 0 0 0-.2.4c-.1.2-.1.3-.1.5h2.3zm1.8 5.4H63c-.2 0-.3-.1-.4-.1l.2-1c.2 0 .3.1.6.1s.5-.1.6-.3.2-.4.2-.8v-5.3h1.3v5.4c0 .7-.2 1.2-.5 1.6-.4.2-.9.4-1.6.4zm2.1-9.1c0 .2-.1.4-.2.6-.2.1-.3.2-.5.2s-.4-.1-.6-.2-.2-.3-.2-.6c0-.2.1-.4.2-.6.2-.1.3-.2.6-.2.2 0 .4.1.5.2.2.1.2.3.2.6zm2.9 6.1c.3 0 .6 0 .7-.1.2-.1.2-.2.2-.4s-.1-.3-.2-.5l-1.4-.7c-.2-.1-.4-.2-.5-.3s-.3-.3-.3-.5c-.1-.2-.1-.4-.1-.7 0-.5.2-.9.6-1.2s.9-.4 1.5-.4c.3 0 .6 0 .9.1s.5.1.7.2l-.2 1c-.1-.1-.3-.1-.5-.2s-.5-.1-.8-.1-.5 0-.6.1c-.2.1-.2.2-.2.4v.2c0 .1.1.1.2.2s.2.1.3.2.3.1.5.2l.8.3c.2.1.4.2.5.4.1.1.2.3.3.5s.1.4.1.6c0 .5-.2.9-.6 1.2s-.9.4-1.7.4c-.5 0-.9 0-1.2-.1s-.5-.1-.6-.2l.2-1.1c.2.1.4.2.7.2 0 .2.3.3.7.3z" />
            <path d="M73 21.2l.5-.5c.2-.2.4-.4.5-.6.2-.2.3-.4.5-.6s.3-.3.4-.5h1.5l-1.1 1.2-1.2 1.2c.2.2.4.4.7.6.2.2.5.5.7.8s.4.6.6.8l.5.8h-1.5c-.1-.2-.3-.4-.4-.7-.2-.2-.3-.5-.5-.7l-.6-.6c-.2-.2-.4-.4-.6-.5v2.5h-1.3v-7.1l1.3-.2v4.1zm5.9-3.7c0 .2-.1.4-.2.6-.2.1-.3.2-.5.2s-.4-.1-.6-.2-.2-.3-.2-.6c0-.2.1-.4.2-.6.2-.1.3-.2.6-.2.2 0 .4.1.5.2s.2.3.2.6zm-.1 7.1h-1.3v-5.5h1.3v5.5zm1.2-2.9c0-.5.1-.9.2-1.3s.3-.7.6-.9c.2-.2.5-.4.8-.5s.6-.2.9-.2c.8 0 1.4.2 1.8.7s.6 1.2.6 2.1v.4h-3.6c0 .4.2.8.5 1s.7.4 1.2.4c.3 0 .6 0 .8-.1.3-.1.5-.1.6-.2l.2 1c-.1 0-.2.1-.3.1s-.3.1-.4.1c-.2 0-.3.1-.5.1h-.6c-.5 0-.9-.1-1.3-.2s-.7-.3-.9-.6-.4-.6-.5-.9c0-.2-.1-.5-.1-1zm3.7-.5c0-.2 0-.3-.1-.5 0-.2-.1-.3-.2-.4l-.3-.3c-.1-.1-.3-.1-.5-.1s-.4 0-.5.1-.3.2-.4.3a.76.76 0 0 0-.2.4c-.1.2-.1.3-.1.5h2.3zm-52.9 8.3c.7 0 1.2.1 1.6.4s.5.6.5 1.2c0 .3 0 .5-.1.7s-.2.4-.4.5-.4.2-.7.3-.6.1-.9.1h-.5v1.8h-.7v-4.8c.2 0 .4-.1.6-.1.2-.1.5-.1.6-.1zm.1.6h-.7V32h1.1c.2 0 .3-.1.5-.2l.3-.3c.1-.1.1-.3.1-.5s0-.3-.1-.5l-.3-.3c-.1-.1-.3-.1-.4-.1h-.5zm5.9 2.4c0 .3 0 .5-.1.8-.1.2-.2.4-.4.6s-.3.3-.5.4-.4.1-.7.1c-.2 0-.5 0-.7-.1s-.4-.2-.5-.4c-.2-.2-.3-.4-.4-.6s-.1-.5-.1-.8 0-.5.1-.8c.1-.2.2-.4.4-.6s.3-.3.5-.4.4-.1.7-.1c.2 0 .5 0 .7.1s.4.2.5.4c.2.2.3.4.4.6 0 .2.1.5.1.8zm-.7 0a1.69 1.69 0 0 0-.3-1c-.2-.2-.4-.4-.7-.4s-.6.1-.7.4c-.2.2-.3.6-.3 1a1.69 1.69 0 0 0 .3 1c.2.2.4.4.7.4s.6-.1.7-.4a1.69 1.69 0 0 0 .3-1zm2.6 1.9c-.4 0-.7-.1-.8-.3-.2-.2-.3-.4-.3-.8V29l.6-.1v4.7c0 .1 0 .1.1.2 0 0 .1.1.2.1s.2 0 .3.1l-.1.4zm1.7-.6c.3 0 .5 0 .6-.1s.2-.2.2-.3c0-.2-.1-.3-.2-.4s-.3-.2-.6-.3c-.1-.1-.3-.1-.4-.2s-.2-.1-.3-.2-.2-.2-.2-.3c-.1-.1-.1-.2-.1-.4 0-.3.1-.6.4-.8a1.69 1.69 0 0 1 1-.3h.6c.1 0 .2 0 .2.1h.2l-.1.6c-.1 0-.2-.1-.3-.1s-.3-.1-.5-.1-.3 0-.5.1c-.1.1-.2.2-.2.3v.2c0 .1.1.1.1.2.1 0 .1.1.2.1s.2.1.3.1c.2.1.3.1.5.2.1.1.2.1.3.2s.2.2.2.3c.1.1.1.3.1.4 0 .3-.1.6-.4.8-.2.2-.6.3-1.1.3-.3 0-.6 0-.8-.1s-.3-.1-.4-.1l.1-.6c.1 0 .2.1.4.1.2.3.4.3.7.3zm3.5-1.4c.1.1.3.2.4.4l.5.5c.2.2.3.4.4.6s.2.4.3.5h-.8c-.1-.2-.2-.3-.3-.5s-.3-.3-.4-.5-.3-.3-.4-.4-.3-.2-.4-.3v1.7h-.6v-5.3l.6-.1v3.3l1.5-1.5h.8c-.1.1-.2.2-.3.4l-.8.8c-.3.1-.4.2-.5.4zm3.5-1.8c.3 0 .5 0 .7.1a1.38 1.38 0 0 1 .4.3.76.76 0 0 1 .2.4c0 .2.1.4.1.6v2.3h-1.3c-.2 0-.4 0-.6-.1-.2 0-.3-.1-.4-.2s-.2-.2-.3-.4c-.1-.1-.1-.3-.1-.5s0-.4.1-.5.2-.3.3-.3c.1-.1.3-.2.5-.2s.4-.1.6-.1h.7v-.3c0-.1-.1-.2-.1-.3l-.2-.2c-.1 0-.2-.1-.4-.1H47c-.2 0-.3.1-.4.1l-.1-.5c.1 0 .2-.1.4-.1h.5zm0 3.2h.7v-1.1s-.1 0-.2-.1h-.7c-.1 0-.2 0-.3.1-.1 0-.2.1-.2.2-.1.1-.1.2-.1.3 0 .2.1.4.2.5.2.1.4.1.6.1zm6.1.6c-.3 0-.6-.1-.9-.2s-.5-.3-.7-.5-.4-.5-.5-.8-.2-.7-.2-1.1.1-.8.2-1.1.3-.6.5-.8a3.04 3.04 0 0 1 .7-.5c.3-.1.6-.2.9-.2h.5c.2 0 .3.1.4.1s.2.1.3.1.1.1.2.1l-.2.6s-.1-.1-.2-.1-.2-.1-.3-.1-.2-.1-.3-.1h-.4c-.3 0-.5 0-.7.1s-.4.2-.5.4-.3.4-.3.6c-.1.2-.1.5-.1.8s0 .5.1.8l.3.6c.1.2.3.3.5.4s.4.1.7.1.6 0 .8-.1.4-.1.5-.2l.2.6s-.1.1-.2.1-.2.1-.3.1-.3.1-.4.1c-.3.1-.4.2-.6.2zm1.6.6c.1 0 .1 0 .2.1h.2c.3 0 .5-.1.6-.2s.3-.3.4-.6c-.3-.6-.6-1.1-.8-1.8-.3-.6-.5-1.3-.6-1.9h.7c.1.2.1.4.2.7.1.2.2.5.2.7l.3.8c.1.3.2.5.3.7.2-.5.3-1 .5-1.4.1-.5.3-1 .4-1.5h.7l-.6 2-.7 1.8c-.1.2-.2.4-.3.5-.1.2-.2.3-.3.4a.76.76 0 0 1-.4.2c-.2 0-.3.1-.5.1H55l.1-.6zm5.3-6h.5c.1 0 .2.1.3.1l-.2.5c-.1 0-.1-.1-.2-.1h-.4c-.3 0-.5.1-.6.2-.1.2-.2.4-.2.7v.3H61v.5h-1.4v3.1H59v-3.9c0-.5.1-.8.3-1.1.2-.2.6-.3 1.1-.3zm2.5 1.7h.7l-.1.6c-.1 0-.1 0-.3-.1h-.9c-.1 0-.2 0-.2.1v3h-.6v-3.5c.2-.1.3-.1.6-.2s.6.1.8.1zm4.5 1.8c0 .3 0 .5-.1.8-.1.2-.2.4-.4.6s-.3.3-.5.4-.4.1-.7.1c-.2 0-.5 0-.7-.1s-.4-.2-.5-.4c-.2-.2-.3-.4-.4-.6s-.1-.5-.1-.8 0-.5.1-.8c.1-.2.2-.4.4-.6s.3-.3.5-.4.4-.1.7-.1c.2 0 .5 0 .7.1s.4.2.5.4c.2.2.3.4.4.6s.1.5.1.8zm-.6 0a1.69 1.69 0 0 0-.3-1c-.2-.2-.4-.4-.7-.4s-.6.1-.7.4c-.2.2-.3.6-.3 1a1.69 1.69 0 0 0 .3 1c.2.2.4.4.7.4s.6-.1.7-.4a1.69 1.69 0 0 0 .3-1zm4.4 1.9c-.1-.3-.3-.7-.4-1.1s-.3-.9-.4-1.3c-.1.5-.3.9-.4 1.3s-.3.8-.4 1.1H69l-.6-1.6-.6-2h.7c0 .2.1.5.2.7.1.3.1.5.2.8s.1.5.2.7.2.4.2.6c.1-.2.2-.4.2-.7.1-.2.1-.5.2-.7s.1-.5.2-.7.1-.5.2-.7h.5c0 .2.1.4.2.7.1.2.1.5.2.7s.1.5.2.7.2.5.2.7c.1-.2.1-.4.2-.6s.2-.5.2-.7c.1-.3.1-.5.2-.8s.1-.5.2-.7h.8l-.6 2-.6 1.6h-.6zm3.6-3.8c.3 0 .5 0 .7.1a1.38 1.38 0 0 1 .4.3.76.76 0 0 1 .2.4c0 .2.1.4.1.6v2.3h-1.3c-.2 0-.4 0-.6-.1-.2 0-.3-.1-.4-.2s-.2-.2-.3-.4c-.1-.1-.1-.3-.1-.5s0-.4.1-.5.2-.3.3-.3c.1-.1.3-.2.5-.2s.4-.1.6-.1h.7v-.3c0-.1-.1-.2-.1-.3l-.2-.2c-.1 0-.2-.1-.4-.1h-.6c-.2 0-.3.1-.4.1l-.1-.5c.1 0 .2-.1.4-.1h.5zm0 3.2h.7v-1.1s-.1 0-.2-.1h-.7c-.1 0-.2 0-.3.1-.1 0-.2.1-.2.2-.1.1-.1.2-.1.3 0 .2.1.4.2.5.2.1.4.1.6.1z" />
        </g>
    </svg>

    <!-- RP -->
    <svg id="icon-logo-rp" viewBox="0 0 100 24" preserveAspectRatio="xMidYMid meet">
        <style type="text/css">
            .logo-rp-0{fill:#1C1C1B;}
            .logo-rp-1{fill:#FFFFFF;}
            .logo-rp-2{fill:#B6202C;}
        </style>
        <g>
            <g id="svg_1">
                <g id="svg_2">
                    <path id="svg_3" d="m44.100004,6.200004c-0.2,0 -0.4,0 -0.6,0l0,1.9l0.5,0c0.3,0 0.5,0 0.7,0c0.2,0 0.4,-0.1 0.5,-0.1c0.1,-0.1 0.2,-0.2 0.3,-0.3c0.1,-0.1 0.1,-0.3 0.1,-0.5c0,-0.2 0,-0.3 -0.1,-0.4c-0.1,-0.1 -0.2,-0.2 -0.3,-0.3c-0.1,-0.1 -0.3,-0.1 -0.4,-0.2c-0.3,-0.1 -0.5,-0.1 -0.7,-0.1m-0.1,-0.9c0.8,0 1.5,0.2 1.9,0.5c0.4,0.3 0.7,0.8 0.7,1.4c0,0.8 -0.4,1.3 -1.2,1.6c0.1,0.1 0.2,0.3 0.4,0.5c0.1,0.2 0.3,0.4 0.4,0.6c0.1,0.2 0.3,0.4 0.4,0.7c0.1,0.2 0.2,0.4 0.3,0.7l-1.2,0c-0.1,-0.2 -0.2,-0.4 -0.3,-0.6c-0.1,-0.2 -0.2,-0.4 -0.4,-0.6c-0.1,-0.2 -0.2,-0.4 -0.4,-0.5c-0.1,-0.2 -0.2,-0.3 -0.3,-0.5c-0.1,0 -0.1,0 -0.2,0l-0.2,0l-0.5,0l0,2.2l-1.1,0l0,-5.7c0.3,-0.1 0.5,-0.1 0.8,-0.1c0.4,-0.2 0.7,-0.2 0.9,-0.2" class="logo-rp-0" />
                    <path id="svg_4" d="m50.800004,7.500004c-0.1,0.1 -0.3,0.3 -0.4,0.5c-0.2,0.2 -0.4,0.4 -0.6,0.7c-0.2,0.3 -0.4,0.5 -0.6,0.8c-0.2,0.3 -0.4,0.5 -0.6,0.8l2.2,0l0,0.8l-3.5,0l0,-0.6c0.1,-0.2 0.3,-0.5 0.5,-0.7c0.2,-0.3 0.4,-0.5 0.6,-0.8c0.2,-0.3 0.4,-0.5 0.6,-0.8c0.2,-0.2 0.4,-0.4 0.5,-0.6l-2,0l0,-0.8l3.3,0l0,0.7z" class="logo-rp-0" />
                    <path id="svg_5" d="m54.300004,8.500004c0,-0.1 0,-0.3 -0.1,-0.4c0,-0.1 -0.1,-0.2 -0.2,-0.3c-0.1,-0.1 -0.2,-0.2 -0.3,-0.2c-0.1,-0.1 -0.2,-0.1 -0.4,-0.1c-0.2,0 -0.3,0 -0.4,0.1c-0.1,0.1 -0.2,0.1 -0.3,0.2c-0.1,0.1 -0.1,0.2 -0.2,0.3c0,0.1 -0.1,0.2 -0.1,0.4l2,0zm-2.9,0.5c0,-0.4 0.1,-0.7 0.2,-1c0.1,-0.3 0.3,-0.5 0.5,-0.7c0.2,-0.2 0.4,-0.3 0.7,-0.4c0.2,-0.1 0.5,-0.1 0.7,-0.1c0.6,0 1.1,0.2 1.4,0.6c0.3,0.4 0.5,0.9 0.5,1.7c0,0.1 0,0.1 0,0.2c0,0.1 0,0.1 0,0.2l-2.9,0c0,0.4 0.2,0.6 0.4,0.8c0.2,0.2 0.5,0.3 1,0.3c0.2,0 0.5,0 0.7,-0.1c0.2,0 0.4,-0.1 0.5,-0.1l0.1,0.8c-0.1,0 -0.1,0.1 -0.2,0.1c-0.1,0 -0.2,0.1 -0.3,0.1c-0.1,0 -0.3,0 -0.4,0.1c-0.1,0 -0.3,0 -0.4,0c-0.4,0 -0.7,-0.1 -1,-0.2c-0.3,-0.1 -0.5,-0.3 -0.7,-0.5c-0.2,-0.2 -0.3,-0.4 -0.4,-0.7c-0.4,-0.5 -0.4,-0.8 -0.4,-1.1" class="logo-rp-0" />
                    <path id="svg_6" d="m56.100004,9.000004c0,-0.3 0.1,-0.6 0.2,-0.9c0.1,-0.3 0.2,-0.5 0.4,-0.7c0.2,-0.2 0.4,-0.4 0.7,-0.5c0.3,-0.1 0.6,-0.2 0.9,-0.2c0.4,0 0.8,0.1 1.2,0.2l-0.2,0.8c-0.1,0 -0.2,-0.1 -0.4,-0.1c-0.1,0 -0.3,-0.1 -0.5,-0.1c-0.4,0 -0.7,0.1 -0.9,0.4c-0.2,0.2 -0.3,0.6 -0.3,1c0,0.4 0.1,0.8 0.3,1c0.2,0.3 0.5,0.4 1,0.4c0.2,0 0.3,0 0.5,-0.1c0.2,0 0.3,-0.1 0.4,-0.1l0.1,0.9c-0.1,0.1 -0.3,0.1 -0.5,0.1c-0.2,0 -0.5,0.1 -0.7,0.1c-0.4,0 -0.7,-0.1 -1,-0.2c-0.3,-0.1 -0.5,-0.3 -0.7,-0.5c-0.2,-0.2 -0.3,-0.4 -0.4,-0.7c0,-0.2 -0.1,-0.5 -0.1,-0.8" class="logo-rp-0" />
                    <path id="svg_7" d="m63.400004,7.500004c-0.1,0.1 -0.3,0.3 -0.4,0.5c-0.2,0.2 -0.4,0.4 -0.6,0.7c-0.2,0.3 -0.4,0.5 -0.6,0.8c-0.2,0.3 -0.4,0.5 -0.6,0.8l2.2,0l0,0.8l-3.5,0l0,-0.6c0.1,-0.2 0.3,-0.5 0.5,-0.7c0.2,-0.3 0.4,-0.5 0.6,-0.8c0.2,-0.3 0.4,-0.5 0.6,-0.8c0.2,-0.2 0.4,-0.4 0.5,-0.6l-2,0l0,-0.8l3.3,0l0,0.7z" class="logo-rp-0" />
                    <path id="svg_8" d="m67.200004,9.000004c0,-0.4 -0.1,-0.8 -0.3,-1c-0.2,-0.2 -0.5,-0.4 -1,-0.4c-0.1,0 -0.2,0 -0.3,0c-0.1,0 -0.2,0 -0.3,0.1l0,2.5c0.1,0.1 0.2,0.1 0.4,0.2c0.1,0.1 0.3,0.1 0.5,0.1c0.4,0 0.6,-0.1 0.8,-0.4c0.1,-0.4 0.2,-0.7 0.2,-1.1m1.1,0c0,0.3 0,0.6 -0.1,0.9c-0.1,0.3 -0.2,0.5 -0.4,0.7c-0.2,0.2 -0.4,0.4 -0.6,0.5c-0.2,0.1 -0.5,0.2 -0.8,0.2c-0.2,0 -0.4,0 -0.6,-0.1c-0.2,-0.1 -0.3,-0.1 -0.4,-0.2l0,1.7l-1,0l0,-5.8c0.2,-0.1 0.5,-0.1 0.8,-0.2c0.3,-0.1 0.6,-0.1 0.9,-0.1c0.3,0 0.7,0.1 0.9,0.2c0.3,0.1 0.5,0.3 0.7,0.5c0.2,0.2 0.3,0.4 0.4,0.7c0.1,0.3 0.2,0.6 0.2,1" class="logo-rp-0" />
                    <path id="svg_9" d="m72.200004,9.000004c0,-0.4 -0.1,-0.8 -0.3,-1c-0.2,-0.3 -0.4,-0.4 -0.8,-0.4c-0.3,0 -0.6,0.1 -0.8,0.4c-0.2,0.3 -0.3,0.6 -0.3,1c0,0.4 0.1,0.8 0.3,1c0.2,0.3 0.4,0.4 0.8,0.4c0.3,0 0.6,-0.1 0.8,-0.4c0.2,-0.3 0.3,-0.6 0.3,-1m1,0c0,0.3 -0.1,0.7 -0.2,0.9c-0.1,0.3 -0.2,0.5 -0.4,0.7c-0.2,0.2 -0.4,0.4 -0.7,0.5c-0.3,0.1 -0.5,0.2 -0.9,0.2c-0.3,0 -0.6,-0.1 -0.8,-0.2c-0.3,-0.1 -0.5,-0.3 -0.7,-0.5c-0.2,-0.2 -0.3,-0.4 -0.4,-0.7c-0.1,-0.3 -0.2,-0.6 -0.2,-0.9c0,-0.3 0.1,-0.7 0.2,-0.9c0.1,-0.3 0.2,-0.5 0.4,-0.7c0.2,-0.2 0.4,-0.4 0.7,-0.5c0.3,-0.1 0.5,-0.2 0.8,-0.2c0.3,0 0.6,0.1 0.8,0.2c0.3,0.1 0.5,0.3 0.7,0.5c0.2,0.2 0.3,0.4 0.4,0.7c0.3,0.2 0.3,0.5 0.3,0.9" class="logo-rp-0" />
                    <path id="svg_10" d="m75.400004,10.400004c0.3,0 0.5,0 0.6,-0.1c0.1,-0.1 0.2,-0.2 0.2,-0.3c0,-0.1 -0.1,-0.3 -0.2,-0.4c-0.1,-0.1 -0.3,-0.2 -0.6,-0.3c-0.2,-0.1 -0.4,-0.1 -0.5,-0.2c-0.2,-0.1 -0.3,-0.2 -0.4,-0.3c-0.1,-0.1 -0.2,-0.2 -0.3,-0.4c-0.1,-0.1 -0.1,-0.3 -0.1,-0.5c0,-0.4 0.1,-0.7 0.4,-0.9c0.3,-0.2 0.7,-0.3 1.2,-0.3c0.3,0 0.5,0 0.7,0.1c0.2,0 0.4,0.1 0.5,0.1l-0.2,0.8c-0.1,0 -0.3,-0.1 -0.4,-0.1c-0.2,0 -0.4,-0.1 -0.6,-0.1c-0.2,0 -0.4,0 -0.5,0.1c-0.1,0.1 -0.2,0.2 -0.2,0.3c0,0.1 0,0.1 0,0.2c0,0.1 0.1,0.1 0.1,0.2c0.1,0 0.1,0.1 0.2,0.1c0.1,0 0.2,0.1 0.4,0.1c0.2,0.1 0.4,0.2 0.6,0.3c0.2,0.1 0.3,0.2 0.4,0.3c0.1,0.1 0.2,0.2 0.2,0.4c0.1,0.1 0.1,0.3 0.1,0.5c0,0.4 -0.2,0.7 -0.5,0.9c-0.3,0.2 -0.7,0.3 -1.3,0.3c-0.4,0 -0.7,0 -0.9,-0.1c-0.2,-0.1 -0.4,-0.1 -0.5,-0.2l0.2,-0.8c0.1,0.1 0.3,0.1 0.5,0.2c0.4,0.1 0.6,0.1 0.9,0.1" class="logo-rp-0" />
                    <path id="svg_11" d="m81.000004,9.000004c0,-0.4 -0.1,-0.8 -0.3,-1c-0.2,-0.2 -0.5,-0.4 -1,-0.4c-0.1,0 -0.2,0 -0.3,0c-0.1,0 -0.2,0 -0.3,0.1l0,2.5c0.1,0.1 0.2,0.1 0.4,0.2c0.1,0.1 0.3,0.1 0.5,0.1c0.4,0 0.6,-0.1 0.8,-0.4c0.1,-0.4 0.2,-0.7 0.2,-1.1m1,0c0,0.3 0,0.6 -0.1,0.9c-0.1,0.3 -0.2,0.5 -0.4,0.7c-0.2,0.2 -0.4,0.4 -0.6,0.5c-0.2,0.1 -0.5,0.2 -0.8,0.2c-0.2,0 -0.4,0 -0.6,-0.1c-0.2,-0.1 -0.3,-0.1 -0.4,-0.2l0,1.7l-1,0l0,-5.8c0.2,-0.1 0.5,-0.1 0.8,-0.2c0.3,-0.1 0.6,-0.1 0.9,-0.1c0.3,0 0.7,0.1 0.9,0.2c0.3,0.1 0.5,0.3 0.7,0.5c0.2,0.2 0.3,0.4 0.4,0.7c0.2,0.3 0.2,0.6 0.2,1" class="logo-rp-0" />
                    <path id="svg_12" d="m86.000004,9.000004c0,-0.4 -0.1,-0.8 -0.3,-1c-0.2,-0.3 -0.4,-0.4 -0.8,-0.4c-0.3,0 -0.6,0.1 -0.8,0.4c-0.2,0.3 -0.3,0.6 -0.3,1c0,0.4 0.1,0.8 0.3,1c0.2,0.3 0.4,0.4 0.8,0.4c0.3,0 0.6,-0.1 0.8,-0.4c0.2,-0.3 0.3,-0.6 0.3,-1m1,0c0,0.3 0,0.7 -0.1,0.9c-0.1,0.3 -0.2,0.5 -0.4,0.7c-0.2,0.2 -0.4,0.4 -0.7,0.5c-0.3,0.1 -0.5,0.2 -0.9,0.2c-0.3,0 -0.6,-0.1 -0.8,-0.2c-0.3,-0.1 -0.5,-0.3 -0.7,-0.5c-0.2,-0.2 -0.3,-0.4 -0.4,-0.7c-0.1,-0.3 -0.2,-0.6 -0.2,-0.9c0,-0.3 0.1,-0.7 0.2,-0.9c0.1,-0.3 0.2,-0.5 0.4,-0.7c0.2,-0.2 0.4,-0.4 0.7,-0.5c0.3,-0.1 0.5,-0.2 0.8,-0.2c0.3,0 0.6,0.1 0.8,0.2c0.3,0.1 0.5,0.3 0.7,0.5c0.2,0.2 0.3,0.4 0.4,0.7c0.1,0.2 0.2,0.5 0.2,0.9" class="logo-rp-0" />
                    <path id="svg_13" d="m89.500004,11.200004c-0.3,0 -0.5,0 -0.7,-0.1c-0.2,-0.1 -0.4,-0.1 -0.5,-0.3c-0.1,-0.1 -0.2,-0.3 -0.2,-0.4c0,-0.2 -0.1,-0.4 -0.1,-0.6l0,-4.3l1,-0.2l0,4.2c0,0.1 0,0.2 0,0.3c0,0.1 0.1,0.2 0.1,0.2c0,0.1 0.1,0.1 0.2,0.1c0.1,0 0.2,0.1 0.3,0.1l-0.1,1z" class="logo-rp-0" />
                    <path id="svg_14" d="m91.500004,11.100004l-1,0l0,-4.4l1,0l0,4.4zm0.1,-5.6c0,0.2 -0.1,0.3 -0.2,0.4c-0.1,0.1 -0.3,0.2 -0.4,0.2c-0.2,0 -0.3,-0.1 -0.4,-0.2c-0.1,-0.1 -0.2,-0.3 -0.2,-0.4c0,-0.2 0.1,-0.3 0.2,-0.5c0.1,-0.1 0.3,-0.2 0.4,-0.2c0.2,0 0.3,0.1 0.4,0.2c0.2,0.2 0.2,0.3 0.2,0.5" class="logo-rp-0" />
                    <path id="svg_15" d="m92.800004,5.600004l1,-0.2l0,1.4l1.5,0l0,0.8l-1.5,0l0,1.8c0,0.3 0.1,0.6 0.2,0.7c0.1,0.2 0.3,0.2 0.6,0.2c0.2,0 0.3,0 0.5,-0.1c0.1,0 0.3,-0.1 0.3,-0.1l0.1,0.9c-0.1,0 -0.3,0.1 -0.5,0.2c-0.2,0.1 -0.4,0.1 -0.7,0.1c-0.3,0 -0.6,0 -0.8,-0.1c-0.2,-0.1 -0.4,-0.2 -0.5,-0.4c-0.1,-0.2 -0.2,-0.4 -0.3,-0.6c-0.1,-0.2 -0.1,-0.5 -0.1,-0.8l0,-3.8l0.2,0z" class="logo-rp-0" />
                    <path id="svg_16" d="m97.800004,10.400004c0.3,0 0.5,0 0.7,-0.1l0,-1.1c-0.1,0 -0.1,0 -0.2,-0.1c-0.1,0 -0.2,0 -0.4,0c-0.1,0 -0.2,0 -0.3,0c-0.1,0 -0.2,0 -0.3,0.1c-0.1,0 -0.2,0.1 -0.2,0.2c-0.1,0.1 -0.1,0.2 -0.1,0.3c0,0.2 0.1,0.4 0.2,0.5c0.2,0.2 0.4,0.2 0.6,0.2m-0.1,-3.7c0.3,0 0.6,0 0.8,0.1c0.2,0.1 0.4,0.2 0.5,0.3c0.1,0.2 0.2,0.3 0.3,0.5c0.1,0.2 0.1,0.4 0.1,0.7l0,2.7c-0.2,0 -0.4,0.1 -0.7,0.1c-0.3,0 -0.7,0.1 -1.1,0.1c-0.3,0 -0.5,0 -0.7,-0.1c-0.2,-0.1 -0.4,-0.1 -0.6,-0.2c-0.2,-0.1 -0.3,-0.3 -0.4,-0.4c-0.1,-0.2 -0.1,-0.4 -0.1,-0.7c0,-0.2 0,-0.5 0.1,-0.6c0.1,-0.2 0.2,-0.3 0.4,-0.4c0.2,-0.1 0.4,-0.2 0.6,-0.2c0.2,0 0.4,-0.1 0.7,-0.1c0.1,0 0.2,0 0.3,0c0.1,0 0.3,0 0.4,0.1l0,-0.2c0,-0.1 0,-0.2 0,-0.3c0,-0.1 -0.1,-0.2 -0.1,-0.3c-0.1,-0.1 -0.2,-0.1 -0.3,-0.2c-0.1,0 -0.3,-0.1 -0.4,-0.1c-0.2,0 -0.4,0 -0.6,0.1c-0.2,0 -0.4,0.1 -0.5,0.1l-0.1,-0.8c0.1,0 0.3,-0.1 0.6,-0.1c0.3,-0.1 0.6,-0.1 0.8,-0.1" class="logo-rp-0" />
                    <path id="svg_17" d="m44.100004,13.900004c-0.3,0 -0.5,0 -0.7,0l0,2l0.5,0c0.5,0 0.9,-0.1 1.2,-0.2c0.3,-0.1 0.4,-0.4 0.4,-0.8c0,-0.2 0,-0.3 -0.1,-0.5c-0.1,-0.1 -0.2,-0.2 -0.3,-0.3c-0.1,-0.1 -0.3,-0.1 -0.5,-0.2c-0.1,0.1 -0.3,0 -0.5,0m-0.1,-0.9c0.8,0 1.5,0.2 1.9,0.5c0.4,0.3 0.7,0.8 0.7,1.4c0,0.3 -0.1,0.6 -0.2,0.9c-0.1,0.2 -0.3,0.4 -0.5,0.6c-0.2,0.2 -0.5,0.3 -0.8,0.3c-0.3,0.1 -0.7,0.1 -1.1,0.1l-0.5,0l0,2l-1,0l0,-5.7c0.2,-0.1 0.5,-0.1 0.8,-0.1c0.2,0 0.5,0 0.7,0" class="logo-rp-0" />
                    <path id="svg_18" d="m50.300004,16.700004c0,-0.4 -0.1,-0.8 -0.3,-1c-0.2,-0.3 -0.4,-0.4 -0.8,-0.4c-0.3,0 -0.6,0.1 -0.8,0.4c-0.2,0.3 -0.3,0.6 -0.3,1c0,0.4 0.1,0.8 0.3,1c0.2,0.3 0.4,0.4 0.8,0.4c0.3,0 0.6,-0.1 0.8,-0.4c0.2,-0.2 0.3,-0.6 0.3,-1m1,0c0,0.3 -0.1,0.7 -0.2,0.9c-0.1,0.3 -0.2,0.5 -0.4,0.7c-0.2,0.2 -0.4,0.4 -0.7,0.5c-0.3,0.1 -0.5,0.2 -0.9,0.2c-0.3,0 -0.6,-0.1 -0.8,-0.2c-0.3,-0.1 -0.5,-0.3 -0.7,-0.5c-0.2,-0.2 -0.3,-0.4 -0.4,-0.7c-0.1,-0.3 -0.2,-0.6 -0.2,-0.9c0,-0.3 0.1,-0.7 0.2,-0.9c0.1,-0.3 0.2,-0.5 0.4,-0.7c0.2,-0.2 0.4,-0.4 0.7,-0.5c0.3,-0.1 0.5,-0.2 0.8,-0.2c0.3,0 0.6,0.1 0.8,0.2c0.3,0.1 0.5,0.3 0.7,0.5c0.2,0.2 0.3,0.4 0.4,0.7c0.3,0.2 0.3,0.5 0.3,0.9" class="logo-rp-0" />
                    <path id="svg_19" d="m53.900004,18.900004c-0.3,0 -0.5,0 -0.7,-0.1c-0.2,-0.1 -0.4,-0.1 -0.5,-0.3c-0.1,-0.1 -0.2,-0.3 -0.2,-0.4c0,-0.2 -0.1,-0.4 -0.1,-0.6l0,-4.3l1,-0.2l0,4.2c0,0.1 0,0.2 0,0.3c0,0.1 0.1,0.2 0.1,0.2c0.1,0.1 0.1,0.1 0.2,0.1c0.1,0 0.2,0.1 0.3,0.1l-0.1,1z" class="logo-rp-0" />
                    <path id="svg_20" d="m55.900004,18.100004c0.3,0 0.5,0 0.6,-0.1c0.1,-0.1 0.2,-0.2 0.2,-0.3c0,-0.1 -0.1,-0.3 -0.2,-0.4c-0.1,-0.1 -0.3,-0.2 -0.6,-0.3c-0.2,-0.1 -0.4,-0.1 -0.5,-0.2c-0.2,-0.1 -0.3,-0.2 -0.4,-0.3c-0.1,-0.1 -0.2,-0.2 -0.3,-0.4c-0.1,-0.1 -0.1,-0.3 -0.1,-0.5c0,-0.4 0.1,-0.7 0.4,-0.9c0.3,-0.2 0.7,-0.3 1.2,-0.3c0.3,0 0.5,0 0.7,0.1c0.2,0 0.4,0.1 0.5,0.1l-0.2,0.8c-0.1,-0.1 -0.3,-0.1 -0.4,-0.1c-0.2,0 -0.4,-0.1 -0.6,-0.1c-0.2,0 -0.4,0 -0.5,0.1c-0.1,0.1 -0.2,0.2 -0.2,0.3c0,0.1 0,0.1 0,0.2c0,0.1 0.1,0.1 0.1,0.2c0.1,0 0.1,0.1 0.2,0.1c0.1,0 0.2,0.1 0.4,0.1c0.2,0.1 0.4,0.2 0.6,0.3c0.2,0.1 0.3,0.2 0.4,0.3c0.1,0.1 0.2,0.2 0.2,0.4c0,0.1 0.1,0.3 0.1,0.5c0,0.4 -0.2,0.7 -0.5,0.9c-0.3,0.2 -0.7,0.3 -1.3,0.3c-0.4,0 -0.7,0 -0.9,-0.1c-0.2,-0.1 -0.4,-0.1 -0.5,-0.2l0.2,-0.8c0.2,0.1 0.3,0.1 0.5,0.2c0.4,0.1 0.7,0.1 0.9,0.1" class="logo-rp-0" />
                    <path id="svg_21" d="m59.600004,16.200004c0.1,-0.1 0.3,-0.3 0.4,-0.4c0.1,-0.2 0.3,-0.3 0.4,-0.5c0.1,-0.2 0.3,-0.3 0.4,-0.4c0.1,-0.1 0.2,-0.3 0.3,-0.4l1.2,0c-0.3,0.3 -0.6,0.6 -0.9,1c-0.3,0.3 -0.6,0.7 -0.9,1c0.2,0.1 0.3,0.3 0.5,0.5c0.2,0.2 0.4,0.4 0.5,0.6c0.2,0.2 0.3,0.4 0.5,0.7c0.2,0.2 0.3,0.4 0.4,0.6l-1.2,0c-0.1,-0.2 -0.2,-0.4 -0.3,-0.5c-0.1,-0.2 -0.3,-0.4 -0.4,-0.6c-0.1,-0.2 -0.3,-0.3 -0.5,-0.5c-0.2,-0.2 -0.3,-0.3 -0.5,-0.4l0,2l-1,0l0,-5.5l1,-0.2l0,3l0.1,0z" class="logo-rp-0" />
                    <path id="svg_22" d="m64.800004,18.200004c0.3,0 0.5,0 0.7,0l0,-1.2c-0.1,0 -0.1,0 -0.2,-0.1c-0.1,0 -0.2,0 -0.4,0c-0.1,0 -0.2,0 -0.3,0c-0.1,0 -0.2,0 -0.3,0.1c-0.1,0 -0.2,0.1 -0.2,0.2c-0.1,0.1 -0.1,0.2 -0.1,0.3c0,0.2 0.1,0.4 0.2,0.5c0.1,0.1 0.3,0.2 0.6,0.2m-0.1,-3.8c0.3,0 0.6,0 0.8,0.1c0.2,0.1 0.4,0.2 0.5,0.3c0.1,0.2 0.2,0.3 0.3,0.5c0.1,0.2 0.1,0.4 0.1,0.7l0,2.6c-0.2,0 -0.4,0.1 -0.7,0.1c-0.3,0 -0.7,0.1 -1.1,0.1c-0.3,0 -0.5,0 -0.7,-0.1c-0.2,-0.1 -0.4,-0.1 -0.6,-0.2c-0.2,-0.1 -0.3,-0.3 -0.4,-0.4c-0.1,-0.2 -0.1,-0.4 -0.1,-0.7c0,-0.2 0,-0.5 0.1,-0.6c0.1,-0.2 0.2,-0.3 0.4,-0.4c0.2,-0.1 0.4,-0.2 0.6,-0.2c0.2,0 0.4,-0.1 0.7,-0.1c0.1,0 0.2,0 0.4,0c0.1,0 0.3,0 0.4,0.1l0,-0.2c0,-0.1 0,-0.2 0,-0.3c0,-0.1 -0.1,-0.2 -0.1,-0.3c-0.1,-0.1 -0.2,-0.1 -0.3,-0.2c-0.1,0 -0.3,-0.1 -0.4,-0.1c-0.2,0 -0.4,0 -0.6,0.1c-0.2,0 -0.4,0.1 -0.5,0.1l-0.1,-0.8c0.1,0 0.3,-0.1 0.6,-0.1c0.1,0 0.4,0 0.7,0" class="logo-rp-0" />
                </g>
                <g id="svg_23">
                    <rect id="svg_24" height="11.4" width="34.2" class="logo-rp-1" y="0.500004" x="0.500004" />
                    <rect id="svg_25" height="11.4" width="34.2" class="logo-rp-2" y="11.900004" x="0.500004" />
                </g>
            </g>
            <g id="svg_26" />
            <g id="svg_27" />
            <g id="svg_28" />
            <g id="svg_29" />
            <g id="svg_30" />
            <g id="svg_31" />
        </g>
    </svg>

    <!-- Ministerstwo Cyfryzacji -->
    <svg id="icon-logo-mc" viewBox="0 0 1063 401" preserveAspectRatio="xMidYMid meet">
        <defs>
        <style type="text/css">
        <![CDATA[
            .str0 {stroke:#E3E3E3;stroke-width:0.900007}
            .fil11 {fill:none;fill-rule:nonzero}
            .fil3 {fill:whitesmoke;fill-rule:nonzero}
            .fil8 {fill:#EBECEC;fill-rule:nonzero}
            .fil7 {fill:#E3E3E3;fill-rule:nonzero}
            .fil6 {fill:#CFD0D0;fill-rule:nonzero}
            .fil5 {fill:#C5C6C6;fill-rule:nonzero}
            .fil9 {fill:#B2B3B3;fill-rule:nonzero}
            .fil0 {fill:#4F4F4E;fill-rule:nonzero}
            .fil13 {fill:#FECC00;fill-rule:nonzero}
            .fil1 {fill:#D1273B;fill-rule:nonzero}
            .fil14 {fill:#E3AE12;fill-rule:nonzero}
            .fil2 {fill:white;fill-rule:nonzero}
            .fil4 {fill:url(#id0)}
            .fil10 {fill:url(#id1)}
            .fil12 {fill:url(#id2)}
        ]]>
        </style>
        <linearGradient id="id0" gradientUnits="userSpaceOnUse" x1="103.835" y1="166.484" x2="140.213" y2="166.484">
        <stop offset="0" style="stop-opacity:1; stop-color:#FEFEFE"/>
        <stop offset="0.988235" style="stop-opacity:1; stop-color:#DCDDDF"/>
        <stop offset="1" style="stop-opacity:1; stop-color:#DCDDDF"/>
        </linearGradient>
        <linearGradient id="id1" gradientUnits="userSpaceOnUse" x1="201.013" y1="152.295" x2="239.234" y2="152.295">
        <stop offset="0" style="stop-opacity:1; stop-color:#FEFEFE"/>
        <stop offset="1" style="stop-opacity:1; stop-color:#BDBFC1"/>
        </linearGradient>
        <linearGradient id="id2" gradientUnits="userSpaceOnUse" x1="127.598" y1="166.338" x2="100.007" y2="139.131">
        </linearGradient>
        </defs>
        <g id="Warstwa_x0020_1">
        <metadata id="CorelCorpID_0Corel-Layer"/>
        <g id="_755249200">
        <path class="fil0" d="M495 226l4 -8c-6,-3 -13,-4 -21,-4 -7,0 -13,1 -19,5 -5,3 -9,7 -12,13 -3,6 -4,12 -4,20 0,12 3,22 8,28 6,7 15,10 26,10 7,0 14,-1 19,-2l0 -8c-7,2 -13,3 -18,3 -8,0 -15,-3 -19,-8 -5,-6 -7,-13 -7,-23 0,-9 2,-17 7,-22 5,-6 11,-8 19,-8 6,0 12,1 17,4zm24 64l-4 8c-2,6 -6,9 -12,9 -2,0 -4,0 -6,0l0 7c2,0 5,0 7,0 5,0 9,-1 12,-4 3,-2 6,-7 8,-13l24 -63 -9 0c-7,21 -12,34 -13,38 -2,4 -3,7 -3,9l-1 0c0,-3 -2,-8 -5,-16l-12 -31 -9 0 23 56zm68 -56l-14 0 0 -4c0,-5 1,-8 2,-10 2,-2 4,-3 7,-3 3,0 6,0 9,1l2 -7c-4,-1 -7,-1 -10,-1 -12,0 -18,6 -18,20l0 3 -10 3 0 4 10 0 0 49 8 0 0 -49 14 0 0 -6zm27 2c-3,2 -5,4 -7,8l-1 0 -1 -10 -7 0 0 55 9 0 0 -30c0,-5 1,-10 4,-13 4,-4 7,-6 12,-6 2,0 4,1 6,1l1 -8c-2,0 -4,0 -6,0 -4,0 -7,1 -10,3zm45 54l-3 8c-2,6 -6,9 -12,9 -2,0 -5,0 -6,0l0 7c2,0 5,0 7,0 5,0 9,-1 12,-4 3,-2 6,-7 8,-13l24 -63 -9 0c-8,21 -12,34 -14,38 -1,4 -2,7 -2,9l-1 0c0,-3 -2,-8 -5,-16l-12 -31 -9 0 22 56zm78 -7l-31 0 30 -43 0 -6 -38 0 0 6 29 0 -31 44 0 5 41 0 0 -6zm54 6l0 -38c0,-6 -2,-11 -5,-14 -3,-3 -8,-4 -15,-4 -3,0 -6,0 -9,1 -4,1 -7,2 -10,3l3 7c6,-3 11,-4 16,-4 4,0 7,1 9,3 2,2 3,5 3,9l0 4 -10 0c-18,1 -27,7 -27,18 0,5 2,9 5,12 3,3 7,4 13,4 4,0 8,0 10,-1 3,-2 6,-4 9,-8l0 0 2 8 6 0zm-33 -8c-2,-2 -3,-4 -3,-7 0,-4 2,-7 5,-9 3,-1 7,-2 14,-3l9 0 0 5c0,5 -2,9 -5,12 -3,3 -7,4 -12,4 -4,0 -6,0 -8,-2zm86 7l0 -8c-5,2 -9,3 -14,3 -5,0 -10,-2 -12,-5 -3,-4 -4,-9 -4,-16 0,-15 5,-22 17,-22 1,0 3,0 5,1 3,0 5,1 7,2l2 -8c-1,0 -3,-1 -6,-2 -3,0 -6,0 -8,0 -9,0 -15,2 -19,7 -5,5 -7,13 -7,22 0,9 2,16 6,21 5,5 11,7 19,7 6,0 11,-1 14,-2zm22 10l0 -64 -9 0 0 65c0,3 -1,5 -2,6 -1,2 -3,2 -6,2 -2,0 -4,0 -7,-1l0 7c2,1 5,1 8,1 10,0 16,-5 16,-16zm-8 -75c1,1 2,1 3,1 2,0 3,0 4,-1 1,-1 1,-3 1,-5 0,-1 0,-3 -1,-4 -1,-1 -2,-1 -4,-1 -1,0 -2,0 -3,1 -1,1 -2,3 -2,4 0,2 1,4 2,5zm33 11l-8 0 0 55 8 0 0 -55zm-8 -11c1,1 2,1 4,1 1,0 2,0 3,-1 1,-1 2,-3 2,-5 0,-1 -1,-3 -2,-4 -1,-1 -2,-1 -3,-1 -2,0 -3,0 -4,1 -1,1 -1,3 -1,4 0,2 0,4 1,5z"/>
        <path class="fil0" d="M486 166l26 -66 0 0c0,6 -1,12 -1,18l0 48 9 0 0 -75 -13 0 -24 62 0 0 -24 -62 -13 0 0 75 8 0 0 -48c0,-7 0,-13 0,-18l0 0 25 66 7 0zm61 -56l-8 0 0 56 8 0 0 -56zm-8 -11c1,1 2,1 4,1 1,0 2,0 3,-1 1,-1 2,-2 2,-4 0,-2 -1,-4 -2,-5 -1,0 -2,-1 -3,-1 -2,0 -3,1 -4,1 -1,1 -1,3 -1,5 0,2 0,3 1,4zm72 67l0 -37c0,-7 -2,-12 -5,-15 -4,-4 -9,-5 -16,-5 -3,0 -7,1 -10,2 -3,2 -6,4 -7,6l-1 0 -1 -7 -7 0 0 56 8 0 0 -30c0,-7 2,-12 5,-15 2,-3 7,-5 12,-5 5,0 8,1 10,3 2,3 3,6 3,10l0 37 9 0zm25 -56l-9 0 0 56 9 0 0 -56zm-8 -11c1,1 2,1 3,1 2,0 3,0 4,-1 1,-1 1,-2 1,-4 0,-2 0,-4 -1,-5 -1,0 -2,-1 -4,-1 -1,0 -2,1 -3,1 -1,1 -2,3 -2,5 0,2 1,3 2,4zm57 42c-2,-2 -7,-5 -13,-7 -5,-2 -8,-3 -10,-4 -2,-1 -3,-2 -4,-3 -1,-1 -1,-3 -1,-4 0,-2 1,-4 3,-5 2,-2 5,-2 9,-2 5,0 10,1 15,3l3 -7c-5,-2 -11,-3 -17,-3 -7,0 -12,1 -16,4 -3,2 -5,6 -5,10 0,3 0,5 2,7 1,2 2,4 4,5 3,1 6,3 11,5 6,2 10,4 12,6 1,1 2,3 2,5 0,3 -1,5 -3,7 -3,1 -6,2 -10,2 -3,0 -6,-1 -9,-2 -3,0 -6,-1 -9,-3l0 8c4,2 10,4 17,4 7,0 13,-2 17,-5 4,-2 5,-6 5,-12 0,-3 -1,-6 -3,-9zm31 16c-2,-2 -3,-4 -3,-8l0 -33 16 0 0 -6 -16 0 0 -13 -5 0 -3 12 -8 3 0 4 8 0 0 34c0,11 5,17 16,17 1,0 3,-1 5,-1 2,0 3,0 4,-1l0 -6c-1,0 -2,0 -3,0 -2,1 -3,1 -5,1 -3,0 -5,-1 -6,-3zm57 9c3,-1 6,-2 9,-3l0 -8c-6,3 -12,4 -18,4 -6,0 -10,-1 -13,-5 -4,-3 -5,-8 -5,-15l38 0 0 -5c0,-8 -2,-14 -6,-18 -4,-5 -10,-7 -17,-7 -7,0 -13,2 -18,8 -4,5 -6,12 -6,21 0,9 2,16 7,21 5,5 11,8 20,8 3,0 6,-1 9,-1zm-2 -46c3,3 4,7 4,12l-29 0c0,-5 2,-9 4,-12 3,-3 7,-4 11,-4 5,0 8,1 10,4zm43 -8c-3,2 -6,4 -8,8l0 0 -1 -10 -7 0 0 56 8 0 0 -30c0,-6 2,-10 5,-14 3,-4 7,-6 12,-6 2,0 4,1 6,1l1 -8c-2,0 -4,0 -7,0 -3,0 -6,1 -9,3zm60 29c-2,-2 -6,-5 -13,-7 -5,-2 -8,-3 -10,-4 -2,-1 -3,-2 -4,-3 0,-1 -1,-3 -1,-4 0,-2 1,-4 3,-5 2,-2 5,-2 9,-2 5,0 10,1 16,3l3 -7c-6,-2 -12,-3 -18,-3 -6,0 -11,1 -15,4 -4,2 -6,6 -6,10 0,3 1,5 2,7 1,2 3,4 5,5 2,1 6,3 11,5 5,2 9,4 11,6 2,1 3,3 3,5 0,3 -2,5 -4,7 -2,1 -6,2 -10,2 -3,0 -6,-1 -9,-2 -3,0 -6,-1 -9,-3l0 8c5,2 10,4 18,4 7,0 12,-2 16,-5 4,-2 6,-6 6,-12 0,-3 -1,-6 -4,-9zm31 16c-2,-2 -2,-4 -2,-8l0 -33 16 0 0 -6 -16 0 0 -13 -5 0 -4 12 -8 3 0 4 8 0 0 34c0,11 6,17 16,17 2,0 3,-1 5,-1 2,0 3,0 4,-1l0 -6c-1,0 -2,0 -3,0 -2,1 -3,1 -4,1 -3,0 -5,-1 -7,-3zm85 9l15 -56 -9 0c-6,25 -10,38 -10,41 -1,2 -1,4 -1,6l-1 0c0,-4 -2,-9 -4,-15l-9 -32 -10 0 -10 32c-1,2 -1,4 -2,7 -1,3 -1,6 -2,8l0 0c-1,-3 -2,-8 -3,-15 -2,-8 -5,-18 -9,-32l-9 0 16 56 9 0 11 -33c1,-3 2,-8 4,-14l0 0c2,7 3,12 4,14l10 33 10 0zm66 -49c-4,-6 -11,-8 -19,-8 -8,0 -14,2 -18,7 -5,5 -7,13 -7,22 0,6 1,11 3,15 2,4 5,8 9,10 4,2 8,4 13,4 8,0 15,-3 19,-8 5,-5 7,-12 7,-21 0,-9 -2,-16 -7,-21zm-31 4c3,-3 7,-5 12,-5 6,0 10,2 13,5 3,4 4,10 4,17 0,7 -1,12 -4,16 -3,4 -7,6 -13,6 -5,0 -9,-2 -12,-6 -3,-4 -5,-9 -5,-16 0,-8 2,-13 5,-17z"/>
        <path class="fil1" d="M0 319c1,11 4,20 9,27 9,14 22,25 41,30 9,2 22,1 34,1 12,0 24,0 35,0 12,0 23,1 31,5 7,4 13,9 15,18 0,0 0,1 0,1l2 0c0,-1 0,-1 0,-1 2,-9 9,-15 17,-18 8,-4 19,-5 31,-5 16,0 35,0 52,0 6,0 11,0 16,-2 19,-4 32,-16 40,-30 5,-7 8,-16 9,-27l0 -318 -332 0 0 319z"/>
        <path class="fil2" d="M181 316c5,5 16,10 26,7 0,6 -3,10 -9,9 -9,-1 -15,-10 -18,-16 0,0 1,0 1,0zm-26 2c0,0 0,0 0,0 0,0 0,0 0,0zm0 0c0,0 0,0 0,0 0,0 0,0 0,0zm0 0c-2,3 -5,8 -7,10 -3,3 -7,6 -12,6 -6,1 -9,-3 -8,-10 11,4 21,0 27,-6 0,0 0,0 0,0l0 0c0,0 0,0 0,0zm149 -128c-9,-4 -17,-9 -25,-14 0,0 -1,-1 -2,-1 7,2 14,5 22,6 8,2 18,1 24,-2 -7,-10 -15,-19 -28,-23 6,0 12,0 17,-1 4,-2 8,-5 8,-11 -5,3 -14,3 -21,2 9,-2 18,-5 21,-12 -5,-4 -12,-7 -21,-9 5,-2 12,-4 15,-9 1,-3 0,-6 -1,-8 -1,1 -3,2 -4,3 -2,1 -4,2 -5,3 -4,2 -7,4 -12,4 4,-2 8,-5 11,-9 3,-3 6,-7 8,-11 -5,-3 -14,-3 -20,-2 4,-4 10,-12 4,-19 -3,6 -8,10 -14,14 6,-6 10,-14 11,-24 -8,1 -15,2 -20,6 0,0 0,0 0,0 4,-5 7,-11 8,-19 -27,3 -47,13 -61,28 -7,8 -14,16 -17,27 -2,6 -3,13 0,19 2,4 6,9 14,8 3,11 -8,16 -18,15 0,-6 -1,-10 -3,-13 2,0 4,-1 4,-3 -3,-1 -5,-2 -6,-4 -2,-5 1,-12 1,-17 1,0 2,0 3,-1 -2,-2 -2,-7 -2,-12 1,-10 4,-24 -1,-31 0,-1 1,-2 1,-4 3,0 2,-6 0,-7 0,3 -6,2 -7,0 3,-1 4,-8 0,-9 0,2 -2,4 -4,5 1,-6 3,-11 4,-16 2,-6 5,-10 7,-14 -3,2 -8,2 -10,5 -2,-2 -6,0 -7,2 0,-3 -1,-4 -4,-4 2,-4 -2,-6 -4,-4 0,-2 -2,-3 -3,-5 -1,2 -2,3 -2,6 -2,-2 -5,-1 -4,2 -3,0 -4,3 -4,6 0,-3 -5,-4 -7,-2 -1,-3 -7,-3 -10,-6 5,9 8,18 11,28 -4,1 -6,3 -6,7 -6,1 -10,3 -10,8 -1,3 1,5 1,8 2,-2 5,-4 9,-3 2,0 4,1 5,3 -5,1 -9,4 -14,4 -3,0 -4,-1 -5,-2 -1,2 0,4 1,5 5,5 16,0 22,-1 -1,1 -1,2 0,2 1,1 2,0 2,0 4,0 7,3 8,5 2,2 4,6 3,9 -2,7 -7,11 -12,14 -1,2 0,4 2,5 -2,3 -4,5 -6,8 -2,1 -6,5 -9,5 -2,0 -2,-1 -3,-2 -2,3 -1,8 1,9 -2,3 -4,8 -4,14 -8,-2 -18,-3 -18,-11 0,-2 0,-3 0,-5 6,0 10,-3 12,-7 3,-3 4,-8 4,-13 -1,-10 -7,-19 -12,-25 -5,-6 -11,-12 -18,-18 -13,-10 -29,-19 -51,-20 2,9 8,16 13,21 -7,-3 -16,-8 -27,-6 1,7 5,12 9,16 3,5 7,9 11,12 -4,-2 -8,-5 -12,-8 -4,-3 -10,-6 -12,-10 -1,1 -2,3 -2,5 1,6 5,10 8,13 -3,-1 -8,-1 -12,-1 -4,1 -8,1 -10,3 2,5 7,9 11,12 4,4 9,7 14,9 -6,-1 -11,-3 -15,-5 -4,-2 -8,-4 -11,-7 0,0 -1,-1 -1,-1 -1,5 1,9 3,11 2,3 4,5 7,7 -7,1 -13,3 -18,7 4,4 8,7 13,10 5,3 10,5 16,6 -9,1 -19,0 -26,-3 0,13 14,12 26,12 -6,3 -11,7 -16,10 -5,4 -10,8 -12,14 12,5 27,0 38,-2 -8,5 -16,10 -25,14 -3,2 -8,5 -12,3 2,5 5,8 11,8 5,-1 10,-3 14,-5 4,-2 8,-4 11,-6 -9,14 -20,27 -19,51 5,-1 10,-4 14,-6 12,-9 22,-20 30,-32 -5,10 -9,20 -14,29 -4,9 -10,18 -19,23 7,3 14,-1 18,-5 9,-7 15,-18 20,-29 -2,9 -4,20 -3,31 0,6 0,12 2,16 8,-6 14,-14 19,-23 5,-9 9,-19 12,-30 -2,12 -4,24 -8,34 2,1 3,0 4,0 4,-2 6,-7 8,-10 2,-5 3,-9 5,-14 0,1 0,2 1,2 5,-3 8,-9 11,-14 2,-6 4,-13 5,-20 6,2 13,0 17,-3 2,2 2,5 3,8 -4,-3 -10,-4 -15,-1 -4,2 -6,6 -8,11 0,3 -1,6 -1,8 -2,8 -7,13 -13,17 1,1 2,1 4,1 -1,2 -3,5 -5,6 0,0 -1,1 0,1 0,0 1,0 2,1 -2,3 -5,5 -8,7 0,1 2,1 3,2 -2,3 -5,5 -9,6 4,3 9,4 15,4 -2,4 -6,7 -10,9 1,1 2,1 3,1 -2,4 -6,6 -10,8 1,0 2,1 3,1 -2,3 -5,6 -10,7 1,1 3,1 5,1 -2,4 -6,4 -10,5 0,2 2,2 3,3 -5,6 -14,-1 -23,0 -2,-5 -14,-4 -15,2 -1,0 -3,1 -2,3 -3,3 -3,11 2,12 0,-4 2,-5 4,-7 4,1 7,0 9,-2 3,1 6,1 8,2 -2,0 -3,1 -5,2 -1,0 -3,2 -4,2 -1,1 -2,0 -4,0 -1,0 -3,0 -4,1 0,1 -2,3 -2,4 -1,1 -1,4 0,5 -1,1 -1,3 0,3 1,3 3,5 5,7 2,1 4,2 7,2 0,-2 -1,-2 -2,-4 0,-1 0,-3 -1,-5 3,-1 5,-3 5,-6 3,-1 6,-2 9,-3 0,0 1,-1 2,0 0,0 -1,1 -1,1 -2,1 -4,3 -5,5 -4,0 -7,3 -6,7 0,2 1,4 2,5 0,2 1,3 2,3 1,5 10,7 13,3 -2,-1 -8,-6 -3,-7 1,-2 2,-6 1,-8 3,-3 7,-7 10,-11 3,1 7,0 9,0 0,1 -1,1 -1,2 -1,3 1,4 3,5 0,2 0,3 -1,5 -1,0 -2,1 -2,2 4,2 11,0 10,-5 2,0 2,-1 2,-3 2,-1 3,-4 3,-7 0,-3 -4,-6 -8,-6 -1,0 -2,1 -4,1 -2,-1 -2,-4 -1,-5 1,-1 2,-3 3,-4 4,-5 7,-8 11,-13 4,-5 8,-10 13,-14 0,0 1,-2 2,-2 0,0 0,1 1,1 2,3 6,6 12,6 -2,-3 -3,-6 -3,-10 1,1 2,2 4,2 -3,-15 4,-27 11,-34 -1,16 -5,29 -10,39 4,1 8,-2 9,-5 1,5 -1,10 -3,14 -2,3 -6,7 -10,7 -3,0 -4,-1 -5,-2 -3,5 -1,10 2,12 4,3 10,1 13,-1 -1,4 -3,8 -7,10 -3,3 -10,5 -14,2 -2,-2 -2,-7 0,-10 -8,0 -13,4 -14,11 0,6 3,10 6,12 -3,3 -7,6 -7,12 0,6 4,9 8,11 4,2 9,4 15,2 10,-2 16,-9 21,-16 -2,6 -2,14 -1,20 1,7 4,12 8,16 2,-5 5,-10 7,-16 2,-6 2,-14 0,-20 3,4 6,7 10,11 3,3 8,5 15,5 6,0 11,-3 14,-6 1,-2 2,-5 2,-8 0,-6 -4,-10 -8,-12 4,-2 8,-9 6,-15 -1,-5 -4,-8 -10,-9 1,1 1,2 1,3 1,6 -4,8 -8,8 -10,1 -15,-6 -17,-12 5,2 11,2 14,-1 2,-3 3,-8 1,-12 -2,2 -6,4 -9,3 -6,-3 -8,-10 -9,-16 3,2 6,2 10,2 -2,-3 -3,-5 -5,-8 -4,-9 -6,-20 -6,-32 3,4 5,9 7,14 2,5 4,11 4,18 3,-1 4,-4 5,-6 1,3 0,6 0,8 -1,2 -2,3 -3,5 6,2 11,-3 13,-7 9,11 17,23 27,33 1,1 4,3 4,5 -1,1 -2,2 -4,2 0,0 -1,-1 -2,-1 -8,-1 -11,8 -6,11 0,1 0,2 0,3 1,5 10,8 13,4 -2,-1 -3,-3 -4,-5 0,0 1,-2 1,-3 1,0 2,-1 2,-1 4,0 6,-1 8,-2 3,3 6,6 9,9 0,1 0,1 1,2 -1,4 1,6 3,8 0,1 1,2 2,3 -1,1 -3,2 -5,3 4,3 10,1 12,-2 0,-1 0,-1 0,-1 0,-1 1,-1 1,-1 0,-1 0,-1 0,-2 0,0 1,-1 0,-2 4,-4 0,-11 -5,-11 -2,-3 -6,-5 -9,-8 3,1 6,2 9,3 3,1 7,2 9,4 0,1 0,1 0,2 1,1 2,2 3,2 0,3 0,6 -1,8 5,0 8,-4 9,-8 0,0 1,-1 1,-1 0,-1 -1,-2 -1,-2 0,0 0,-1 1,-1 1,-2 1,-4 -1,-6 -2,-3 -7,-5 -12,-2 -2,-2 -5,-3 -8,-5 2,-1 5,-2 9,-2 2,1 6,2 7,0 1,2 3,2 4,2 2,1 3,3 4,4 3,-2 3,-11 -1,-12 -1,-1 -2,-2 -3,-2 -1,-5 -10,-4 -12,0 -4,1 -9,2 -13,3 -2,0 -3,1 -4,1 -3,1 -5,-1 -7,-3 2,-1 3,-1 3,-3 -4,0 -6,-1 -8,-3 0,-1 1,-1 1,-2 -4,-1 -6,-4 -8,-8 1,0 1,0 1,-2 -3,-1 -6,-2 -8,-5 1,-1 2,-1 2,-2 -3,-2 -5,-4 -7,-6 -2,-2 -4,-4 -5,-7 5,2 12,1 16,-1 0,0 1,-1 1,-1 -5,-1 -9,-4 -11,-8 1,0 1,0 2,0 -3,-2 -6,-4 -7,-8 1,0 2,-1 3,-1 -3,-1 -5,-3 -6,-6 1,0 3,0 4,0 -7,-4 -9,-11 -12,-19 -2,-7 -5,-17 -14,-17 -4,0 -6,2 -9,3 1,-2 2,-5 4,-7 4,3 12,2 15,0 2,13 5,25 14,31 1,-1 3,-2 4,-3 0,5 1,10 3,14 2,5 5,11 12,11 -4,-9 -5,-20 -5,-32 2,11 4,22 7,31 3,9 7,18 14,24 3,-5 4,-12 5,-19 0,-7 1,-15 0,-23 4,8 9,17 15,23 3,2 5,4 9,4 4,1 6,-2 9,-3 -14,-7 -18,-24 -26,-38 5,7 10,13 15,18 6,5 12,10 21,12 1,-21 -7,-36 -15,-48 6,3 12,6 20,7 8,2 16,0 17,-7 -5,2 -12,0 -16,-3z"/>
        <path class="fil3" d="M170 61c3,1 5,2 8,2 0,0 -3,1 -15,-6 0,0 -14,-7 -13,3l0 0c0,0 1,-6 8,-3 4,1 8,3 12,4z"/>
        <path class="fil4" d="M138 169c0,0 -2,0 -6,-1l0 0c-4,0 -17,-2 -26,-7l0 0 -2 6c13,7 36,8 36,8 -2,-4 -4,-17 -4,-17 0,0 0,7 2,11l0 0z"/>
        <path class="fil5" d="M147 60l3 0c0,0 -2,-6 5,-6 7,1 12,6 15,6 0,0 -10,-6 -15,-6 -6,-1 -7,3 -8,6z"/>
        <path class="fil5" d="M170 57c0,0 10,3 14,0 0,0 2,-1 3,-2 1,-2 2,-3 2,-3 0,0 2,6 -5,7 -6,2 -14,-2 -14,-2z"/>
        <path class="fil5" d="M185 61c0,0 4,1 2,3l0 1c0,0 5,2 8,0 0,0 2,-2 0,-4 0,0 -2,1 -4,1 -2,0 -5,-1 -6,-1l0 0z"/>
        <path class="fil6" d="M188 66c0,0 5,7 3,8 0,0 -1,1 -2,0 0,0 6,13 1,24 -4,12 -15,24 -7,33 0,0 6,6 5,13 0,0 4,-3 -1,-14 0,0 -2,-5 0,-13 0,0 2,-10 3,-11 0,0 3,5 4,6 0,0 -1,-6 0,-10 0,-5 3,-22 0,-28 -2,-6 -6,-8 -6,-8z"/>
        <path class="fil6" d="M190 109c0,0 2,3 3,3 0,0 -2,16 -2,17 1,2 2,5 6,6 0,0 -6,3 -8,-3 -3,-6 -1,-18 1,-23z"/>
        <path class="fil5" d="M191 136c0,0 -1,4 -1,5 0,0 3,3 4,9 1,7 2,9 2,9 0,0 0,-13 -4,-20l0 -1c0,0 2,0 3,0 0,0 -3,-1 -4,-2z"/>
        <path class="fil5" d="M151 60l2 1c0,0 0,-2 1,-3 1,0 2,0 2,1 -1,0 -1,1 -1,1l2 2c0,0 0,-3 1,-3 0,0 0,-1 2,0 3,1 13,5 13,5 0,0 -1,4 -7,3 0,0 6,5 12,-2 0,0 6,0 7,-2 0,0 -6,0 -10,0 -3,-1 -11,-4 -17,-6 -5,-2 -7,1 -7,3z"/>
        <path class="fil5" d="M159 59c0,0 -2,4 2,6 5,2 6,1 6,1l-3 -1c0,0 0,0 -1,0 -1,-1 -2,-2 -1,-5 0,0 -2,-1 -3,-1z"/>
        <path class="fil6" d="M134 81c0,0 4,1 10,0 5,-2 8,-4 12,-4 3,-1 7,-1 12,2 0,0 1,0 1,1 0,0 0,1 -2,0 -1,0 -2,-1 -11,-1 0,0 -3,1 -5,1 -2,1 -11,4 -17,1z"/>
        <path class="fil7" d="M162 110c0,0 9,-3 12,-11 0,0 0,-1 1,0 0,0 1,1 1,1 0,0 -3,9 -14,10z"/>
        <path class="fil7" d="M158 113c0,0 6,3 13,-4 0,0 -11,13 -13,4z"/>
        <path class="fil7" d="M163 119c0,0 5,-2 7,-4 0,0 -7,15 -19,19 0,0 -9,3 -11,-4 0,0 3,4 10,1 7,-3 13,-12 13,-12z"/>
        <path class="fil5" d="M142 137c0,0 6,1 10,-1 0,0 4,-2 6,-4 2,-1 7,-7 7,-8l-2 7c0,0 -7,5 -11,6 0,0 -5,2 -7,7 0,0 -3,5 -4,5 0,0 2,-3 3,-5 0,0 2,-4 3,-6 0,0 -4,0 -5,-1z"/>
        <path class="fil5" d="M162 136l0 4c0,0 -2,0 -3,6 0,6 1,8 0,11 0,0 0,-3 -1,-6 0,-3 -1,-6 0,-9 1,-4 4,-6 4,-6z"/>
        <path class="fil5" d="M151 140c0,0 -2,6 -1,9 0,0 0,3 1,4 1,1 6,5 7,7 0,0 -4,-4 -7,-7 0,0 -2,-1 -2,-2 0,0 -1,3 -4,4 -3,1 -6,3 -6,3 0,0 0,-1 0,-2 0,0 -1,0 -3,1l0 0c0,0 1,-2 4,-2 2,-1 7,-1 8,-3 0,0 1,-2 1,-4 0,0 1,-5 2,-8z"/>
        <path class="fil6" d="M185 90c0,0 1,0 1,-1 0,0 1,-1 1,-1 0,0 0,8 -2,12 -1,4 -3,7 -6,11 -2,4 -7,13 -7,15 -1,1 -4,11 -5,12 0,0 3,-11 4,-14 1,-4 7,-14 8,-15 0,-1 5,-10 5,-11 1,-2 2,-7 1,-8z"/>
        <path class="fil6" d="M175 126c0,0 0,8 1,10 0,0 -4,5 -5,6 -1,1 -5,4 -8,2 0,0 3,-1 4,-3 1,-2 5,-14 8,-15z"/>
        <path class="fil7" d="M179 118c0,0 -3,9 -1,12 2,3 5,5 5,6 1,0 3,3 3,3 0,0 -5,-2 -7,-4 -2,-2 -6,-7 0,-17z"/>
        <path class="fil7" d="M182 73c0,0 8,5 8,14 1,10 -3,17 -5,20 -2,3 -8,10 -8,10 0,0 10,-16 11,-23 1,-6 -3,-16 -6,-21z"/>
        <path class="fil5" d="M178 138c0,0 4,3 5,3 0,0 2,1 3,2 0,0 0,1 0,1l0 -1 -1 -2 -7 -3c0,0 -1,-1 -2,-1 0,0 -2,4 -1,7 1,3 3,6 3,10 0,3 0,5 0,5 0,0 2,-5 1,-8 -1,-4 -4,-9 -1,-13z"/>
        <path class="fil5" d="M187 145c0,0 1,4 1,5 0,0 -1,4 -6,8 -4,3 -5,4 -5,4 0,0 -1,-1 4,-5 5,-3 6,-11 6,-12z"/>
        <path class="fil7" d="M153 62c0,0 5,2 8,8 0,0 -2,-1 -3,-1 0,0 -2,-5 -5,-7z"/>
        <path class="fil5" d="M166 145l1 0c0,0 0,4 2,6 3,1 8,6 8,9 0,0 -1,-3 -4,-5 -3,-2 -5,-4 -5,-4 0,0 -1,4 -4,6 -3,2 -5,4 -5,5 0,0 0,-2 4,-5 3,-3 4,-10 3,-12z"/>
        <path class="fil8" d="M176 72c0,0 7,6 8,12 0,7 0,10 -2,15 -3,6 -11,21 -11,21 0,0 -6,13 -7,19 0,0 0,0 0,0 -1,7 -1,-8 8,-23 8,-14 10,-21 9,-26 -1,-6 -1,-11 -5,-18z"/>
        <path class="fil5" d="M144 182c0,0 -3,-5 -3,-6 0,0 1,-1 1,-2 1,0 0,2 2,2 0,0 0,-2 1,-3 1,-1 6,-5 6,-8l-3 -2c0,0 1,4 -2,7 -3,3 -5,5 -5,6 0,0 1,3 3,6z"/>
        <path class="fil5" d="M151 165c0,0 10,4 17,-2l2 2c0,0 -10,6 -19,0z"/>
        <path class="fil5" d="M170 165c0,0 9,4 15,-2l1 2c0,0 -9,4 -16,0l0 0z"/>
        <path class="fil5" d="M189 152c0,0 5,7 4,11 -2,4 -4,2 -5,1 -1,-2 -2,-5 -1,-10 0,0 -3,5 1,11 5,6 4,8 4,8 0,0 4,-8 3,-12 -1,-4 -6,-9 -6,-9z"/>
        <path class="fil5" d="M149 173c0,0 6,1 9,-3l2 1c0,0 -6,4 -11,2z"/>
        <path class="fil5" d="M160 172c0,0 9,4 17,-1l1 1c0,0 -9,5 -18,0l0 0z"/>
        <path class="fil5" d="M179 172c0,0 6,3 11,-2 0,0 1,1 1,2 0,0 -5,3 -13,1l1 -1z"/>
        <path class="fil5" d="M150 178c0,0 -1,2 -4,4 0,0 -1,1 -1,1 1,1 2,3 2,3 0,0 0,-2 1,-3 1,-2 3,-3 2,-5z"/>
        <path class="fil5" d="M168 178c0,0 -6,7 -18,0l0 0c0,0 4,3 12,4 0,0 5,0 8,-3 0,0 -2,0 -2,-1z"/>
        <path class="fil5" d="M186 176c0,0 0,1 0,2 0,0 -8,5 -16,1l0 0c0,0 8,3 16,-3z"/>
        <path class="fil5" d="M191 173c0,0 1,2 1,5 -1,3 -1,4 -1,4 0,0 -4,-2 -4,-4 0,0 0,-1 1,-2 2,0 3,-3 3,-3 0,-1 0,0 0,0z"/>
        <path class="fil5" d="M187 180c0,0 2,5 7,5 5,0 9,-5 9,-5l0 4c0,0 -6,6 -14,2 0,0 -1,4 -1,5 0,0 -5,-1 -7,-5 0,0 2,0 2,-1 1,-1 2,-4 4,-5z"/>
        <path class="fil5" d="M185 191c0,0 -3,-2 -3,-2 -1,-1 -2,1 -2,3 1,1 1,3 2,4l3 -5z"/>
        <path class="fil5" d="M179 184l1 2c0,0 -13,8 -25,0l0 0c0,0 6,4 12,3 7,-1 12,-5 12,-5z"/>
        <path class="fil5" d="M154 185l1 1c0,0 -1,4 -4,6l-2 -2c0,0 4,-2 5,-5z"/>
        <path class="fil5" d="M153 197c0,0 2,-3 3,-4 0,0 1,2 1,2 0,0 0,0 0,0 1,0 -1,1 -2,1 0,1 -2,3 -2,3l0 -2z"/>
        <path class="fil5" d="M158 195c0,0 2,1 6,1 4,-1 5,-3 5,-3l1 1c0,0 -6,5 -12,1z"/>
        <path class="fil5" d="M180 194l1 2c0,0 -4,1 -9,-1 0,0 5,1 8,-1z"/>
        <path class="fil5" d="M177 199l1 2c0,0 -2,6 -2,11 -1,5 -4,22 -4,22 0,0 1,-14 0,-18 0,-5 0,-9 0,-10 0,-2 -1,-3 -2,-3 -1,0 -3,0 -3,-1 0,0 6,0 10,-3z"/>
        <path class="fil5" d="M180 201l0 1c0,0 -2,7 -3,14 0,7 -1,13 -1,13 0,0 -1,13 -3,20 0,0 -2,4 -5,7l0 -5c0,0 4,-2 7,-15 0,0 2,-18 2,-19 0,-1 1,-13 3,-16z"/>
        <path class="fil7" d="M159 200c0,0 2,1 4,1 0,0 -3,1 -3,1 0,0 2,7 2,15 0,8 1,16 1,17 0,1 2,8 2,9 1,1 -1,1 -3,-10 -1,-10 -1,-15 -1,-19 -1,-4 -2,-10 -4,-13l2 -1z"/>
        <path class="fil5" d="M154 204c0,0 4,21 4,28 0,0 -8,9 -10,14 -2,4 -3,14 -2,19 0,0 -7,-1 -7,-11 0,0 0,-5 1,-9 0,0 4,2 7,-2 3,-4 5,-7 7,-11 2,-4 2,-10 2,-12 0,-1 -2,-16 -2,-16z"/>
        <path class="fil5" d="M160 232c0,0 1,14 5,19 0,0 -2,6 -3,9 0,0 0,-3 -1,-3 -1,0 -8,12 -12,15 0,0 8,-10 9,-14 1,-4 2,-8 2,-13 0,-5 0,-13 0,-13z"/>
        <path class="fil5" d="M171 254c0,0 -2,23 -2,28l-1 -25c0,0 2,-3 3,-3z"/>
        <path class="fil5" d="M173 262c0,0 4,7 5,8l0 1c0,0 -1,-2 -1,0 -1,1 -3,17 -8,26l0 -5c0,0 -3,-3 -5,-11 0,0 3,8 5,10 0,0 4,-9 5,-15 1,-6 0,-12 -1,-14z"/>
        <path class="fil5" d="M173 287l2 3c0,0 3,14 2,23 0,9 -1,17 -8,25l0 -5c0,0 -6,-11 -6,-25 0,0 2,17 6,24 0,0 5,-5 6,-13 1,-8 1,-21 -2,-30l0 -2z"/>
        <path class="fil5" d="M173 287l2 3c0,0 3,14 2,23 0,9 -1,17 -8,25l0 -5c0,0 -6,-11 -6,-25 0,0 2,17 6,24 0,0 5,-5 6,-13 1,-8 1,-21 -2,-30l0 -2z"/>
        <path class="fil7" d="M167 294l2 3 1 -2 -1 30 -1 -16c0,0 -1,-13 -1,-15z"/>
        <path class="fil7" d="M167 336c0,0 1,2 2,2 1,0 2,-3 2,-3l-2 20 -2 -19z"/>
        <path class="fil7" d="M177 232c0,0 -1,11 -2,14 0,0 1,25 12,25l0 0c0,0 -4,-4 -7,-15 -4,-11 -3,-24 -3,-24z"/>
        <path class="fil7" d="M175 284c0,0 0,4 2,6 1,1 5,4 7,5 0,0 -3,0 -6,-4 -3,-4 -4,-5 -4,-5l1 -2z"/>
        <path class="fil7" d="M178 273c0,0 1,7 3,10 2,3 6,8 10,8 0,0 -6,3 -13,-7l-2 -4c0,0 1,-8 2,-7z"/>
        <path class="fil7" d="M161 262c0,0 0,12 1,14 0,3 2,9 2,10 0,0 -3,6 -8,6 0,0 6,-4 6,-9l0 -2 -2 4c0,0 -3,7 -10,7 0,0 6,-1 9,-6 0,0 2,-7 2,-10l0 -6c0,0 -1,13 -8,15 0,0 5,-4 5,-10 1,-5 3,-13 3,-13z"/>
        <path class="fil5" d="M164 287l1 2c0,0 -5,6 -10,8 -6,2 -13,2 -15,-7 0,0 2,9 12,6 0,0 8,-3 12,-9z"/>
        <path class="fil7" d="M164 295c0,0 -3,8 -3,12 0,0 -4,5 -6,7 0,0 5,-5 4,-7 0,0 -1,0 -3,3 -1,2 -10,9 -16,8 0,0 8,-1 15,-9 6,-8 9,-14 9,-14z"/>
        <path class="fil7" d="M131 301c0,0 -6,4 -2,12 0,0 -4,-1 -2,-8 0,0 1,-2 -2,0 -2,2 -5,10 5,17 0,0 -7,-2 -8,-9 -1,-6 4,-12 9,-12z"/>
        <path class="fil5" d="M161 308c0,0 0,3 0,4 0,0 -9,9 -16,11 -7,2 -12,0 -12,0 0,0 12,1 18,-5 7,-6 10,-10 10,-10z"/>
        <path class="fil7" d="M161 314c0,0 1,8 1,9 0,0 -6,11 -12,16 0,0 10,-11 11,-16 0,0 -10,17 -23,17 0,0 14,-2 19,-14 0,0 4,-7 4,-12z"/>
        <path class="fil7" d="M127 324c0,0 -6,13 8,16 0,0 -4,1 -7,-1 -3,-2 -5,2 -1,4 0,0 -7,-2 -6,-9 0,-7 6,-10 6,-10z"/>
        <path class="fil5" d="M162 324l2 3c0,0 -7,12 -16,18 -8,5 -18,2 -18,2 0,0 9,1 6,0 0,0 -2,-1 -2,-1 -1,0 4,0 6,-1 1,0 7,-1 12,-6 4,-4 10,-12 10,-15z"/>
        <path class="fil7" d="M175 291c0,0 3,3 6,5 0,0 -1,9 8,16 8,6 15,3 15,3 0,0 -8,5 -17,-3 -9,-8 -11,-18 -12,-21z"/>
        <path class="fil7" d="M208 299c0,0 14,10 -3,20 0,0 14,-7 3,-20z"/>
        <path class="fil5" d="M212 302c0,0 7,11 -4,18 0,0 -4,3 -11,2 0,0 7,3 13,-2 6,-5 6,-12 2,-18z"/>
        <path class="fil5" d="M178 307c0,0 4,9 12,11 0,0 6,2 9,2 0,0 -9,1 -15,-4 0,0 -5,-5 -6,-7l0 -2z"/>
        <path class="fil7" d="M178 316c0,0 2,12 15,22 0,0 -11,-6 -16,-19l1 -3z"/>
        <path class="fil5" d="M210 324c0,0 4,8 -1,13 -5,5 -10,3 -10,3 0,0 8,2 12,-3 4,-5 1,-11 -1,-13z"/>
        <path class="fil5" d="M215 328c0,0 4,12 -8,17 0,0 -6,2 -13,0l-4 -1c0,0 6,5 15,3 10,-2 14,-13 10,-19z"/>
        <path class="fil5" d="M120 235c0,0 12,-2 16,-9 0,0 8,1 17,-12 0,0 -6,12 -18,15 0,0 -9,8 -17,8l2 -2z"/>
        <path class="fil5" d="M117 243c0,0 9,1 18,-9 0,0 7,0 15,-6 0,0 -6,8 -16,8 0,0 -9,9 -19,9l2 -2z"/>
        <path class="fil5" d="M134 242c0,0 8,1 14,-5 0,0 -6,8 -15,7 0,0 -7,11 -23,10l2 -2c0,0 13,3 22,-10z"/>
        <path class="fil7" d="M133 249c0,0 1,4 6,-3 0,0 -7,13 3,20 0,0 -8,1 -2,6 0,0 -13,-5 -7,-23z"/>
        <path class="fil5" d="M131 252c0,0 -6,9 -17,7 0,0 5,1 0,2 0,0 12,2 17,-9z"/>
        <path class="fil7" d="M121 263l1 6 -3 1c0,0 3,-3 2,-7z"/>
        <path class="fil5" d="M130 256c0,0 -1,8 2,11l-8 3 -1 -1c0,0 5,-8 6,-12l1 -1z"/>
        <path class="fil7" d="M125 270l-1 0c0,0 -12,14 -15,17 -3,3 -12,14 -7,17 0,0 -1,-3 0,-6 2,-3 6,-9 9,-12 3,-3 14,-14 14,-16z"/>
        <path class="fil5" d="M97 301c0,0 -1,3 0,4 1,0 3,0 3,1 0,0 -2,0 -3,2 -2,1 -2,3 -4,3 0,0 -2,4 -5,6 -2,2 -5,5 -5,7 0,2 2,6 -4,9 0,0 -5,2 -7,-3 0,0 7,2 5,-8 0,0 3,0 4,1 0,0 3,-5 5,-7 3,-3 11,-13 11,-15z"/>
        <path class="fil7" d="M110 320c0,0 2,0 2,0 1,-1 2,-1 2,0 -1,1 -1,3 -4,0z"/>
        <path class="fil5" d="M108 319c0,0 4,-2 1,-6 0,0 -1,-1 -3,-2 -2,0 -3,-2 0,-3 2,-1 9,-2 10,5 1,7 -8,6 -8,6z"/>
        <path class="fil7" d="M94 301c0,0 -7,13 -24,17 0,0 -3,8 -11,4 0,0 -6,-4 3,-5 0,0 4,0 5,-3 0,0 5,1 11,-1 5,-2 8,-5 9,-6 2,-2 6,-6 7,-6z"/>
        <path class="fil7" d="M58 323c0,0 1,2 4,1 0,0 -3,1 -5,0 0,0 1,-1 1,-1z"/>
        <path class="fil7" d="M66 296c0,0 -2,4 -4,5 -3,0 -6,-1 -5,2 1,3 3,4 6,4 0,0 2,-1 3,-3 2,-1 5,-3 6,-2 0,0 -1,1 -3,1 -1,1 0,2 1,2 1,0 4,2 8,0 3,-1 8,-4 8,-5 0,0 -5,0 -8,0 -3,-1 -7,-2 -8,-2 -2,0 -1,0 -2,0 0,-1 -1,-2 -2,-2z"/>
        <path class="fil7" d="M55 301c0,0 0,4 3,5 0,0 -3,-1 -4,-2 0,0 -1,0 0,0 0,0 0,-3 1,-3z"/>
        <path class="fil5" d="M111 272c0,0 7,0 10,-2 0,0 -7,5 -12,5 0,0 2,-2 2,-3z"/>
        <path class="fil5" d="M104 281c0,0 7,0 10,-2 0,0 -5,4 -12,4 0,0 2,-1 2,-2z"/>
        <path class="fil5" d="M99 289c0,0 6,0 9,-2 0,0 -4,4 -11,4 0,0 1,-1 2,-2z"/>
        <path class="fil5" d="M89 294c0,0 5,2 12,1 0,0 -5,2 -9,2 0,0 -2,-1 -3,-3z"/>
        <path class="fil5" d="M191 219c0,0 5,5 12,5 0,0 5,7 10,7l1 2c0,0 -4,0 -11,-7 0,0 -10,-2 -12,-7z"/>
        <path class="fil5" d="M190 226c0,0 4,4 11,5 0,0 4,5 10,6 0,0 4,1 5,1l1 2c0,0 -8,-1 -15,-7 0,0 -9,-2 -12,-7z"/>
        <path class="fil5" d="M192 235c0,0 7,5 11,4 0,0 2,4 6,5 0,0 5,2 12,2l1 2c0,0 -6,0 -11,-2 -5,-3 -7,-4 -8,-5 -1,0 -9,-4 -11,-6z"/>
        <path class="fil5" d="M232 254c0,0 -5,5 -17,2 0,0 5,0 2,-1 -4,-1 -8,-2 -9,-4 0,0 5,3 12,3 6,0 8,-1 8,-1 0,0 3,1 4,1z"/>
        <path class="fil5" d="M193 259c0,0 4,-8 4,-13 0,0 2,9 -4,17l0 -4z"/>
        <path class="fil5" d="M202 249c0,0 5,6 12,7 0,0 2,5 1,8l-8 -10c0,0 -1,8 -5,13 -4,4 -7,5 -11,5 0,0 7,-1 10,-6 2,-6 4,-9 1,-17z"/>
        <path class="fil5" d="M205 261c0,0 5,4 9,3 0,0 -1,2 -4,1 0,0 6,7 17,4 0,0 -2,6 -14,-1 0,0 2,5 7,7 5,2 11,1 12,1l1 0c0,0 0,2 -1,2 -1,1 -7,1 -14,-3 0,0 9,14 21,10l1 1 -1 2c0,0 -8,0 -14,-5 0,0 5,7 10,9 5,2 9,0 10,-1l2 0c0,0 0,4 -6,3 -7,-1 -8,-2 -8,-2 0,0 4,5 4,7 0,0 -3,-4 -6,-8 -3,-3 -9,-10 -9,-10 0,0 -9,-12 -10,-13 -1,-1 -7,-7 -7,-7l0 0z"/>
        <path class="fil7" d="M257 297c0,0 2,-1 7,-1 0,0 3,-1 5,-2 2,-2 1,-4 6,-4 0,0 3,0 5,3 0,0 2,0 2,2 0,0 -1,1 -1,3 0,2 0,5 -3,4 0,0 1,-1 0,-1 -1,1 -1,0 -1,-1 0,0 -2,3 -5,2 0,0 0,-1 0,-1 0,0 4,-1 3,-4 0,-3 -3,-3 -4,-2 -1,0 -2,3 -4,3 -1,0 -8,-1 -10,-1z"/>
        <path class="fil7" d="M270 316c0,0 1,3 6,3 4,0 4,-2 3,-2 0,0 4,-4 1,-7 -4,-3 -8,-4 -12,-2 0,0 0,1 -1,0 -1,-1 -9,-5 -12,-6 0,0 11,5 12,7 0,2 -4,-1 -4,-1 0,0 -8,-3 -10,-3 0,0 9,3 13,6 0,0 2,1 2,1 1,0 5,-3 6,0 1,4 -3,5 -4,4z"/>
        <path class="fil7" d="M253 311c0,0 0,0 0,1 1,0 4,3 4,6 0,0 2,-2 2,1 0,0 6,4 -1,9 0,0 2,1 1,2 0,2 -2,2 -2,2 0,0 1,1 3,0 2,0 4,0 4,0 0,0 1,0 1,-2 0,0 1,-1 0,-2 0,0 2,-4 1,-7 -2,-3 -6,-4 -6,-4l-7 -6z"/>
        <path class="fil7" d="M226 318c0,0 1,0 2,-1 1,0 2,0 2,0 0,0 1,-3 0,-2 -1,1 -4,3 -4,3z"/>
        <path class="fil7" d="M233 311c0,0 9,3 10,-7 0,0 -2,7 -10,4 0,0 -7,-3 -8,2 0,0 0,1 1,2 2,1 0,3 -2,3 0,0 7,2 9,-4z"/>
        <path class="fil9" d="M204 184c0,0 7,3 4,-1l0 0c0,0 5,1 11,-5 0,0 0,2 0,2 0,1 -2,3 -5,5 0,0 1,10 5,15 3,4 5,8 7,8 0,0 -4,-2 -7,-7 -3,-5 -5,-13 -6,-16l-2 0c0,0 1,7 2,7l1 22 -5 -29c0,0 -3,0 -5,-1l0 0z"/>
        <path class="fil5" d="M215 222l-1 -4c0,0 5,-2 7,-10l6 5 2 -1c0,0 1,18 2,23 1,6 3,9 3,9 0,0 -8,-2 -9,-19l-2 -14c0,0 -2,9 -8,11z"/>
        <polygon class="fil7" points="221,182 225,182 226,203 "/>
        <path class="fil9" d="M227 208l0 4c0,0 9,-7 8,-22l13 62 -9 -62c0,0 -5,-5 -7,-10l-1 0c0,0 6,17 -4,28z"/>
        <path class="fil9" d="M245 195l5 2c0,0 12,47 0,70l0 -6c0,0 -13,-6 -19,-53l0 0c0,0 6,43 18,52 0,0 9,-20 -1,-63 0,0 -1,-2 -3,-2z"/>
        <path class="fil7" d="M251 197l6 2c0,0 3,9 4,10 1,1 5,8 6,12 0,0 8,20 21,28 0,0 -9,4 -18,-12 -10,-15 -17,-30 -17,-30l-2 -10z"/>
        <path class="fil9" d="M249 82c0,0 -13,4 -18,14 0,0 4,0 5,1l13 -14 -11 15c0,0 4,3 5,5 0,0 8,-1 12,3 4,5 4,9 2,13 0,0 6,5 5,12 -2,7 -6,8 -6,8 0,0 3,7 1,13 -2,5 -6,7 -6,7 0,0 -1,9 -5,12 -4,2 -7,3 -10,3 0,0 -6,11 -17,7l0 -1c0,0 6,3 6,1 0,0 0,-1 -3,-1 0,0 -2,0 -3,-1 0,0 10,4 15,-7 0,0 8,0 12,-5 4,-6 3,-10 3,-10 0,0 6,-2 6,-8 1,-6 -2,-10 -2,-10 0,0 7,-3 6,-12 0,0 0,-5 -4,-8 0,0 3,-6 -2,-11 0,0 -4,-4 -12,-3 0,0 -1,-6 -9,-6 0,0 4,-1 1,-2 0,0 -1,-1 -4,0l1 -1c0,0 7,-11 19,-14z"/>
        <path class="fil9" d="M249 82c0,0 -13,4 -18,14 0,0 4,0 5,1l13 -14 -11 15c0,0 4,3 5,5 0,0 8,-1 12,3 4,5 4,9 2,13 0,0 6,5 5,12 -2,7 -6,8 -6,8 0,0 3,7 1,13 -2,5 -6,7 -6,7 0,0 -1,9 -5,12 -4,2 -7,3 -10,3 0,0 -6,11 -17,7l0 -1c0,0 6,3 6,1 0,0 0,-1 -3,-1 0,0 -2,0 -3,-1 0,0 10,4 15,-7 0,0 8,0 12,-5 4,-6 3,-10 3,-10 0,0 6,-2 6,-8 1,-6 -2,-10 -2,-10 0,0 7,-3 6,-12 0,0 0,-5 -4,-8 0,0 3,-6 -2,-11 0,0 -4,-4 -12,-3 0,0 -1,-6 -9,-6 0,0 4,-1 1,-2 0,0 -1,-1 -4,0l1 -1c0,0 7,-11 19,-14z"/>
        <path class="fil9" d="M252 80c0,0 2,8 -1,15 0,0 8,-3 11,-3 0,0 -12,2 -18,11l-1 0c0,0 9,-9 7,-20l2 -3z"/>
        <polygon class="fil7" points="237,174 253,192 241,174 "/>
        <path class="fil9" d="M249 169c0,0 5,8 17,10 0,0 -5,0 -7,-1l33 51 -37 -52c0,0 4,11 2,21l-2 -4c0,0 2,-11 -7,-25l1 0z"/>
        <path class="fil9" d="M271 179c0,0 2,0 3,0 0,0 10,15 13,20 2,4 9,16 10,28 2,11 1,14 1,14l-2 -4c0,0 -14,0 -36,-35 0,0 22,33 35,34 0,0 5,-17 -24,-57z"/>
        <path class="fil9" d="M256 107l-2 -2 15 -13c0,0 3,15 -11,25 0,0 1,-2 1,-2 0,0 8,-8 8,-20l-11 12z"/>
        <path class="fil9" d="M278 177l-4 -2c0,0 0,-12 -17,-22l1 -1c0,0 21,3 27,-8 0,0 26,2 32,-10l3 0c0,0 -3,9 -21,12l-12 0c0,0 -5,8 -18,8l47 22 -48 -18c0,0 9,7 10,19z"/>
        <path class="fil9" d="M278 177l-4 -2c0,0 0,-12 -17,-22l1 -1c0,0 21,3 27,-8 0,0 26,2 32,-10l3 0c0,0 -3,9 -21,12l-12 0c0,0 -5,8 -18,8l47 22 -48 -18c0,0 9,7 10,19z"/>
        <path class="fil9" d="M270 132c0,0 9,3 13,7l-3 -3c0,0 28,-2 34,-2l-38 0 -6 -2z"/>
        <path class="fil7" d="M239 84c0,0 9,-4 10,-5 2,-1 25,-20 25,-20l-22 21c0,0 -10,2 -13,4z"/>
        <polygon class="fil9" points="265,91 270,92 287,71 "/>
        <path class="fil9" d="M284 113l-3 1c0,0 -2,12 -20,19l0 1 8 -2c0,0 14,-10 15,-19l20 -12 -22 11c0,0 -11,0 -19,2 0,0 16,-3 21,-1z"/>
        <path class="fil7" d="M280 54l-3 3c0,0 -1,10 -13,20l-11 10 0 1c0,0 14,-10 18,-15 5,-6 9,-12 9,-19z"/>
        <path class="fil7" d="M292 67l-4 3c0,0 1,9 -5,16 -5,7 -14,13 -14,13l0 3c0,0 20,-11 23,-35z"/>
        <path class="fil7" d="M296 78c0,0 6,6 -5,18 0,0 -9,2 -26,15 0,0 0,-1 0,-1l18 -13c0,0 13,-8 13,-19z"/>
        <path class="fil7" d="M307 99l4 -1c0,0 -3,11 -19,20 0,0 -6,3 -11,4l0 -1c0,0 19,-6 26,-22z"/>
        <path class="fil7" d="M314 110c0,0 6,8 -15,15 0,0 -13,-1 -21,0l11 -1c0,0 21,-5 25,-14z"/>
        <path class="fil8" d="M275 57c0,0 -37,8 -46,35 0,0 -4,5 -4,7 0,0 -6,4 -4,12 0,0 -7,3 -7,10 1,8 8,8 10,8l1 0c0,0 -17,5 -16,-13 1,-6 12,-47 66,-59z"/>
        <path class="fil8" d="M216 136c0,0 5,0 9,-6l0 0c0,0 -1,7 0,9 0,0 6,0 10,-3 0,0 8,21 -39,26 0,0 2,-9 2,-11l2 0c0,0 10,4 20,-6 0,0 5,-5 -4,-9z"/>
        <path class="fil7" d="M229 123c0,0 -3,4 -4,6 0,0 -8,-1 -9,-7 -1,-6 5,-9 8,-10 0,0 -3,-10 6,-13 0,0 8,-2 11,7l-1 2c0,0 -5,-5 -10,-5 0,0 -4,7 -2,13 0,0 -6,-1 -9,2 0,0 2,5 7,7 0,0 2,-2 3,-2z"/>
        <path class="fil7" d="M240 109l1 2c0,0 5,-2 9,0 0,0 1,4 -2,8 0,0 7,6 8,12 0,0 -2,2 -8,1 0,0 3,1 6,0 4,0 3,4 -1,6 0,0 6,-2 6,-11 0,0 -1,-5 -5,-7 0,0 3,-6 0,-11 -2,-2 -5,-4 -13,-3l-1 3z"/>
        <path class="fil9" d="M243 117c0,0 -3,3 -5,6l17 8c0,0 1,-6 -12,-14z"/>
        <path class="fil9" d="M238 123l2 7c0,0 -4,7 -14,8l12 -15z"/>
        <path class="fil9" d="M243 117c0,0 -4,3 -5,5 0,0 -5,-13 -8,-18 0,0 -4,6 1,16 0,0 -6,-9 -1,-16 0,0 10,0 13,13z"/>
        <path class="fil9" d="M249 111l-6 6 4 2c0,0 4,-3 3,-8 0,0 -3,-1 -8,1 0,0 4,-2 7,-1z"/>
        <path class="fil9" d="M229 116c0,0 1,4 2,5l-11 -3c0,0 3,-2 9,-2z"/>
        <path class="fil10" d="M195 169l-2 5c66,-5 53,-42 53,-42l0 0c-2,0 -6,-2 -6,-2l0 0c12,38 -45,39 -45,39l0 0z"/>
        <path class="fil5" d="M319 177l4 2c0,0 -12,10 -45,-4 0,0 -1,-4 -2,-4 0,0 30,15 43,6z"/>
        <path class="fil7" d="M274 179l1 1c0,0 21,13 24,14 3,1 14,7 21,-1 0,0 -4,2 -12,-1 0,0 -6,-2 -13,-7 -7,-4 -17,-10 -17,-10l0 3 -4 1z"/>
        <path class="fil11 str0" d="M274 179l1 1c0,0 21,13 24,14 3,1 14,7 21,-1 0,0 -4,2 -12,-1 0,0 -6,-2 -13,-7 -7,-4 -17,-10 -17,-10l0 3 -4 1z"/>
        <path class="fil9" d="M112 208c0,0 0,13 4,18 0,0 -7,27 -17,24 0,0 6,-3 8,-11 3,-8 3,-11 4,-30l1 -1z"/>
        <path class="fil7" d="M103 180c0,0 -4,15 1,24 0,0 -6,-8 -1,-24l0 0z"/>
        <path class="fil9" d="M80 258l18 -58c0,0 2,8 7,13 0,0 -12,41 -26,50l1 -3c0,0 -7,-15 5,-60 0,0 -13,40 -7,64l-2 5c0,0 21,-12 33,-58l-4 1c0,0 -9,-8 -6,-26l-2 3 -17 69z"/>
        <path class="fil7" d="M86 168c0,0 -8,12 -4,28l0 1c0,0 -6,-16 4,-29z"/>
        <path class="fil8" d="M80 200l4 -1c0,0 -5,20 -9,26 -3,6 -16,35 -34,31 0,0 16,-3 25,-24 0,0 4,-7 4,-9 1,-1 6,-13 6,-13l4 -10z"/>
        <path class="fil9" d="M77 152c0,0 -10,3 -13,5 0,0 -44,19 -45,19 -1,0 43,-15 43,-15 0,0 3,-5 15,-9l0 0z"/>
        <path class="fil8" d="M94 99c0,0 -2,-10 0,-11 0,0 6,8 9,14 0,0 -5,2 -8,-2l3 5c0,0 3,-2 5,-1 0,0 3,-1 4,-1 0,0 -1,-2 -2,-3 -1,-2 -8,-11 -11,-13 0,0 6,-1 14,7 0,0 5,6 7,13 0,0 -2,-18 -23,-22 0,0 -1,6 2,14z"/>
        <path class="fil8" d="M88 68c0,0 -20,-13 -30,-13 0,0 0,8 13,19 0,0 -10,-10 -9,-15 0,0 5,-3 26,9z"/>
        <path class="fil8" d="M40 68l4 2c0,0 -1,9 12,18 0,0 11,8 17,8 0,0 -5,0 -6,1l-10 -8 -10 -8 -1 0c0,0 -5,-7 -6,-13z"/>
        <path class="fil8" d="M67 99c0,0 0,5 1,6 0,0 -33,-13 -34,-25 0,0 3,5 9,10 6,4 20,11 24,9z"/>
        <path class="fil8" d="M46 98c0,0 -16,-1 -19,2l-3 -2c0,0 2,8 21,16 0,0 10,3 15,0l0 0c0,0 -7,4 -7,4 0,0 -25,-8 -30,-20 0,0 8,-3 23,0z"/>
        <path class="fil8" d="M52 120c0,0 2,2 3,3 0,0 -12,-2 -17,-1 0,0 -17,-5 -19,-12 0,0 11,13 33,10z"/>
        <path class="fil8" d="M31 125c0,0 -12,2 -15,6l-2 0c0,0 1,5 23,11 0,0 12,3 18,-2l0 0c0,0 -4,3 -4,4 0,0 -8,1 -17,-2 -8,-2 -18,-6 -21,-11 0,0 7,-5 18,-6z"/>
        <path class="fil9" d="M17 132c0,0 26,2 31,2 6,1 18,0 21,0 0,0 -8,1 -11,3 0,0 -12,-2 -17,-2l-24 -3z"/>
        <path class="fil8" d="M13 145c0,0 5,4 14,4 10,-1 20,-2 22,-1l3 2c0,0 -13,1 -18,1 -5,0 -17,1 -21,-6z"/>
        <path class="fil8" d="M39 157c0,0 -21,12 -21,19l-2 1c0,0 1,3 16,0l1 1c0,0 -2,0 -2,0 0,0 -11,2 -17,0 0,0 4,-10 25,-21z"/>
        <path class="fil5" d="M58 169c0,0 -1,4 -1,5 0,0 -13,4 -19,5 0,0 -1,0 -2,-1 0,0 0,-1 -2,0l-1 -1c0,0 15,-2 25,-8z"/>
        <path class="fil9" d="M82 170c0,0 -2,5 -2,7l-48 60c0,0 11,1 32,-26 0,0 12,-16 14,-23 0,0 0,-3 1,-5 0,0 -1,8 0,11 0,0 -26,45 -51,48l25 -33 26 -37 3 -2z"/>
        <path class="fil9" d="M112 208c0,0 0,13 4,18 0,0 -7,27 -17,24 0,0 6,-3 8,-11 3,-8 3,-11 4,-30l1 -1z"/>
        <path class="fil9" d="M80 258l18 -58c0,0 2,8 7,13 0,0 -12,41 -26,50l1 -3c0,0 -7,-15 5,-60 0,0 -13,40 -7,64l-2 5c0,0 21,-12 33,-58l-4 1c0,0 -9,-8 -6,-26l-2 3 -17 69z"/>
        <path class="fil8" d="M80 200l4 -1c0,0 -5,20 -9,26 -3,6 -16,35 -34,31 0,0 16,-3 25,-24 0,0 4,-7 4,-9 1,-1 6,-13 6,-13l4 -10z"/>
        <path class="fil9" d="M82 170c0,0 -2,5 -2,7l-48 60c0,0 11,1 32,-26 0,0 12,-16 14,-23 0,0 0,-3 1,-5 0,0 -1,8 0,11 0,0 -26,45 -51,48l25 -33 26 -37 3 -2z"/>
        <path class="fil8" d="M64 177c0,0 -17,19 -23,31 -7,11 -9,17 -9,28l-1 2c0,0 0,-8 1,-13 2,-6 8,-24 32,-48z"/>
        <path class="fil8" d="M62 175l-15 16c0,0 -13,8 -20,10 0,0 -10,4 -15,-5 0,0 6,2 12,0 0,0 6,-1 12,-4 0,0 14,-9 17,-11 3,-3 8,-6 8,-6l1 0z"/>
        <path class="fil9" d="M122 186c0,0 0,3 3,5l-7 29 3 -27c0,0 -3,9 -7,13 0,0 1,14 3,18 0,0 12,-8 13,-29 0,0 0,-1 -1,-2 0,0 -2,-1 -3,-2 0,0 5,3 7,3 0,0 -3,24 -16,34l0 -4c0,0 -3,-3 -3,-18 0,0 -4,4 -8,6l0 -3c0,0 11,-5 15,-23 0,0 -5,1 -8,0l-7 22 4 -23c0,0 -4,-2 -8,-6l0 -1 0 1c0,0 1,-2 2,-3 0,0 0,0 -1,0l0 0 1 0c0,0 6,11 17,6 0,0 1,2 0,3l1 0c0,0 0,-1 0,-2l0 0c0,0 2,5 12,4 0,0 2,-1 2,0 0,1 0,2 0,2l0 0 0 -2 0 0 0 0c0,0 5,4 11,-1l2 3 -1 0c0,0 -6,4 -12,0 0,0 -8,2 -14,-3z"/>
        <path class="fil9" d="M88 167c0,0 1,2 2,4 0,0 1,1 2,3 1,1 2,1 2,1 0,0 1,-2 1,-2 0,0 4,4 8,2l0 1c0,0 -1,2 -1,3 -1,2 -4,9 -6,11 -2,3 -6,7 -16,10l2 -3c0,0 4,-1 8,-3 3,-3 7,-7 11,-15 0,0 -6,-2 -7,-3l-11 18 8 -19c0,0 0,-1 -1,-3 -1,-1 -2,-3 -2,-5z"/>
        <path class="fil9" d="M76 153c0,0 -14,5 -16,19 0,0 11,4 26,-6 0,0 -4,-3 -5,-5l-20 10c0,0 17,-11 18,-13l3 -1c0,0 3,6 7,7 0,0 -15,15 -32,10l3 -2c0,0 1,-14 16,-19z"/>
        <path class="fil9" d="M62 138c0,0 -9,5 -10,9l22 -4 3 4 0 0 -2 -1 -23 2c0,0 7,5 20,5 0,0 -5,2 -6,3 0,0 -8,-1 -15,-6l1 0c0,0 7,4 7,3 1,-1 -2,-2 -4,-2 -1,-1 -5,-3 -4,-4 0,0 3,-6 11,-9z"/>
        <path class="fil9" d="M78 116c0,0 -14,-2 -22,4 0,0 6,1 11,3 5,1 13,2 13,2 0,0 -3,2 -3,2l-21 -7c0,0 2,7 13,12 0,0 4,2 4,1 1,-1 2,-3 3,-3 0,-1 -2,2 -3,5 0,0 -3,-2 -5,-2 -1,-1 -9,-4 -12,-13 0,0 6,-7 22,-4z"/>
        <path class="fil9" d="M95 105c0,0 -13,-8 -25,-6 0,0 1,14 11,13 0,0 -2,3 -3,2 -1,-1 -8,-5 -9,-15 0,0 12,-3 26,6z"/>
        <path class="fil9" d="M71 100c0,0 16,8 20,9l-1 2c0,0 -2,-1 -5,-1l-14 -10z"/>
        <path class="fil9" d="M63 59l19 15c0,0 11,9 17,11l-7 -3c0,0 -2,0 -2,2 0,0 0,2 0,3 0,0 0,-4 -1,-5 -1,-1 -7,-7 -7,-7l-19 -16z"/>
        <path class="fil9" d="M91 97c0,0 1,3 2,4l0 0c0,0 -11,-5 -15,-5l-34 -26c0,0 5,-2 20,4 0,0 -15,-5 -18,-3l38 25c0,0 4,3 8,4 0,0 -1,-2 -1,-3z"/>
        <path class="fil9" d="M28 100l44 13 -1 -2 2 2c0,0 -8,0 -10,0 0,0 -31,-12 -35,-13z"/>
        <path class="fil9" d="M104 104c0,0 2,-1 4,0 2,0 6,4 6,10l-2 2c0,0 1,-10 -8,-12z"/>
        <path class="fil9" d="M114 114c0,0 7,3 7,8 -1,6 -5,8 -9,8 0,0 7,-1 7,-6 0,0 0,-7 -7,-8l2 -2z"/>
        <path class="fil8" d="M102 78c0,0 34,26 26,46 0,0 -3,10 -14,6 0,0 12,0 12,-11 0,0 -1,-15 -24,-41z"/>
        <path class="fil9" d="M105 127l8 -1c0,0 -2,4 -5,5 0,0 -2,-3 -3,-4z"/>
        <path class="fil9" d="M105 109l-6 18c0,0 4,0 6,0 0,0 5,-11 0,-18z"/>
        <path class="fil9" d="M110 144l-11 -17c0,0 4,1 6,0 0,0 7,7 5,17z"/>
        <path class="fil9" d="M95 118c0,0 -1,4 -1,6 0,0 3,2 3,3 0,0 -3,-2 -5,-5l-5 -4c0,0 3,-1 8,0z"/>
        <path class="fil9" d="M99 128l-3 9c0,0 -9,4 -15,0l18 -9z"/>
        <path class="fil8" d="M95 172c0,0 -5,-6 -4,-10 0,0 -4,-3 -4,-7 0,0 2,5 5,6 0,0 7,5 12,6 0,0 -23,-8 -17,-28 0,0 -5,0 -7,-2 0,0 1,-10 11,-13 0,0 -3,1 -4,1 0,0 -2,-4 0,-7 0,0 3,-2 8,0 0,0 5,-9 10,-9 0,0 4,4 2,13 0,0 6,2 6,4 0,0 0,2 -2,3 0,0 7,0 7,-5 0,-5 -3,-8 -7,-8 0,0 2,-10 -8,-12 0,0 -7,-1 -11,8 0,0 -8,-2 -12,3 0,0 -2,4 2,10 0,0 -7,4 -7,13 0,0 0,4 4,9 0,0 -1,10 10,17 0,0 3,7 6,8z"/>
        <path class="fil12" d="M108 162c8,4 24,6 24,6l1 -5c-9,-1 -18,-4 -18,-4l0 0c-18,-5 -14,-16 -14,-16l0 0c3,1 8,1 8,1l0 0c-10,-1 -13,-7 -13,-7l0 0c-5,15 4,21 12,25l0 0z"/>
        <path class="fil9" d="M164 61c0,0 1,1 3,2 2,0 4,1 4,1 0,0 -1,3 -4,2 -3,0 -4,-2 -3,-5z"/>
        <path class="fil7" d="M279 116l-18 8c1,1 1,2 1,2l17 -10zm-27 43c0,0 0,0 0,1l19 12 -18 -14c0,1 -1,1 -1,1zm32 -15l-27 -2c1,1 1,2 1,3l26 -1z"/>
        <path class="fil7" d="M285 149l-1 0c0,1 -2,2 -3,3 2,0 14,4 14,4 27,3 25,-12 25,-12 -3,10 -35,5 -35,5z"/>
        <path class="fil13" d="M281 299c0,2 -1,4 -1,4 2,1 3,3 4,4 4,-2 3,-11 -1,-12 0,0 -1,3 -2,4z"/>
        <path class="fil13" d="M272 320c0,3 0,6 -1,8 5,0 8,-4 9,-8 0,0 -1,0 -2,0 -2,1 -6,0 -6,0z"/>
        <path class="fil13" d="M257 333c-1,1 -3,2 -4,3 3,3 9,1 11,-2 0,-1 0,-1 0,-1 0,0 0,-1 -2,0 -2,0 -5,0 -5,0z"/>
        <path class="fil13" d="M226 319c-2,0 -4,0 -4,0 2,5 10,7 13,3 -2,-1 -3,-3 -4,-5 0,0 -4,2 -5,2z"/>
        <path class="fil13" d="M107 322c-2,0 -2,-1 -2,-1 0,1 0,2 -1,4 -1,0 -2,1 -2,2 4,2 11,0 10,-5 0,0 -3,0 -5,0z"/>
        <path class="fil13" d="M73 336c1,5 10,7 13,3 -2,0 -5,-3 -5,-5 0,0 -4,3 -8,2z"/>
        <path class="fil13" d="M56 324c1,3 3,5 5,7 2,1 4,2 7,2 0,-2 -1,-2 -2,-4 0,-1 0,-3 -1,-5 -3,2 -9,0 -9,0z"/>
        <path class="fil13" d="M52 302c-3,3 -3,11 2,12 0,-4 2,-5 4,-7 -5,-1 -6,-5 -6,-5z"/>
        <path class="fil13" d="M170 79c1,2 -2,2 -2,2 -12,-6 -14,1 -14,1 -1,1 -1,2 0,2 1,1 1,0 1,0 5,-4 11,0 11,0 11,5 10,-3 10,-3 -2,-11 -19,-11 -19,-11 -3,-10 -12,-10 -12,-10 -6,1 -10,3 -10,8 -1,3 1,5 1,8 2,-2 5,-4 9,-3 2,0 4,1 5,3 15,-4 20,3 20,3z"/>
        <path class="fil6" d="M176 82c0,2 -1,4 -5,4 0,0 0,0 0,0 0,0 1,1 1,1 1,0 3,-1 3,-1 0,1 -1,1 -1,1 1,6 0,12 0,12 0,-1 1,0 1,0 0,1 1,1 1,1 4,-10 1,-16 0,-18zm-7 3c0,0 -1,0 -3,-1 0,0 -5,-3 -9,-1 2,0 8,1 11,7 3,6 -1,12 -1,12 1,-2 3,-5 3,-5 4,-7 0,-12 0,-12 0,0 0,0 -1,0z"/>
        <path class="fil14" d="M138 75c2,-1 4,-2 7,-2 2,0 4,1 5,3 15,-4 20,3 20,3 0,0 0,1 0,1 0,0 1,-1 0,-2 -1,-2 -5,-6 -15,-5 0,0 -12,-8 -17,1 0,0 -1,1 0,1zm34 -1c-1,1 1,4 2,5 0,1 1,7 -6,3 -8,-3 -12,-1 -13,1 -1,1 0,1 0,1 5,-4 11,0 11,0 11,5 10,-3 10,-3 0,-3 -2,-5 -4,-7 0,0 0,0 0,0z"/>
        <path class="fil13" d="M166 53c17,4 18,2 18,2 1,-6 3,-11 4,-16 2,-6 5,-10 7,-14 -3,2 -8,2 -10,5 -2,-2 -6,0 -7,2 0,-3 -1,-4 -4,-4 2,-4 -1,-6 -4,-4 0,-2 -2,-3 -3,-5 -1,2 -2,3 -2,6 -2,-2 -5,-1 -4,2 -3,0 -4,3 -4,6 0,-3 -5,-4 -7,-2 -1,-4 -7,-3 -10,-6 5,9 8,18 11,28 7,-1 15,0 15,0z"/>
        <path class="fil14" d="M147 63c0,0 1,1 1,1 0,0 0,1 0,2 0,0 0,0 0,1 0,0 -1,1 -2,0 0,0 0,0 2,1 0,0 4,-1 6,2 0,0 1,1 1,1 0,0 0,-1 0,-1 0,0 -1,-6 -8,-7z"/>
        <path class="fil14" d="M150 32c0,0 1,1 1,4 -1,4 0,6 1,6 1,0 3,0 3,0 0,0 0,-2 1,-2 0,-1 1,-3 1,-5 0,0 1,2 -1,5 0,0 -2,2 1,3 3,0 4,-1 4,-2 0,0 0,-1 -1,-2 -1,-1 -2,-3 -2,-3 0,0 2,2 3,3 0,1 1,3 0,3 0,0 0,1 1,1 1,-1 4,-3 4,-5 0,0 0,-1 -1,-2 0,-1 -2,-6 2,-7 0,0 5,-1 4,5 0,0 -1,3 -1,4 0,1 0,4 4,5 0,0 0,-2 0,-3 1,-1 2,-4 2,-4 0,0 2,-2 0,-5 0,0 2,2 1,4 -1,3 -5,7 -1,8 0,0 3,1 3,-2 0,0 1,-1 0,-3 -1,-2 -2,-3 -1,-6 0,0 -1,2 1,5 1,3 1,5 0,6 0,0 3,0 4,-1 1,-1 1,-2 2,-5 0,-3 1,-6 2,-7 0,0 -2,2 -2,6 0,4 -1,7 -2,7 -2,1 -3,1 -4,0 0,0 -3,1 -6,0 -2,0 -4,-2 -4,-7 0,0 0,0 -1,0 0,0 2,0 2,-2 0,-2 0,-5 -3,-5 0,0 -3,0 -2,4 0,0 0,2 1,3 1,1 0,3 -1,5 -1,1 -2,2 -5,2 -2,0 -4,0 -5,-1 0,0 -4,1 -5,-1 0,0 0,-1 0,-3 1,-3 1,-4 0,-6 0,0 0,0 0,0z"/>
        <path class="fil14" d="M167 53c0,0 4,1 6,1 2,0 4,1 5,1 1,0 5,-1 5,-1l0 1c0,0 -4,0 -8,0 -4,-1 -8,-2 -8,-2l0 0z"/>
        <path class="fil14" d="M154 50l0 1c0,0 5,0 6,0 2,0 5,0 6,0 1,0 7,1 9,1 2,0 7,0 7,0 0,0 0,0 -1,0 -1,0 -4,0 -6,0 -2,0 -5,-1 -6,-1 -1,0 -9,0 -10,0 0,0 -5,-1 -5,-1z"/>
        <path class="fil14" d="M159 48l-5 0c-1,0 -1,-1 -1,-2 0,-1 2,-1 2,-1 0,0 4,0 5,0 0,0 0,1 0,2 0,1 -1,1 -1,1zm2 -3c-1,0 -4,0 -4,0 -3,0 -4,0 -4,2 0,1 1,1 1,1l2 0c0,0 4,0 5,0 1,0 1,-1 1,-1 0,-1 0,-2 -1,-2z"/>
        <path class="fil14" d="M180 49c-2,0 -4,0 -5,-1 0,0 -1,0 0,-1 0,0 0,-1 2,-1 2,0 5,1 5,1 0,0 1,2 -2,2zm2 -3c-1,0 -5,0 -5,0 -2,0 -3,1 -2,2 0,2 4,2 6,2 2,0 2,-1 2,-2 1,0 0,-1 -1,-2z"/>
        <path class="fil14" d="M165 45c1,0 1,0 2,0l0 0c1,0 3,0 4,0 0,1 1,3 -1,3 0,0 -4,0 -5,0l0 0c-1,0 -1,-1 -1,-1 0,-1 0,-2 1,-2zm8 2c0,-1 -1,-2 -2,-2 0,0 -2,0 -4,0 -1,0 -1,0 -2,0 -1,0 -1,1 -1,2 0,0 0,1 1,1 0,1 5,1 6,1 0,0 0,0 0,0 2,0 2,-2 2,-2l0 0 0 0c0,0 0,0 0,0z"/>
        <path class="fil5" d="M179 336c-2,-3 -2,-9 -2,-10 0,0 0,-1 -1,-1 0,2 -1,3 -2,5 4,20 -5,32 -5,32 -7,-6 -6,-29 -6,-29l-1 0c-1,25 7,30 7,30l0 5c7,-11 7,-17 8,-22 1,-8 -1,-14 -1,-14l2 2 1 2z"/>
        </g>
        </g>
    </svg>

    <!-- EFRR -->
    <svg id="icon-logo-efrr" viewBox="0 0 134 32" preserveAspectRatio="xMidYMid meet">
        <defs>
            <style type="text/css">
                <![CDATA[
                    .logo-efrr-0{fill:#FFFFFF;}
                    .logo-efrr-1{fill:#034EA1;}
                    .logo-efrr-2{fill:#FFF100;}
                    .logo-efrr-3{fill:#231F20;}
                ]]>            
            </style>
        </defs>
        <g>
            <title>Layer 1</title>
            <rect class="logo-efrr-1" x="88.783" y="1" width="45" height="30" />
            <polygon class="logo-efrr-2" points="110.28 7.5 111.28 6.8 112.18 7.5 111.88 6.4 112.78 5.7 111.58 5.7 111.28 4.6 110.88 5.7 109.68 5.7 110.68 6.4" />
            <polygon class="logo-efrr-2" points="105.38 8.9 106.38 8.2 107.28 8.9 106.98 7.7 107.88 7 106.68 7 106.38 5.9 105.98 7 104.78 7 105.78 7.7" />
            <polygon class="logo-efrr-2" points="102.78 9.5 102.38 10.7 101.18 10.6 102.18 11.3 101.78 12.5 102.78 11.8 103.68 12.5 103.38 11.3 104.28 10.6 103.08 10.6" />
            <polygon class="logo-efrr-2" points="101.48 16.7 102.38 17.4 101.98 16.2 102.98 15.6 101.78 15.6 101.48 14.4 101.08 15.6 99.883 15.6 100.88 16.2 100.48 17.4" />
            <polygon class="logo-efrr-2" points="103.08 20.5 102.78 19.3 102.38 20.5 101.18 20.5 102.18 21.2 101.78 22.3 102.78 21.6 103.68 22.3 103.38 21.2 104.28 20.5" />
            <polygon class="logo-efrr-2" points="106.68 24.1 106.38 22.9 105.98 24.1 104.78 24.1 105.78 24.8 105.38 25.9 106.38 25.2 107.28 25.9 106.98 24.8 107.88 24.1" />
            <polygon class="logo-efrr-2" points="111.58 25.4 111.28 24.2 110.88 25.4 109.68 25.4 110.68 26.1 110.28 27.2 111.28 26.5 112.18 27.2 111.88 26.1 112.78 25.4" />
            <polygon class="logo-efrr-2" points="116.58 24.1 116.18 22.9 115.78 24.1 114.58 24.1 115.58 24.8 115.18 25.9 116.18 25.2 117.08 25.9 116.78 24.8 117.68 24.1" />
            <polygon class="logo-efrr-2" points="120.18 20.5 119.78 19.3 119.38 20.5 118.18 20.5 119.18 21.2 118.78 22.3 119.78 21.6 120.68 22.3 120.38 21.2 121.28 20.5" />
            <polygon class="logo-efrr-2" points="122.58 15.5 121.48 15.5 121.08 14.4 120.68 15.5 119.48 15.5 120.48 16.2 120.08 17.4 121.08 16.7 121.98 17.4 121.68 16.2" />
            <polygon class="logo-efrr-2" points="118.78 12.4 119.78 11.8 120.68 12.4 120.38 11.3 121.28 10.6 120.18 10.6 119.78 9.5 119.38 10.6 118.18 10.6 119.18 11.3" />
            <polygon class="logo-efrr-2" points="116.18 5.9 115.78 7 114.58 7 115.58 7.7 115.28 8.9 116.18 8.2 117.18 8.9 116.78 7.7 117.78 7 116.58 7" />
            <path class="logo-efrr-3" d="m18.183 20.5v-5h3v0.6h-2.3v1.5h2.1v0.6h-2.1v1.7h2.5v0.6h-3.2z" />
            <path class="logo-efrr-3" d="m24.983 20.3c-0.2 0-0.4 0.1-0.6 0.1-0.3 0-0.5 0.1-0.9 0.1-0.3 0-0.5 0-0.7-0.1s-0.4-0.2-0.5-0.4-0.2-0.3-0.3-0.5-0.1-0.4-0.1-0.7v-2.1h0.7v1.9c0 0.5 0.1 0.8 0.2 1s0.4 0.3 0.7 0.3h0.2 0.2 0.2 0.1v-3.1h0.7v3.5h0.1z" />
            <path class="logo-efrr-3" d="m27.483 16.7h0.2 0.2 0.2 0.1l-0.1 0.7c-0.1 0-0.1 0-0.3-0.1h-0.5-0.4c-0.1 0-0.2 0-0.2 0.1v3.1h-0.6v-3.5c0.2-0.1 0.4-0.1 0.6-0.2 0.2 0 0.5-0.1 0.8-0.1z" />
            <path class="logo-efrr-3" d="m32.083 18.6c0 0.3 0 0.6-0.1 0.8s-0.2 0.4-0.4 0.6-0.3 0.3-0.6 0.4c-0.2 0.1-0.4 0.1-0.7 0.1s-0.5 0-0.7-0.1-0.4-0.2-0.6-0.4-0.3-0.4-0.4-0.6-0.1-0.5-0.1-0.8 0-0.6 0.1-0.8 0.2-0.4 0.4-0.6 0.3-0.3 0.6-0.4c0.2-0.1 0.4-0.1 0.7-0.1s0.5 0 0.7 0.1 0.4 0.2 0.6 0.4 0.3 0.4 0.4 0.6 0.1 0.5 0.1 0.8zm-0.7 0c0-0.4-0.1-0.8-0.3-1s-0.4-0.4-0.8-0.4c-0.3 0-0.6 0.1-0.8 0.4-0.2 0.2-0.3 0.6-0.3 1s0.1 0.8 0.3 1 0.4 0.4 0.8 0.4c0.3 0 0.6-0.1 0.8-0.4s0.3-0.6 0.3-1z" />
            <path class="logo-efrr-3" d="m36.283 18.7c0 0.3 0 0.5-0.1 0.8l-0.3 0.6c-0.1 0.2-0.3 0.3-0.5 0.4s-0.4 0.1-0.7 0.1c-0.2 0-0.4 0-0.6-0.1s-0.3-0.1-0.4-0.2v1.5h-0.7v-4.9c0.2 0 0.4-0.1 0.6-0.1s0.5-0.1 0.8-0.1 0.5 0 0.8 0.1c0.2 0.1 0.4 0.2 0.6 0.4s0.3 0.4 0.4 0.6c0 0.3 0.1 0.6 0.1 0.9zm-0.7 0c0-0.4-0.1-0.8-0.3-1s-0.5-0.4-0.9-0.4h-0.5-0.3v2.3c0.1 0.1 0.2 0.1 0.3 0.2 0.2 0.1 0.3 0.1 0.5 0.1s0.4 0 0.5-0.1l0.3-0.3c0.1-0.1 0.1-0.3 0.2-0.4 0.2-0.1 0.2-0.2 0.2-0.4z" />
            <path class="logo-efrr-3" d="m36.983 18.6c0-0.3 0-0.6 0.1-0.9 0.1-0.2 0.2-0.4 0.4-0.6s0.3-0.3 0.5-0.4 0.4-0.1 0.6-0.1c0.5 0 0.9 0.2 1.2 0.5s0.4 0.8 0.4 1.4v0.1 0.1h-2.5c0 0.4 0.1 0.7 0.3 0.9s0.5 0.3 0.9 0.3c0.2 0 0.4 0 0.6-0.1 0.2 0 0.3-0.1 0.4-0.1l0.1 0.6c-0.1 0-0.2 0.1-0.4 0.1s-0.4 0.1-0.7 0.1-0.6 0-0.8-0.1-0.4-0.2-0.6-0.4-0.3-0.4-0.3-0.6c-0.2-0.3-0.2-0.5-0.2-0.8zm2.5-0.4c0-0.3-0.1-0.5-0.2-0.7-0.2-0.2-0.4-0.3-0.6-0.3s-0.3 0-0.4 0.1-0.2 0.1-0.3 0.2-0.1 0.2-0.2 0.3c0 0.1-0.1 0.3-0.1 0.4h1.8z" />
            <path class="logo-efrr-3" d="m40.483 21.9h-0.2c-0.1 0-0.2 0-0.2-0.1l0.1-0.5h0.2 0.2c0.2 0 0.4-0.1 0.5-0.2s0.1-0.3 0.1-0.6v-3.7h0.7v3.6c0 0.5-0.1 0.8-0.3 1.1-0.3 0.2-0.7 0.4-1.1 0.4zm1-5.8c-0.1 0-0.2 0-0.3-0.1s-0.1-0.2-0.1-0.3 0-0.2 0.1-0.3 0.2-0.1 0.3-0.1 0.2 0 0.3 0.1 0.1 0.2 0.1 0.3 0 0.2-0.1 0.3-0.2 0.1-0.3 0.1z" />
            <path class="logo-efrr-3" d="m43.783 20c0.3 0 0.5 0 0.6-0.1s0.2-0.2 0.2-0.3c0-0.2-0.1-0.3-0.2-0.4s-0.3-0.2-0.6-0.3c-0.1-0.1-0.3-0.1-0.4-0.2s-0.2-0.1-0.3-0.2-0.2-0.2-0.2-0.3c-0.1-0.1-0.1-0.3-0.1-0.4 0-0.3 0.1-0.6 0.4-0.8 0.2-0.2 0.6-0.3 1-0.3h0.3 0.3c0.1 0 0.2 0 0.2 0.1h0.2l-0.1 0.6c-0.1 0-0.2-0.1-0.3-0.1s-0.3-0.1-0.6-0.1c-0.2 0-0.3 0-0.5 0.1-0.1 0.1-0.2 0.2-0.2 0.3v0.2c0 0.1 0.1 0.1 0.1 0.2 0.1 0.1 0.1 0.1 0.2 0.1s0.2 0.1 0.3 0.1c0.2 0.1 0.3 0.1 0.5 0.2 0.1 0.1 0.3 0.1 0.4 0.2s0.2 0.2 0.2 0.3c0.1 0.1 0.1 0.3 0.1 0.4 0 0.3-0.1 0.6-0.4 0.8s-0.6 0.3-1.1 0.3c-0.3 0-0.6 0-0.8-0.1s-0.3-0.1-0.4-0.1l0.1-0.6c0.1 0 0.2 0.1 0.4 0.1 0.2 0.2 0.4 0.3 0.7 0.3z" />
            <path class="logo-efrr-3" d="m47.383 18.5c0.1 0.1 0.3 0.2 0.5 0.4l0.5 0.5c0.2 0.2 0.3 0.4 0.4 0.6s0.3 0.4 0.3 0.5h-0.8c-0.1-0.2-0.2-0.3-0.3-0.5s-0.3-0.3-0.4-0.5-0.3-0.3-0.4-0.4-0.3-0.2-0.4-0.3v1.8h-0.7v-5.4l0.7-0.1v3.4l0.4-0.4 0.4-0.4 0.4-0.4 0.3-0.3h0.8c-0.1 0.1-0.2 0.3-0.4 0.4l-0.4 0.4-0.4 0.4c-0.2 0-0.4 0.2-0.5 0.3z" />
            <path class="logo-efrr-3" d="m50.083 16.1c-0.1 0-0.2 0-0.3-0.1s-0.1-0.2-0.1-0.3 0-0.2 0.1-0.3 0.2-0.1 0.3-0.1 0.2 0 0.3 0.1 0.1 0.2 0.1 0.3 0 0.2-0.1 0.3-0.2 0.1-0.3 0.1zm0.3 4.4h-0.7v-3.7h0.7v3.7z" />
            <path class="logo-efrr-3" d="m53.183 20.5v-5h3v0.6h-2.3v1.5h2v0.6h-2v2.3h-0.7z" />
            <path class="logo-efrr-3" d="m59.683 20.3c-0.2 0-0.4 0.1-0.6 0.1-0.3 0-0.5 0.1-0.9 0.1-0.3 0-0.5 0-0.7-0.1s-0.4-0.2-0.5-0.4-0.2-0.3-0.3-0.5-0.1-0.4-0.1-0.7v-2.1h0.7v1.9c0 0.5 0.1 0.8 0.2 1s0.4 0.3 0.7 0.3h0.2 0.2 0.2 0.1v-3.1h0.7v3.5h0.1z" />
            <path class="logo-efrr-3" d="m60.783 16.9c0.2 0 0.4-0.1 0.6-0.1 0.3 0 0.5-0.1 0.9-0.1 0.3 0 0.5 0 0.7 0.1s0.4 0.2 0.5 0.4 0.2 0.3 0.2 0.5 0.1 0.4 0.1 0.7v2.1h-0.7v-1.9-0.6c0-0.2-0.1-0.3-0.2-0.4s-0.2-0.2-0.3-0.2-0.3-0.1-0.4-0.1h-0.2-0.2-0.2-0.1v3.1h-0.7v-3.5z" />
            <path class="logo-efrr-3" d="m67.283 15l0.7-0.1v5.4c-0.2 0-0.3 0.1-0.6 0.1-0.2 0-0.5 0.1-0.8 0.1s-0.5 0-0.8-0.1c-0.2-0.1-0.4-0.2-0.6-0.4s-0.3-0.4-0.4-0.6-0.1-0.5-0.1-0.8 0-0.5 0.1-0.8l0.3-0.6c0.1-0.2 0.3-0.3 0.5-0.4s0.4-0.1 0.7-0.1c0.2 0 0.4 0 0.6 0.1s0.3 0.1 0.4 0.2v-2zm0 2.5c-0.1-0.1-0.2-0.1-0.4-0.2s-0.3-0.1-0.5-0.1-0.4 0-0.5 0.1l-0.3 0.3c-0.1 0.1-0.1 0.3-0.2 0.4 0 0.2-0.1 0.3-0.1 0.5 0 0.4 0.1 0.8 0.3 1s0.5 0.4 0.9 0.4h0.5c0.1 0 0.2 0 0.3-0.1v-2.3z" />
            <path class="logo-efrr-3" d="m71.983 20.3c-0.2 0-0.4 0.1-0.6 0.1-0.3 0-0.5 0.1-0.9 0.1-0.3 0-0.5 0-0.7-0.1s-0.4-0.2-0.5-0.4-0.2-0.3-0.3-0.5-0.1-0.4-0.1-0.7v-2.1h0.7v1.9c0 0.5 0.1 0.8 0.2 1s0.4 0.3 0.7 0.3h0.2 0.2 0.2 0.1v-3.1h0.7v3.5h0.1z" />
            <path class="logo-efrr-3" d="m73.983 20c0.3 0 0.5 0 0.6-0.1s0.2-0.2 0.2-0.3c0-0.2-0.1-0.3-0.2-0.4s-0.3-0.2-0.6-0.3c-0.1-0.1-0.3-0.1-0.4-0.2s-0.2-0.1-0.3-0.2-0.2-0.2-0.2-0.3c-0.1-0.1-0.1-0.3-0.1-0.4 0-0.3 0.1-0.6 0.4-0.8 0.2-0.2 0.6-0.3 1-0.3h0.3 0.3c0.1 0 0.2 0 0.2 0.1h0.2l-0.1 0.6c-0.1 0-0.2-0.1-0.3-0.1-0.2 0-0.3-0.1-0.6-0.1-0.2 0-0.3 0-0.5 0.1-0.1 0.1-0.2 0.2-0.2 0.3v0.2c0 0.1 0.1 0.1 0.1 0.2 0.1 0.1 0.1 0.1 0.2 0.1s0.2 0.1 0.3 0.1c0.2 0.1 0.3 0.1 0.5 0.2 0.1 0.1 0.3 0.1 0.4 0.2s0.2 0.2 0.2 0.3c0.1 0.1 0.1 0.3 0.1 0.4 0 0.3-0.1 0.6-0.4 0.8s-0.6 0.3-1.1 0.3c-0.3 0-0.6 0-0.8-0.1s-0.3-0.1-0.4-0.1l0.1-0.6c0.1 0 0.2 0.1 0.4 0.1 0.2 0.2 0.4 0.3 0.7 0.3z" />
            <path class="logo-efrr-3" d="m78.683 17.3c-0.1 0.1-0.2 0.3-0.4 0.5s-0.3 0.4-0.5 0.7c-0.2 0.2-0.4 0.5-0.6 0.8s-0.4 0.5-0.5 0.8h2v0.6h-2.8v-0.4c0.1-0.2 0.3-0.4 0.4-0.7 0.2-0.3 0.3-0.5 0.5-0.8s0.4-0.5 0.5-0.7c0.2-0.2 0.3-0.4 0.5-0.6h-1.7v-0.6h2.7v0.4h-0.1z" />
            <path class="logo-efrr-3" d="m8.7834 27.2c0.1 0.1 0.2 0.2 0.3 0.4s0.2 0.3 0.4 0.5c0.1 0.2 0.2 0.4 0.4 0.6l0.3 0.6h-0.8l-0.3-0.6c-0.1-0.2-0.2-0.4-0.3-0.5-0.1-0.2-0.2-0.3-0.3-0.5-0.1-0.1-0.2-0.3-0.3-0.4h-0.2-0.2-0.6v1.9h-0.7v-4.9c0.2 0 0.4-0.1 0.7-0.1h0.7c0.7 0 1.2 0.1 1.6 0.4s0.5 0.7 0.5 1.2c0 0.3-0.1 0.6-0.3 0.8-0.3 0.3-0.6 0.5-0.9 0.6zm-1.1-2.3h-0.7v1.9h0.5 0.6c0.2 0 0.4-0.1 0.5-0.1l0.3-0.3c0.1-0.1 0.1-0.3 0.1-0.5s0-0.3-0.1-0.5l-0.3-0.3c-0.1-0.1-0.3-0.1-0.4-0.2h-0.5z" />
            <path class="logo-efrr-3" d="m13.983 27.3c0 0.3 0 0.6-0.1 0.8s-0.2 0.4-0.4 0.6-0.3 0.3-0.6 0.4c-0.2 0.1-0.4 0.1-0.7 0.1s-0.5 0-0.7-0.1-0.4-0.2-0.6-0.4-0.3-0.4-0.4-0.6-0.1-0.5-0.1-0.8 0-0.6 0.1-0.8 0.2-0.4 0.4-0.6 0.3-0.3 0.6-0.4c0.2-0.1 0.4-0.1 0.7-0.1s0.5 0 0.7 0.1 0.4 0.2 0.6 0.4 0.3 0.4 0.4 0.6c0.1 0.3 0.1 0.5 0.1 0.8zm-0.7 0c0-0.4-0.1-0.8-0.3-1s-0.4-0.4-0.8-0.4-0.6 0.1-0.8 0.4c-0.2 0.2-0.3 0.6-0.3 1s0.1 0.8 0.3 1 0.4 0.4 0.8 0.4 0.6-0.1 0.8-0.4c0.2-0.2 0.3-0.5 0.3-1z" />
            <path class="logo-efrr-3" d="m17.283 26.1c-0.1 0.1-0.2 0.3-0.4 0.5s-0.3 0.4-0.5 0.7c-0.2 0.2-0.4 0.5-0.6 0.8s-0.4 0.5-0.5 0.8h2v0.6h-2.8v-0.4c0.1-0.2 0.3-0.4 0.4-0.7 0.2-0.3 0.3-0.5 0.5-0.8s0.4-0.5 0.5-0.7c0.2-0.2 0.3-0.4 0.5-0.6h-1.8v-0.6h2.7v0.4z" />
            <path class="logo-efrr-3" d="m21.183 29.3c-0.1-0.3-0.3-0.7-0.4-1.2-0.2-0.4-0.3-0.9-0.4-1.4-0.1 0.5-0.3 0.9-0.4 1.4-0.1 0.4-0.3 0.8-0.4 1.2h-0.6c-0.2-0.5-0.4-1.1-0.6-1.7s-0.4-1.3-0.6-2h0.7c0 0.2 0.1 0.5 0.2 0.7 0.1 0.3 0.1 0.5 0.2 0.8s0.2 0.5 0.2 0.8 0.2 0.5 0.2 0.6c0.1-0.2 0.2-0.5 0.2-0.7 0.1-0.3 0.2-0.5 0.2-0.8 0.1-0.3 0.1-0.5 0.2-0.8 0.1-0.2 0.1-0.5 0.2-0.7h0.5c0 0.2 0.1 0.4 0.2 0.7 0.1 0.2 0.1 0.5 0.2 0.8s0.1 0.5 0.2 0.8 0.2 0.5 0.2 0.7c0.1-0.2 0.1-0.4 0.2-0.6s0.2-0.5 0.2-0.8c0.1-0.3 0.1-0.5 0.2-0.8s0.1-0.5 0.2-0.7h0.7c-0.2 0.7-0.4 1.4-0.6 2s-0.4 1.2-0.6 1.7h-0.5z" />
            <path class="logo-efrr-3" d="m26.783 27.3c0 0.3 0 0.6-0.1 0.8s-0.2 0.4-0.4 0.6-0.3 0.3-0.6 0.4c-0.2 0.1-0.4 0.1-0.7 0.1s-0.5 0-0.7-0.1-0.4-0.2-0.6-0.4-0.3-0.4-0.4-0.6-0.1-0.5-0.1-0.8 0-0.6 0.1-0.8 0.2-0.4 0.4-0.6 0.3-0.3 0.6-0.4c0.2-0.1 0.4-0.1 0.7-0.1s0.5 0 0.7 0.1 0.4 0.2 0.6 0.4 0.3 0.4 0.4 0.6c0.1 0.3 0.1 0.5 0.1 0.8zm-0.7 0c0-0.4-0.1-0.8-0.3-1-0.1-0.2-0.4-0.3-0.7-0.3s-0.6 0.1-0.8 0.4c-0.2 0.2-0.3 0.6-0.3 1s0.1 0.8 0.3 1 0.4 0.4 0.8 0.4c0.3 0 0.6-0.1 0.8-0.4 0.1-0.3 0.2-0.6 0.2-1.1z" />
            <path class="logo-efrr-3" d="m27.083 30.6h-0.2c-0.1 0-0.2 0-0.2-0.1l0.1-0.5h0.2 0.2c0.2 0 0.4-0.1 0.5-0.2s0.1-0.3 0.1-0.6v-3.7h0.7v3.6c0 0.5-0.1 0.8-0.3 1.1-0.3 0.3-0.7 0.4-1.1 0.4zm1-5.7c-0.1 0-0.2 0-0.3-0.1s-0.1-0.2-0.1-0.3 0-0.2 0.1-0.3 0.2-0.1 0.3-0.1 0.2 0 0.3 0.1 0.1 0.2 0.1 0.3 0 0.2-0.1 0.3-0.2 0.1-0.3 0.1z" />
            <path class="logo-efrr-3" d="m32.483 29.1c-0.2 0-0.4 0.1-0.6 0.1-0.3 0-0.5 0.1-0.9 0.1-0.3 0-0.5 0-0.7-0.1s-0.4-0.2-0.5-0.4-0.2-0.3-0.3-0.5-0.1-0.4-0.1-0.7v-2.1h0.7v1.9c0 0.5 0.1 0.8 0.2 1s0.4 0.3 0.7 0.3h0.2 0.2 0.2 0.1v-3.1h0.7v3.5h0.1z" />
            <path class="logo-efrr-3" d="m37.583 27.2c0.1 0.1 0.2 0.2 0.3 0.4s0.2 0.3 0.4 0.5c0.1 0.2 0.2 0.4 0.4 0.6l0.3 0.6h-0.8l-0.3-0.6c-0.1-0.2-0.2-0.4-0.3-0.5-0.1-0.2-0.2-0.3-0.3-0.5-0.1-0.1-0.2-0.3-0.3-0.4h-0.2-0.2-0.6v1.9h-0.7v-4.9c0.2 0 0.4-0.1 0.7-0.1h0.7c0.7 0 1.2 0.1 1.6 0.4s0.5 0.7 0.5 1.2c0 0.3-0.1 0.6-0.3 0.8-0.3 0.3-0.5 0.5-0.9 0.6zm-1-2.3h-0.7v1.9h0.5 0.6c0.2 0 0.4-0.1 0.5-0.1l0.3-0.3c0.1-0.1 0.1-0.3 0.1-0.5s0-0.3-0.1-0.5l-0.3-0.3c-0.1-0.1-0.2-0.1-0.4-0.2h-0.5z" />
            <path class="logo-efrr-3" d="m39.383 27.3c0-0.3 0-0.6 0.1-0.9 0.1-0.2 0.2-0.4 0.4-0.6s0.3-0.3 0.5-0.4 0.4-0.1 0.6-0.1c0.5 0 0.9 0.2 1.2 0.5s0.4 0.8 0.4 1.4v0.1 0.1h-2.5c0 0.4 0.1 0.7 0.3 0.9s0.5 0.3 0.9 0.3c0.2 0 0.4 0 0.6-0.1 0.2 0 0.3-0.1 0.4-0.1l0.1 0.6c-0.1 0-0.2 0.1-0.4 0.1s-0.4 0.1-0.7 0.1-0.6 0-0.8-0.1-0.4-0.2-0.6-0.4-0.3-0.4-0.3-0.6c-0.1-0.2-0.2-0.5-0.2-0.8zm2.6-0.3c0-0.3-0.1-0.5-0.2-0.7-0.2-0.2-0.4-0.3-0.7-0.3-0.2 0-0.3 0-0.4 0.1s-0.2 0.1-0.3 0.2-0.1 0.2-0.2 0.3c0 0.1-0.1 0.3-0.1 0.4h1.9z" />
            <path class="logo-efrr-3" d="m45.883 28.9c-0.1 0-0.2 0.1-0.3 0.1-0.2 0.1-0.4 0.1-0.6 0.1s-0.4 0-0.6-0.1-0.4-0.2-0.5-0.3c-0.1-0.2-0.3-0.3-0.4-0.6-0.1-0.2-0.1-0.5-0.1-0.8s0-0.5 0.1-0.7 0.2-0.4 0.4-0.6 0.3-0.3 0.6-0.4c0.2-0.1 0.5-0.1 0.8-0.1s0.6 0 0.8 0.1 0.4 0.1 0.6 0.1v3.3c0 0.6-0.1 1-0.4 1.2-0.3 0.3-0.7 0.4-1.3 0.4-0.2 0-0.5 0-0.7-0.1-0.2 0-0.4-0.1-0.5-0.1l0.1-0.6c0.1 0.1 0.3 0.1 0.5 0.1s0.4 0.1 0.6 0.1c0.4 0 0.7-0.1 0.9-0.2 0.2-0.2 0.3-0.4 0.3-0.8v-0.1h-0.3zm0-2.7c-0.1 0-0.2 0-0.3-0.1h-0.5c-0.4 0-0.6 0.1-0.8 0.4-0.1 0.2-0.2 0.5-0.2 0.9 0 0.2 0 0.4 0.1 0.6s0.1 0.3 0.2 0.4 0.2 0.2 0.3 0.2 0.2 0.1 0.4 0.1 0.3 0 0.5-0.1c0.1 0 0.3-0.1 0.4-0.2v-2.2h-0.1z" />
            <path class="logo-efrr-3" d="m47.983 24.9c-0.1 0-0.2 0-0.3-0.1s-0.1-0.2-0.1-0.3 0-0.2 0.1-0.3 0.2-0.1 0.3-0.1 0.2 0 0.3 0.1 0.1 0.2 0.1 0.3 0 0.2-0.1 0.3-0.2 0.1-0.3 0.1zm0.4 4.4h-0.7v-3.7h0.7v3.7z" />
            <path class="logo-efrr-3" d="m52.683 27.3c0 0.3 0 0.6-0.1 0.8s-0.2 0.4-0.4 0.6-0.3 0.3-0.6 0.4c-0.2 0.1-0.4 0.1-0.7 0.1s-0.5 0-0.7-0.1-0.4-0.2-0.6-0.4-0.3-0.4-0.4-0.6-0.1-0.5-0.1-0.8 0-0.6 0.1-0.8 0.2-0.4 0.4-0.6 0.3-0.3 0.6-0.4c0.2-0.1 0.4-0.1 0.7-0.1s0.5 0 0.7 0.1 0.4 0.2 0.6 0.4 0.3 0.4 0.4 0.6c0.1 0.3 0.1 0.5 0.1 0.8zm-0.7 0c0-0.4-0.1-0.8-0.3-1s-0.4-0.4-0.8-0.4-0.6 0.1-0.8 0.4c-0.2 0.2-0.3 0.6-0.3 1s0.1 0.8 0.3 1 0.4 0.4 0.8 0.4 0.6-0.1 0.8-0.4c0.3-0.2 0.3-0.5 0.3-1z" />
            <path class="logo-efrr-3" d="m53.583 25.7c0.2 0 0.4-0.1 0.6-0.1 0.3 0 0.5-0.1 0.9-0.1 0.3 0 0.5 0 0.7 0.1s0.4 0.2 0.5 0.4 0.2 0.3 0.2 0.5 0.1 0.4 0.1 0.7v2.1h-0.7v-1.9-0.6c0-0.2-0.1-0.3-0.2-0.4s-0.2-0.2-0.3-0.2-0.3-0.1-0.4-0.1h-0.2-0.2-0.2-0.1v3.1h-0.7v-3.5z" />
            <path class="logo-efrr-3" d="m58.883 25.4c0.3 0 0.5 0 0.7 0.1s0.3 0.2 0.4 0.3 0.2 0.3 0.2 0.5 0.1 0.4 0.1 0.6v2.3h-0.2-0.3-0.4-0.4c-0.2 0-0.4 0-0.6-0.1-0.2 0-0.3-0.1-0.5-0.2-0.1-0.1-0.2-0.2-0.3-0.4s-0.1-0.3-0.1-0.5 0-0.4 0.1-0.5 0.2-0.3 0.3-0.4 0.3-0.2 0.5-0.2 0.4-0.1 0.6-0.1h0.2 0.2 0.2 0.1v-0.2-0.3c0-0.1-0.1-0.2-0.1-0.3-0.1-0.1-0.1-0.2-0.3-0.2-0.1 0-0.2-0.1-0.4-0.1h-0.6c-0.2 0-0.3 0.1-0.4 0.1l-0.1-0.5c0.1 0 0.2-0.1 0.4-0.1 0.3 0.2 0.5 0.2 0.7 0.2zm0.1 3.3h0.4 0.3v-1.1s-0.1 0-0.2-0.1h-0.4-0.3c-0.1 0-0.2 0-0.3 0.1-0.1 0-0.2 0.1-0.2 0.2-0.1 0.1-0.1 0.2-0.1 0.3 0 0.2 0.1 0.4 0.2 0.5s0.3 0.1 0.6 0.1z" />
            <path class="logo-efrr-3" d="m62.483 29.3c-0.4 0-0.7-0.1-0.9-0.3s-0.3-0.4-0.3-0.8v-4.5l0.7-0.1v4.5 0.3c0 0.1 0 0.1 0.1 0.2 0 0 0.1 0.1 0.2 0.1s0.2 0 0.3 0.1l-0.1 0.5z" />
            <path class="logo-efrr-3" d="m63.283 25.7c0.2 0 0.4-0.1 0.6-0.1 0.3 0 0.5-0.1 0.9-0.1 0.3 0 0.5 0 0.7 0.1s0.4 0.2 0.5 0.4 0.2 0.3 0.2 0.5 0.1 0.4 0.1 0.7v2.1h-0.7v-1.9-0.6c0-0.2-0.1-0.3-0.2-0.4s-0.2-0.2-0.3-0.2-0.3-0.1-0.4-0.1h-0.2-0.2-0.2-0.1v3.1h-0.7v-3.5z" />
            <path class="logo-efrr-3" d="m67.183 27.3c0-0.3 0-0.6 0.1-0.9 0.1-0.2 0.2-0.4 0.4-0.6s0.3-0.3 0.5-0.4 0.4-0.1 0.6-0.1c0.5 0 0.9 0.2 1.2 0.5s0.4 0.8 0.4 1.4v0.1 0.1h-2.5c0 0.4 0.1 0.7 0.3 0.9s0.5 0.3 0.9 0.3c0.2 0 0.4 0 0.6-0.1 0.2 0 0.3-0.1 0.4-0.1l0.1 0.6c-0.1 0-0.2 0.1-0.4 0.1s-0.4 0.1-0.7 0.1-0.6 0-0.8-0.1-0.4-0.2-0.6-0.4-0.3-0.4-0.3-0.6c-0.2-0.2-0.2-0.5-0.2-0.8zm2.5-0.3c0-0.3-0.1-0.5-0.2-0.7-0.2-0.2-0.4-0.3-0.6-0.3s-0.3 0-0.4 0.1-0.2 0.1-0.3 0.2-0.1 0.2-0.2 0.3c0 0.1-0.1 0.3-0.1 0.4h1.8z" />
            <path class="logo-efrr-3" d="m73.683 28.9c-0.1 0-0.2 0.1-0.3 0.1-0.2 0.1-0.4 0.1-0.6 0.1s-0.4 0-0.6-0.1-0.4-0.2-0.5-0.3c-0.1-0.2-0.3-0.3-0.4-0.6-0.1-0.2-0.1-0.5-0.1-0.8s0-0.5 0.1-0.7 0.2-0.4 0.4-0.6 0.3-0.3 0.6-0.4c0.2-0.1 0.5-0.1 0.8-0.1s0.6 0 0.8 0.1 0.4 0.1 0.6 0.1v3.3c0 0.6-0.1 1-0.4 1.2-0.3 0.3-0.7 0.4-1.3 0.4-0.2 0-0.5 0-0.7-0.1-0.2 0-0.4-0.1-0.5-0.1l0.1-0.6c0.1 0.1 0.3 0.1 0.5 0.1s0.4 0.1 0.6 0.1c0.4 0 0.7-0.1 0.9-0.2 0.2-0.2 0.3-0.4 0.3-0.8v-0.1h-0.3zm0-2.7c-0.1 0-0.2 0-0.3-0.1h-0.5c-0.4 0-0.6 0.1-0.8 0.4-0.2 0.2-0.3 0.5-0.3 0.9 0 0.2 0 0.4 0.1 0.6s0.1 0.3 0.2 0.4 0.2 0.2 0.3 0.2 0.2 0.1 0.4 0.1 0.3 0 0.5-0.1c0.1 0 0.3-0.1 0.4-0.2v-2.2z" />
            <path class="logo-efrr-3" d="m78.683 27.3c0 0.3 0 0.6-0.1 0.8s-0.2 0.4-0.4 0.6-0.3 0.3-0.6 0.4c-0.2 0.1-0.4 0.1-0.7 0.1s-0.5 0-0.7-0.1-0.4-0.2-0.6-0.4-0.3-0.4-0.4-0.6-0.1-0.5-0.1-0.8 0-0.6 0.1-0.8 0.2-0.4 0.4-0.6 0.3-0.3 0.6-0.4c0.2-0.1 0.4-0.1 0.7-0.1s0.5 0 0.7 0.1 0.4 0.2 0.6 0.4 0.3 0.4 0.4 0.6c0.1 0.3 0.1 0.5 0.1 0.8zm-0.7 0c0-0.4-0.1-0.8-0.3-1s-0.4-0.4-0.8-0.4c-0.3 0-0.6 0.1-0.8 0.4-0.2 0.2-0.3 0.6-0.3 1s0.1 0.8 0.3 1 0.4 0.4 0.8 0.4c0.3 0 0.6-0.1 0.8-0.4 0.2-0.2 0.3-0.5 0.3-1z" />
            <path class="logo-efrr-3" d="m3.3834 10.5c-0.5 0-1-0.1-1.3-0.2-0.4-0.1-0.7-0.4-0.9-0.6s-0.4-0.6-0.5-0.9c-0.1-0.4-0.2-0.8-0.2-1.2v-4.7h1.4v4.6c0 0.3 0 0.6 0.1 0.9l0.3 0.6c0.1 0.2 0.3 0.3 0.5 0.3 0.2 0.1 0.4 0.1 0.6 0.1s0.5 0 0.6-0.1c0.2-0.1 0.4-0.2 0.5-0.3 0.1-0.2 0.2-0.3 0.3-0.6 0.1-0.2 0.1-0.5 0.1-0.9v-4.6h1.4v4.7c0 0.4-0.1 0.8-0.2 1.2s-0.3 0.7-0.5 0.9-0.6 0.5-0.9 0.6c-0.3 0.2-0.7 0.2-1.3 0.2z" />
            <path class="logo-efrr-3" d="m7.9834 5.1c0.3-0.1 0.6-0.1 1-0.2s0.9-0.1 1.3-0.1c0.5 0 0.8 0.1 1.2 0.2 0.3 0.1 0.6 0.3 0.7 0.5 0.2 0.2 0.3 0.5 0.4 0.8s0.1 0.7 0.1 1.1v3.2h-1.3v-3c0-0.3 0-0.6-0.1-0.8 0-0.2-0.1-0.4-0.2-0.5 0-0.2-0.1-0.3-0.3-0.3-0.2-0.1-0.3-0.1-0.6-0.1h-0.5c-0.2 0-0.3 0-0.4 0.1v4.6h-1.3v-5.5z" />
            <path class="logo-efrr-3" d="m15.783 3.2c0 0.2-0.1 0.4-0.2 0.6-0.2 0.1-0.4 0.2-0.6 0.2s-0.4-0.1-0.6-0.2-0.3-0.3-0.3-0.6 0.1-0.5 0.2-0.6c0.2-0.1 0.4-0.2 0.6-0.2s0.4 0.1 0.6 0.2c0.2 0.2 0.3 0.4 0.3 0.6zm-0.2 7.3h-1.3v-5.6h1.3v5.6z" />
            <path class="logo-efrr-3" d="m19.083 4.6c0.4 0 0.8 0.1 1.1 0.2s0.5 0.3 0.7 0.5 0.3 0.4 0.4 0.7 0.1 0.6 0.1 0.9v3.4c-0.2 0-0.5 0.1-0.9 0.2s-0.9 0.1-1.4 0.1c-0.3 0-0.6 0-0.9-0.1s-0.5-0.2-0.7-0.3-0.4-0.3-0.5-0.6c-0.1-0.2-0.2-0.5-0.2-0.9 0-0.3 0.1-0.6 0.2-0.8s0.3-0.4 0.5-0.5 0.5-0.2 0.8-0.3 0.6-0.1 0.9-0.1h0.5c0.2 0 0.3 0 0.5 0.1v-0.2c0-0.2 0-0.3-0.1-0.4 0-0.1-0.1-0.3-0.2-0.4s-0.2-0.2-0.4-0.2c-0.1-0.1-0.3-0.1-0.6-0.1s-0.6 0-0.8 0.1c-0.3 0-0.5 0.1-0.6 0.2l-0.2-1.1c0.2-0.1 0.4-0.1 0.7-0.2 0.4-0.2 0.7-0.2 1.1-0.2zm0.1 4.9c0.4 0 0.7 0 0.9-0.1v-1.4c-0.1 0-0.2 0-0.3-0.1h-0.5-0.4c-0.1 0-0.3 0.1-0.4 0.1-0.1 0.1-0.2 0.1-0.3 0.2s-0.1 0.2-0.1 0.4c0 0.3 0.1 0.5 0.3 0.6 0.2 0.2 0.5 0.3 0.8 0.3z" />
            <path class="logo-efrr-3" d="m25.483 10.5v-7.5h4.8v1.2h-3.5v1.8h3.1v1.1h-3.1v2.2h3.7v1.2h-5z" />
            <path class="logo-efrr-3" d="m36.083 10.2c-0.3 0.1-0.6 0.1-1 0.2s-0.8 0.1-1.3 0.1-0.8-0.1-1.1-0.2-0.6-0.3-0.7-0.5c-0.2-0.2-0.3-0.5-0.4-0.8s-0.1-0.7-0.1-1.1v-3.2h1.3v3c0 0.6 0.1 1 0.3 1.3s0.5 0.4 0.9 0.4h0.5c0.2 0 0.3 0 0.4-0.1v-4.6h1.2v5.5z" />
            <path class="logo-efrr-3" d="m40.983 6c-0.1 0-0.3-0.1-0.4-0.1-0.2 0-0.4-0.1-0.7-0.1h-0.5c-0.2 0-0.3 0.1-0.3 0.1v4.5h-1.3v-5.4c0.3-0.1 0.6-0.2 0.9-0.3 0.4-0.1 0.8-0.1 1.3-0.1h0.3 0.3c0.1 0 0.2 0 0.3 0.1 0.1 0 0.2 0 0.3 0.1l-0.2 1.2z" />
            <path class="logo-efrr-3" d="m47.183 7.6c0 0.4-0.1 0.9-0.2 1.2-0.1 0.4-0.3 0.7-0.6 0.9-0.2 0.3-0.5 0.5-0.9 0.6-0.3 0.1-0.7 0.2-1.1 0.2s-0.8-0.1-1.1-0.2-0.6-0.3-0.9-0.6l-0.6-0.9c-0.1-0.4-0.2-0.8-0.2-1.2s0.1-0.9 0.2-1.2c0.1-0.4 0.3-0.7 0.6-0.9 0.2-0.3 0.5-0.5 0.9-0.6 0.3-0.1 0.7-0.2 1.1-0.2s0.8 0.1 1.1 0.2 0.6 0.3 0.9 0.6l0.6 0.9c0.1 0.3 0.2 0.7 0.2 1.2zm-1.4 0c0-0.6-0.1-1-0.4-1.3-0.2-0.3-0.6-0.5-1-0.5s-0.8 0.2-1 0.5c-0.2 0.2-0.3 0.7-0.3 1.3s0.1 1 0.4 1.4c0.2 0.3 0.6 0.5 1 0.5s0.8-0.2 1-0.5c0.2-0.4 0.3-0.9 0.3-1.4z" />
            <path class="logo-efrr-3" d="m53.483 7.7c0 0.4-0.1 0.8-0.2 1.2s-0.3 0.7-0.5 0.9c-0.2 0.3-0.5 0.5-0.8 0.6s-0.7 0.2-1.1 0.2c-0.3 0-0.5 0-0.7-0.1s-0.4-0.1-0.6-0.2v2.2h-1.3v-7.5c0.3-0.1 0.6-0.1 1-0.2s0.8-0.1 1.2-0.1 0.8 0.1 1.2 0.2 0.7 0.3 0.9 0.6l0.6 0.9c0.3 0.4 0.3 0.9 0.3 1.3zm-1.3 0c0-0.6-0.1-1-0.4-1.4-0.3-0.3-0.7-0.5-1.3-0.5h-0.4c-0.1 0-0.3 0-0.4 0.1v3.2c0.1 0.1 0.3 0.2 0.5 0.2 0.2 0.1 0.4 0.1 0.6 0.1 0.5 0 0.8-0.2 1-0.5 0.3-0.2 0.4-0.6 0.4-1.2z" />
            <path class="logo-efrr-3" d="m54.483 7.6c0-0.5 0.1-0.9 0.2-1.3s0.3-0.7 0.6-0.9c0.2-0.2 0.5-0.4 0.8-0.6 0.3-0.1 0.6-0.2 1-0.2 0.8 0 1.4 0.2 1.8 0.7s0.7 1.2 0.7 2.2v0.2 0.2h-3.7c0 0.5 0.2 0.8 0.5 1.1 0.3 0.2 0.7 0.4 1.2 0.4 0.3 0 0.6 0 0.9-0.1s0.5-0.1 0.6-0.2l0.2 1.1c-0.1 0-0.2 0.1-0.3 0.1s-0.3 0.1-0.4 0.1c-0.2 0-0.3 0.1-0.5 0.1h-0.6c-0.5 0-0.9-0.1-1.3-0.2s-0.7-0.4-0.9-0.6c-0.2-0.3-0.4-0.6-0.5-0.9-0.2-0.4-0.3-0.8-0.3-1.2zm3.8-0.6c0-0.2 0-0.4-0.1-0.5-0.1-0.2-0.1-0.3-0.2-0.4s-0.2-0.2-0.4-0.3c-0.1-0.1-0.3-0.1-0.5-0.1s-0.4 0-0.5 0.1c-0.2 0.1-0.3 0.2-0.4 0.3s-0.2 0.3-0.2 0.4c-0.1 0.2-0.1 0.3-0.1 0.5h2.4z" />
            <path class="logo-efrr-3" d="m60.183 12.5h-0.4c-0.2 0-0.3-0.1-0.4-0.1l0.2-1.1c0.2 0.1 0.4 0.1 0.6 0.1 0.3 0 0.5-0.1 0.6-0.3s0.2-0.4 0.2-0.8v-5.4h1.3v5.5c0 0.7-0.2 1.3-0.5 1.6-0.4 0.4-0.9 0.5-1.6 0.5zm2.2-9.3c0 0.2-0.1 0.4-0.2 0.6-0.2 0.1-0.3 0.2-0.6 0.2-0.2 0-0.4-0.1-0.6-0.2s-0.2-0.3-0.2-0.6 0.1-0.5 0.2-0.6c0.2-0.1 0.3-0.2 0.6-0.2 0.2 0 0.4 0.1 0.6 0.2 0.1 0.2 0.2 0.4 0.2 0.6z" />
            <path class="logo-efrr-3" d="m65.283 9.5c0.3 0 0.6 0 0.8-0.1s0.2-0.2 0.2-0.4-0.1-0.3-0.3-0.5c-0.2-0.1-0.4-0.3-0.8-0.4-0.2-0.1-0.5-0.2-0.7-0.3s-0.4-0.2-0.5-0.3-0.3-0.3-0.3-0.5c-0.1-0.2-0.1-0.4-0.1-0.7 0-0.5 0.2-0.9 0.6-1.2s0.9-0.4 1.6-0.4c0.3 0 0.6 0 1 0.1 0.3 0.1 0.5 0.1 0.7 0.2l-0.2 1.1c-0.1-0.1-0.3-0.1-0.6-0.2-0.2-0.1-0.5-0.1-0.8-0.1s-0.5 0-0.6 0.1c-0.2 0.1-0.2 0.2-0.2 0.4v0.2c0 0.1 0.1 0.1 0.2 0.2s0.2 0.1 0.3 0.2 0.3 0.1 0.5 0.2c0.3 0.1 0.6 0.2 0.8 0.3s0.4 0.2 0.5 0.4c0.1 0.1 0.2 0.3 0.3 0.5s0.1 0.4 0.1 0.6c0 0.5-0.2 1-0.6 1.2-0.4 0.3-1 0.4-1.7 0.4-0.5 0-0.9 0-1.2-0.1s-0.5-0.1-0.6-0.2l0.2-1.1c0.2 0.1 0.4 0.2 0.7 0.2 0 0.1 0.3 0.2 0.7 0.2z" />
            <path class="logo-efrr-3" d="m70.083 7.1c0.2-0.2 0.3-0.4 0.5-0.6l0.6-0.6c0.2-0.2 0.4-0.4 0.5-0.6 0.2-0.2 0.3-0.3 0.4-0.5h1.5c-0.4 0.4-0.7 0.8-1.1 1.3-0.4 0.4-0.8 0.9-1.2 1.3l0.7 0.7c0.2 0.3 0.5 0.5 0.7 0.8l0.6 0.9c0.2 0.3 0.4 0.6 0.5 0.8h-1.5c-0.1-0.2-0.3-0.5-0.4-0.7-0.2-0.2-0.4-0.5-0.5-0.7-0.2-0.2-0.4-0.4-0.6-0.7-0.2-0.2-0.4-0.4-0.6-0.5v2.6h-1.3v-7.4l1.2-0.2v4.1z" />
            <path class="logo-efrr-3" d="m76.483 4.6c0.4 0 0.8 0.1 1.1 0.2s0.5 0.3 0.7 0.5 0.3 0.4 0.4 0.7 0.1 0.6 0.1 0.9v3.4c-0.2 0-0.5 0.1-0.9 0.2s-0.9 0.1-1.4 0.1c-0.3 0-0.6 0-0.9-0.1s-0.5-0.2-0.7-0.3-0.4-0.3-0.5-0.6c-0.1-0.2-0.2-0.5-0.2-0.9 0-0.3 0.1-0.6 0.2-0.8s0.3-0.4 0.5-0.5 0.5-0.2 0.8-0.3 0.6-0.1 0.9-0.1h0.5c0.2 0 0.3 0 0.5 0.1v-0.2c0-0.2 0-0.3-0.1-0.4 0-0.1-0.1-0.3-0.2-0.4s-0.2-0.2-0.4-0.2c-0.1-0.1-0.3-0.1-0.6-0.1s-0.6 0-0.8 0.1c-0.3 0-0.5 0.1-0.6 0.2l-0.2-1.1c0.2-0.1 0.4-0.1 0.7-0.2 0.4-0.2 0.8-0.2 1.1-0.2zm0.1 4.9c0.4 0 0.7 0 0.9-0.1v-1.4c-0.1 0-0.2 0-0.3-0.1h-0.5-0.4c-0.1 0-0.3 0.1-0.4 0.1-0.1 0.1-0.2 0.1-0.3 0.2s-0.1 0.2-0.1 0.4c0 0.3 0.1 0.5 0.3 0.6 0.2 0.2 0.5 0.3 0.8 0.3z" />
        </g>
    </svg>    
</svg>
