<svg width="18" height="20" viewBox="0 0 18 20" fill="none" xmlns="http://www.w3.org/2000/svg">
<path d="M8.75 0C4.535 0 0 1.27062 0 4.0625V15.9375C0 18.7281 4.535 20 8.75 20C12.9644 20 17.5 18.7281 17.5 15.9375V4.0625C17.5 1.27062 12.9637 0 8.75 0ZM16.25 15.9375C16.25 17.49 12.8919 18.75 8.75 18.75C4.6075 18.75 1.25 17.49 1.25 15.9375V13.6025C2.54125 14.9331 5.65625 15.625 8.75 15.625C11.8438 15.625 14.9587 14.9331 16.25 13.6025V15.9375ZM16.25 12.1875H16.2475C16.2475 12.1938 16.25 12.2006 16.25 12.2069C16.25 13.75 12.8919 15 8.75 15C4.60813 15 1.25 13.75 1.25 12.2069C1.25 12.2006 1.2525 12.1938 1.2525 12.1875H1.25V9.8525C2.54125 11.1831 5.65625 11.875 8.75 11.875C11.8438 11.875 14.9587 11.1831 16.25 9.8525V12.1875ZM16.25 8.4375H16.2475C16.2475 8.44375 16.25 8.45063 16.25 8.45687C16.25 10 12.8919 11.25 8.75 11.25C4.60813 11.25 1.25 10 1.25 8.45687C1.25 8.45063 1.2525 8.44375 1.2525 8.4375H1.25V6.29C2.88812 7.53813 5.89062 8.125 8.75 8.125C11.6094 8.125 14.6119 7.53813 16.25 6.29V8.4375ZM8.75 6.875C4.6075 6.875 1.25 5.615 1.25 4.0625C1.25 2.50875 4.6075 1.25 8.75 1.25C12.8919 1.25 16.25 2.50875 16.25 4.0625C16.25 5.615 12.8919 6.875 8.75 6.875Z" fill="white"/>
<path d="M14.375 16.875C14.7202 16.875 15 16.5952 15 16.25C15 15.9048 14.7202 15.625 14.375 15.625C14.0298 15.625 13.75 15.9048 13.75 16.25C13.75 16.5952 14.0298 16.875 14.375 16.875Z" fill="white"/>
<path d="M14.375 13.125C14.7202 13.125 15 12.8452 15 12.5C15 12.1548 14.7202 11.875 14.375 11.875C14.0298 11.875 13.75 12.1548 13.75 12.5C13.75 12.8452 14.0298 13.125 14.375 13.125Z" fill="white"/>
<path d="M14.375 9.375C14.7202 9.375 15 9.09518 15 8.75C15 8.40482 14.7202 8.125 14.375 8.125C14.0298 8.125 13.75 8.40482 13.75 8.75C13.75 9.09518 14.0298 9.375 14.375 9.375Z" fill="white"/>
</svg>
