<svg width="20" height="20" viewBox="0 0 20 20" fill="none" xmlns="http://www.w3.org/2000/svg">
<path d="M18.5943 7.03129L14.9595 5.96891L14.9446 5.9648C14.8346 5.93574 14.7183 5.93574 14.6083 5.9648L13.7441 6.21734V2.74402C13.7441 0.942578 10.4727 0 7.24117 0C4.00965 0 0.738281 0.942578 0.738281 2.74402V17.256C0.738281 19.0575 4.00965 20 7.24117 20C10.4727 20 13.7441 19.0574 13.7441 17.256V16.3163L13.7979 16.348L13.8308 16.3659C14.1269 16.5154 14.4517 16.5901 14.7765 16.5901C15.1014 16.5901 15.4262 16.5154 15.7223 16.3659L15.739 16.3575L18.1298 14.9523C18.8285 14.5913 19.2617 13.8807 19.2617 13.093V7.90715C19.2616 7.49832 18.9877 7.13957 18.5943 7.03129ZM3.2577 1.76789C4.31262 1.38312 5.7273 1.17117 7.24117 1.17117C8.755 1.17117 10.1697 1.38312 11.2247 1.76789C12.151 2.10578 12.5729 2.51074 12.5729 2.74402C12.5729 2.97727 12.1509 3.38223 11.2247 3.72012C10.1697 4.10488 8.75504 4.31684 7.24117 4.31684C5.7273 4.31684 4.31262 4.10488 3.25766 3.72012C2.33137 3.38223 1.90949 2.97727 1.90949 2.74402C1.90945 2.51074 2.33137 2.10578 3.2577 1.76789ZM1.90941 4.38352C3.1484 5.11273 5.20254 5.48797 7.24113 5.48797C9.27976 5.48797 11.3339 5.11273 12.5729 4.38352V6.55957L10.9587 7.03129C10.604 7.12895 10.3471 7.43047 10.3 7.78852C9.39211 8.00465 8.35137 8.11824 7.2607 8.11824C5.74684 8.11824 4.33215 7.90629 3.27719 7.52152C2.35086 7.18363 1.92898 6.77871 1.92898 6.54543C1.92898 6.49438 1.92176 6.44508 1.90945 6.39781V4.38352H1.90941ZM1.90941 8.1734C3.14629 8.9102 5.21129 9.28941 7.26062 9.28941C8.3318 9.28941 9.36426 9.18656 10.2914 8.99031V11.4368C9.38976 11.6465 8.325 11.7606 7.24117 11.7606C5.72734 11.7606 4.31262 11.5487 3.25766 11.1639C2.33133 10.826 1.90945 10.4211 1.90945 10.1878V8.1734H1.90941ZM1.90941 11.8273C3.14844 12.5566 5.20258 12.9318 7.24117 12.9318C8.32484 12.9318 9.36398 12.8302 10.2914 12.6364V13.093C10.2914 13.8205 10.6611 14.482 11.268 14.8632C10.2575 15.2589 8.81848 15.4909 7.26066 15.4909C5.7468 15.4909 4.33211 15.2789 3.27719 14.8942C2.35086 14.5563 1.92898 14.1513 1.92898 13.918C1.92898 13.867 1.92176 13.8177 1.90945 13.7704V11.8273H1.90941ZM11.2247 18.2321C10.1697 18.6169 8.75504 18.8288 7.24117 18.8288C5.7273 18.8288 4.31262 18.6169 3.25766 18.2321C2.33133 17.8942 1.90945 17.4893 1.90945 17.256V15.546C3.14633 16.2829 5.21133 16.6621 7.26066 16.6621C9.39652 16.6621 11.3088 16.2599 12.4837 15.5755L12.5729 15.6279V17.256H12.5729C12.5729 17.4893 12.151 17.8942 11.2247 18.2321ZM17.5839 13.9159L17.5672 13.9243L15.1797 15.3276C14.9259 15.45 14.627 15.45 14.3732 15.3276L12.0018 13.9338L11.969 13.9159C11.6566 13.7582 11.4625 13.4429 11.4625 13.093V8.25609C11.4625 8.25602 11.4625 8.25594 11.4625 8.25586V8.10422L13.3307 7.55816C13.3316 7.55789 13.3326 7.55766 13.3335 7.55734L14.7764 7.13555L18.0904 8.10418V13.0929H18.0904C18.0904 13.4429 17.8964 13.7582 17.5839 13.9159Z" fill="black"/>
<path d="M16.9244 9.76282C16.7047 9.52548 16.3342 9.51106 16.0969 9.73071L14.1191 11.5609L13.4726 10.9144C13.2439 10.6857 12.8731 10.6857 12.6444 10.9144C12.4157 11.1431 12.4157 11.5138 12.6444 11.7425L13.6892 12.7874C13.6942 12.7924 13.6997 12.7966 13.7048 12.8015C13.712 12.8081 13.7191 12.8149 13.7265 12.8211C13.7347 12.8279 13.743 12.8343 13.7514 12.8406C13.759 12.8463 13.7666 12.8522 13.7745 12.8575C13.7833 12.8636 13.7925 12.8691 13.8016 12.8746C13.8094 12.8793 13.8171 12.8841 13.825 12.8884C13.8348 12.8937 13.8448 12.8983 13.8548 12.903C13.8625 12.9066 13.87 12.9104 13.8778 12.9137C13.8886 12.9182 13.8996 12.9219 13.9105 12.9258C13.9178 12.9283 13.9251 12.9312 13.9325 12.9334C13.9444 12.9371 13.9564 12.9398 13.9684 12.9427C13.9752 12.9443 13.9819 12.9463 13.9887 12.9476C14.0022 12.9503 14.016 12.9521 14.0297 12.9538C14.0351 12.9545 14.0404 12.9556 14.0458 12.9561C14.065 12.958 14.0842 12.959 14.1035 12.959C14.1035 12.959 14.1035 12.959 14.1035 12.959C14.1036 12.959 14.1036 12.959 14.1036 12.959C14.1219 12.959 14.1402 12.9581 14.1584 12.9564C14.1636 12.9559 14.1687 12.9549 14.1738 12.9543C14.1869 12.9527 14.1999 12.9511 14.2129 12.9486C14.2193 12.9474 14.2256 12.9456 14.232 12.9442C14.2436 12.9416 14.2551 12.9391 14.2665 12.9358C14.2735 12.9337 14.2805 12.9311 14.2874 12.9288C14.298 12.9254 14.3085 12.9219 14.3189 12.9178C14.3263 12.9149 14.3335 12.9115 14.3408 12.9082C14.3505 12.9039 14.3602 12.8997 14.3697 12.8948C14.3772 12.8909 14.3846 12.8866 14.392 12.8824C14.4009 12.8773 14.4098 12.8722 14.4185 12.8667C14.426 12.8619 14.4333 12.8566 14.4406 12.8515C14.4489 12.8456 14.4572 12.8397 14.4653 12.8334C14.4724 12.8278 14.4792 12.8218 14.4861 12.8158C14.4911 12.8115 14.4964 12.8076 14.5013 12.8031L16.8925 10.5903C17.1297 10.3707 17.1441 10.0002 16.9244 9.76282Z" fill="black"/>
</svg>
