<svg width="14" height="14" viewBox="0 0 14 14" fill="none" xmlns="http://www.w3.org/2000/svg">
<g clip-path="url(#clip0_312_577)">
<path d="M9.89991 4.95534C10.0525 5.2876 10.2228 5.61156 10.3742 5.94442C10.6655 6.58503 10.8867 7.26139 10.9786 7.95903C11.0705 8.65667 11.0305 9.37709 10.8126 10.046C10.5662 10.8011 10.0984 11.4729 9.52529 12.0227C8.84728 12.6731 7.97696 13.1745 7.03812 13.2116C6.42637 13.2356 5.81735 13.0608 5.27562 12.7756C4.82035 12.536 4.40473 12.2167 4.07313 11.8234C3.74153 11.43 3.49532 10.9617 3.3813 10.46C3.2409 9.8422 3.30445 9.18636 3.51692 8.58952C3.6689 8.1627 3.89417 7.7653 4.05453 7.34157C4.22979 6.87857 4.32764 6.38418 4.55985 5.94695C4.77026 5.55049 5.08592 5.21187 5.2536 4.79554C5.35374 4.54689 5.39718 4.27982 5.46185 4.01964C5.52652 3.75946 5.61706 3.49741 5.79317 3.29529C6.00546 3.05174 6.32473 2.91973 6.6456 2.88267C6.96646 2.8456 7.29127 2.89565 7.60618 2.96749C7.85689 3.02466 8.10456 3.09566 8.34684 3.18184C8.55364 3.25541 8.75857 3.34107 8.9374 3.46835C9.18108 3.64174 9.36666 3.8859 9.51451 4.14589C9.66236 4.40588 9.77553 4.68363 9.90038 4.95539L9.89991 4.95534Z" fill="#020204"/>
<path d="M7.20693 13.2189C7.46467 13.2339 7.72194 13.2589 7.97734 13.2974C8.20192 13.3316 8.42489 13.3755 8.6456 13.4292C8.9913 13.513 9.33579 13.6199 9.69138 13.63C9.78497 13.6327 9.87883 13.6285 9.97068 13.6081C10.0625 13.5878 10.1507 13.5507 10.224 13.4924C10.3332 13.4054 10.402 13.2741 10.4282 13.1369C10.4543 12.9996 10.4379 12.8568 10.3977 12.7231C10.3173 12.4557 10.1446 12.2275 10.0023 11.9875C9.92054 11.8501 9.84767 11.7073 9.7591 11.5742C9.67053 11.4411 9.56462 11.3164 9.43012 11.2297C9.24417 11.1099 9.01361 11.0708 8.7935 11.0927C8.57339 11.1146 8.36236 11.1942 8.16592 11.2959C7.89055 11.4385 7.63136 11.6343 7.48126 11.9056C7.42901 12 7.39105 12.1015 7.34667 12.1999C7.30229 12.2983 7.25032 12.3951 7.17515 12.4725C7.09127 12.5589 6.98246 12.6171 6.89571 12.7004C6.85237 12.7426 6.81441 12.7906 6.79262 12.8465C6.77082 12.9024 6.76487 12.9663 6.78512 13.023C6.79904 13.0619 6.82448 13.096 6.85588 13.1228C6.88728 13.1496 6.92439 13.1692 6.96334 13.1828C7.04113 13.2101 7.12501 13.2142 7.20735 13.219L7.20693 13.2189Z" fill="#020204"/>
<path d="M6.44112 13.2009C6.2263 13.2058 6.01373 13.2443 5.80379 13.2878C5.60265 13.3293 5.40246 13.3756 5.20376 13.4278C4.86851 13.5158 4.53283 13.6212 4.18629 13.6285C4.09509 13.6304 4.00324 13.6255 3.91434 13.6049C3.82545 13.5843 3.73941 13.5477 3.66808 13.4909C3.55913 13.404 3.48986 13.2729 3.46423 13.136C3.4386 12.9991 3.45425 12.8565 3.49399 12.723C3.57351 12.4559 3.74405 12.2272 3.8837 11.986C3.96303 11.8489 4.03305 11.7064 4.11885 11.5733C4.20466 11.4402 4.30799 11.3152 4.44033 11.2282C4.62065 11.1096 4.84555 11.0695 5.06032 11.0906C5.27509 11.1117 5.48091 11.1909 5.67032 11.2944C5.93772 11.4404 6.18192 11.6414 6.33652 11.9036C6.44501 12.0877 6.50757 12.2984 6.63438 12.4705C6.70266 12.5632 6.78902 12.6433 6.84526 12.7434C6.87366 12.7934 6.89446 12.8486 6.89929 12.906C6.90412 12.9634 6.89226 13.0231 6.85993 13.0707C6.8386 13.1023 6.80899 13.1278 6.7759 13.1466C6.74282 13.1653 6.70631 13.1777 6.66905 13.1855C6.59408 13.201 6.51769 13.1986 6.44154 13.2004L6.44112 13.2009ZM5.24078 4.25555C5.2106 3.89236 5.21735 3.52716 5.20423 3.16295C5.1912 2.81275 5.15896 2.46273 5.17072 2.11248C5.18272 1.75633 5.24242 1.39549 5.40101 1.07542C5.55959 0.755347 5.81714 0.484576 6.13136 0.315216C6.42659 0.155884 6.76709 0.0877927 7.103 0.0914479C7.5585 0.0964154 8.01513 0.234003 8.38394 0.501212C8.6152 0.668605 8.80968 0.884406 8.96311 1.12514C9.094 1.33063 9.19569 1.55505 9.25951 1.79058C9.3904 2.27327 9.35933 2.78163 9.38482 3.28062C9.40896 3.75356 9.48464 4.22537 9.45887 4.69821C9.45324 4.8013 9.44218 4.90599 9.3964 4.99813C9.35179 5.08787 9.27606 5.16004 9.18903 5.2098C9.10201 5.25957 9.00407 5.28788 8.90505 5.30315C8.70696 5.33371 8.50437 5.31356 8.30483 5.33207C8.01522 5.35892 7.73897 5.46633 7.45156 5.5108C7.10947 5.56376 6.76002 5.52626 6.41366 5.51239C6.27494 5.50686 6.13576 5.50513 5.99808 5.48784C5.8604 5.47055 5.723 5.43723 5.6005 5.3719C5.52552 5.33169 5.45555 5.27935 5.39922 5.21491C5.3429 5.15048 5.29988 5.07432 5.27846 4.99105C5.24627 4.86672 5.26323 4.73584 5.2637 4.60739C5.26417 4.48995 5.25048 4.37294 5.24027 4.25592L5.24078 4.25555Z" fill="#020204"/>
<path d="M5.7824 4.11621C5.73339 4.1776 5.70143 4.2515 5.68212 4.32775C5.66281 4.40399 5.65578 4.48277 5.65274 4.56131C5.64674 4.71844 5.6563 4.87857 5.61478 5.03021C5.57026 5.19236 5.47063 5.33276 5.37306 5.46969C5.20412 5.70681 5.03331 5.95003 4.95004 6.22895C4.89956 6.39789 4.88274 6.57681 4.90092 6.75217C4.71183 7.02988 4.54805 7.32483 4.41248 7.63225C4.20694 8.09815 4.06588 8.59419 4.01626 9.10091C3.95552 9.72147 4.03491 10.3597 4.27995 10.9331C4.45709 11.3476 4.7213 11.7271 5.0619 12.0225C5.23505 12.1727 5.42742 12.3009 5.63362 12.4019C6.34653 12.7523 7.22755 12.7529 7.92861 12.3795C8.29498 12.1842 8.60427 11.8987 8.90241 11.6099C9.08198 11.4359 9.26062 11.2578 9.3976 11.0487C9.6613 10.646 9.75315 10.1566 9.81022 9.67868C9.91004 8.84298 9.91323 7.96024 9.54686 7.20257C9.42034 6.9412 9.25295 6.70168 9.05101 6.49302C8.99735 6.12843 8.89139 5.77148 8.7374 5.43665C8.62634 5.19508 8.49053 4.96512 8.38734 4.72013C8.34498 4.61951 8.30768 4.51651 8.26114 4.418C8.21461 4.3195 8.15617 4.2247 8.07725 4.14925C7.99651 4.07192 7.8959 4.01719 7.78971 3.98214C7.68352 3.94708 7.5718 3.9312 7.46026 3.92557C7.23697 3.91433 7.0132 3.94352 6.78985 3.93466C6.61201 3.92764 6.43473 3.89643 6.25703 3.90692C6.16818 3.91217 6.07942 3.92801 5.99694 3.96152C5.91446 3.99502 5.83845 4.04667 5.78297 4.11616L5.7824 4.11621Z" fill="#FDFDFB"/>
<g filter="url(#filter0_f_312_577)">
<path d="M5.67307 4.94861C5.75288 5.18001 5.91348 5.37749 6.10355 5.53176C6.16681 5.58308 6.23392 5.63036 6.30815 5.66377C6.38238 5.69718 6.4643 5.71626 6.54537 5.70932C6.6248 5.70257 6.70034 5.67136 6.76984 5.63219C6.83934 5.59301 6.90368 5.54563 6.97102 5.50299C7.08644 5.42988 7.21002 5.37084 7.32984 5.30523C7.47427 5.22617 7.6143 5.13652 7.73591 5.02593C7.79158 4.97508 7.8435 4.91965 7.90499 4.87597C7.96647 4.83229 8.04009 4.80071 8.1153 4.80582C8.17173 4.80966 8.22463 4.83365 8.27989 4.84556C8.308 4.85151 8.33612 4.85446 8.3641 4.85015C8.39207 4.84584 8.41939 4.83403 8.43898 4.8136C8.46298 4.78862 8.47347 4.75267 8.47179 4.718C8.4701 4.68332 8.45848 4.64991 8.44226 4.61926C8.40993 4.55796 8.36096 4.50515 8.33917 4.4394C8.31976 4.38082 8.3237 4.31756 8.32539 4.25598C8.32708 4.1944 8.32576 4.12992 8.29727 4.07523C8.27562 4.03352 8.23935 4.00049 8.19783 3.97851C8.15631 3.95653 8.10973 3.9457 8.06305 3.94083C7.96956 3.93207 7.87588 3.9502 7.78216 3.9555C7.65769 3.96253 7.53276 3.94697 7.40834 3.95447C7.25322 3.96384 7.10106 4.00883 6.94562 4.00911C6.7682 4.00944 6.59096 3.95138 6.4157 3.97912C6.34049 3.99102 6.26879 4.01839 6.19657 4.04248C6.12436 4.06656 6.04975 4.08779 5.97365 4.08671C5.88723 4.08545 5.80354 4.05555 5.71731 4.04936C5.6742 4.04627 5.63005 4.04936 5.58956 4.0645C5.54907 4.07964 5.51247 4.1078 5.49265 4.14618C5.48126 4.16821 5.47564 4.1929 5.47456 4.21765C5.47348 4.24239 5.47691 4.26718 5.4829 4.29122C5.49485 4.3393 5.51683 4.38415 5.53445 4.43026C5.59973 4.59681 5.61374 4.77929 5.67209 4.94837L5.67307 4.94861Z" fill="black" fill-opacity="0.26"/>
</g>
<g opacity="0.3" filter="url(#filter1_f_312_577)">
<path d="M5.45224 4.28898C5.60726 4.38481 5.7464 4.50239 5.86322 4.63655C5.97162 4.76104 6.06379 4.90219 6.20532 4.99439C6.30528 5.05948 6.42534 5.09617 6.54713 5.10731C6.69016 5.12039 6.83487 5.09924 6.97274 5.0619C7.10053 5.02728 7.22406 4.97859 7.33742 4.91428C7.55289 4.79186 7.73294 4.61242 7.97006 4.53196C8.02194 4.51439 8.07597 4.50183 8.12597 4.48016C8.17598 4.45849 8.22298 4.42603 8.24688 4.38011C8.27031 4.33599 8.2689 4.28506 8.2764 4.23658C8.28437 4.18478 8.30236 4.13463 8.3122 4.08309C8.32205 4.03155 8.32322 3.97638 8.29908 3.92899C8.27903 3.88971 8.24261 3.85871 8.20067 3.83899C8.15873 3.81926 8.11163 3.81033 8.06458 3.80817C7.97058 3.80385 7.8777 3.82608 7.78397 3.83398C7.65979 3.84443 7.53476 3.82966 7.41015 3.83312C7.25513 3.83743 7.10236 3.86981 6.94743 3.8765C6.77067 3.88418 6.59437 3.85845 6.41751 3.85276C6.34103 3.85025 6.26404 3.85146 6.18864 3.86368C6.11323 3.87589 6.03924 3.89916 5.97541 3.93818C5.91355 3.97604 5.86308 4.0274 5.80638 4.07156C5.77803 4.09366 5.74789 4.11408 5.71481 4.12962C5.68173 4.14516 5.64545 4.15573 5.60843 4.15737C5.58936 4.15824 5.5701 4.15673 5.55126 4.1594C5.53546 4.16185 5.52034 4.16716 5.50677 4.17501C5.49321 4.18287 5.48147 4.19313 5.47222 4.20518C5.46298 4.21724 5.45643 4.23087 5.45293 4.24527C5.44944 4.25968 5.44908 4.27458 5.45187 4.28911L5.45224 4.28898Z" fill="black"/>
</g>
<path d="M5.85439 2.17373C5.77097 2.17827 5.69107 2.21684 5.63001 2.27387C5.56895 2.3309 5.52598 2.40565 5.49945 2.48494C5.4465 2.64352 5.45845 2.81541 5.4704 2.98168C5.48132 3.13267 5.49242 3.28652 5.54899 3.42697C5.57725 3.49717 5.61694 3.56287 5.66989 3.61742C5.72285 3.67197 5.78949 3.71311 5.86287 3.73148C5.93176 3.74873 6.00524 3.74516 6.07296 3.72389C6.14067 3.70261 6.20248 3.6639 6.25319 3.61432C6.32723 3.54192 6.37705 3.44721 6.40563 3.34768C6.43422 3.24814 6.44237 3.14373 6.44087 3.04026C6.439 2.91073 6.42213 2.78064 6.38155 2.65768C6.34096 2.53471 6.27629 2.41854 6.18599 2.32561C6.14227 2.28062 6.09236 2.24102 6.03603 2.21328C5.9797 2.18554 5.91686 2.16993 5.8542 2.17331L5.85439 2.17373Z" fill="url(#paint0_radial_312_577)"/>
<path d="M7.33092 2.17373C7.20064 2.26276 7.09145 2.38812 7.03803 2.53691C6.97073 2.72445 6.99651 2.9343 7.06146 3.12269C7.128 3.31562 7.23925 3.49946 7.4073 3.61531C7.49133 3.67323 7.58856 3.71292 7.68988 3.72496C7.7912 3.73701 7.89654 3.72051 7.98699 3.67342C8.09726 3.61596 8.18137 3.51535 8.23358 3.40255C8.28578 3.28975 8.30809 3.16496 8.31503 3.04077C8.3244 2.88261 8.30846 2.72183 8.25645 2.57215C8.19998 2.40954 8.09712 2.25958 7.95311 2.16599C7.88094 2.11923 7.79884 2.08708 7.71364 2.07532C7.62844 2.06355 7.54002 2.07236 7.45983 2.10353C7.41414 2.12133 7.3714 2.14603 7.33096 2.17382L7.33092 2.17373Z" fill="url(#paint1_radial_312_577)"/>
<g opacity="0.3" filter="url(#filter2_f_312_577)">
<path d="M5.8286 3.52269L5.58792 3.74224C5.54555 3.78488 5.5031 3.83053 5.48412 3.88751C5.46725 3.93812 5.47043 3.99309 5.46209 4.04591C5.45928 4.064 5.45506 4.08199 5.45497 4.10027C5.45482 4.10943 5.45605 4.11856 5.45862 4.12735C5.4613 4.13612 5.46565 4.14436 5.47198 4.15107C5.48238 4.16217 5.49719 4.16822 5.51209 4.17122C5.527 4.17422 5.54232 4.17459 5.55746 4.17623C5.62569 4.18359 5.68858 4.21667 5.74509 4.25566L5.91146 4.3768C6.03939 4.45806 6.1923 4.49419 6.34381 4.49996C6.49531 4.50572 6.64645 4.48262 6.79509 4.45286C6.91319 4.42924 7.031 4.40131 7.14305 4.35707C7.3147 4.2894 7.4694 4.18523 7.6172 4.07487C7.68435 4.02472 7.75057 3.97304 7.81088 3.91483C7.83136 3.89506 7.85118 3.87453 7.87312 3.85644C7.89505 3.83835 7.91941 3.82261 7.9465 3.81389C7.98774 3.80063 8.03254 3.80442 8.07528 3.81155C8.10747 3.81694 8.13976 3.8242 8.17238 3.82279C8.18869 3.82214 8.20504 3.81933 8.22018 3.81324C8.23531 3.80714 8.24933 3.79777 8.25968 3.78512C8.2732 3.7682 8.28051 3.74716 8.2804 3.72551C8.28049 3.70405 8.27384 3.68286 8.26306 3.66435C8.24127 3.62733 8.20364 3.60235 8.16441 3.58492C8.11071 3.56102 8.0526 3.54931 7.99543 3.53543C7.81993 3.49307 7.64935 3.43046 7.48762 3.35014C7.40721 3.31021 7.32904 3.26598 7.24994 3.22361C7.16859 3.18003 7.08569 3.13814 6.99735 3.11138C6.79992 3.05153 6.58402 3.07117 6.38922 3.13884C6.17271 3.21401 5.97697 3.34799 5.82846 3.52255L5.8286 3.52269Z" fill="black"/>
</g>
<path d="M6.24797 3.27279C6.33077 3.17967 6.38743 3.06613 6.467 2.9702C6.50683 2.92226 6.55267 2.87858 6.60674 2.84756C6.66082 2.81654 6.72353 2.79882 6.78562 2.80417C6.85469 2.81017 6.91941 2.84456 6.96997 2.89203C7.02054 2.93951 7.05808 2.99982 7.08807 3.06191C7.11675 3.1218 7.13952 3.18563 7.18086 3.23764C7.22491 3.29313 7.28676 3.33099 7.34253 3.37462C7.37046 3.39641 7.39722 3.42008 7.41929 3.44773C7.44136 3.47538 7.45865 3.50752 7.46568 3.54225C7.4726 3.57779 7.4696 3.61454 7.45701 3.64849C7.44474 3.68223 7.42388 3.71278 7.39797 3.73771C7.34614 3.78762 7.27547 3.81457 7.20424 3.82464C7.06178 3.84479 6.91768 3.80234 6.77386 3.80637C6.62825 3.81035 6.48603 3.86185 6.34047 3.85651C6.2677 3.85384 6.19389 3.83608 6.13409 3.79451C6.10394 3.77385 6.07846 3.7471 6.0593 3.71597C6.04046 3.6848 6.02898 3.64895 6.02776 3.61259C6.02659 3.57791 6.0347 3.54323 6.04857 3.51137C6.06244 3.4795 6.08198 3.45035 6.10396 3.42345C6.14801 3.36965 6.20176 3.32476 6.24792 3.27284L6.24797 3.27279Z" fill="url(#paint2_radial_312_577)"/>
<g filter="url(#filter3_f_312_577)">
<path d="M7.87125 0.697293C7.75111 0.782066 7.80359 0.887897 7.85526 0.99416C7.90694 1.10042 7.74166 1.40669 7.73988 1.41986C7.73809 1.43304 8.0652 1.26462 8.15434 1.15517C8.25964 1.02596 8.52567 1.33001 8.51125 1.28368C8.51136 1.20091 7.99144 0.61252 7.8713 0.697293H7.87125Z" fill="#7C7C7C"/>
</g>
<path d="M7.63212 2.56767C7.58315 2.57119 7.5354 2.58792 7.49388 2.61453C7.45236 2.64115 7.41688 2.67616 7.38905 2.71669C7.33342 2.79767 7.30891 2.89697 7.30502 2.99506C7.30207 3.06872 7.31018 3.14338 7.33464 3.21297C7.3591 3.28256 7.40025 3.34699 7.45709 3.394C7.5152 3.44212 7.58905 3.47104 7.66446 3.4746C7.73986 3.47816 7.81629 3.45646 7.87815 3.41335C7.92749 3.379 7.96728 3.33172 7.99563 3.27871C8.02399 3.22571 8.04109 3.16704 8.04882 3.10743C8.0626 3.00213 8.04704 2.89219 7.99835 2.79781C7.94966 2.70343 7.86714 2.62569 7.76746 2.58899C7.72435 2.57306 7.67795 2.56481 7.63212 2.56809V2.56767Z" fill="#020204"/>
<g filter="url(#filter4_f_312_577)">
<path d="M7.74829 2.88931C7.7077 2.90534 7.64345 2.89527 7.62569 2.9351C7.61515 2.95872 7.63005 2.99757 7.65395 3.00727C7.70231 3.02695 7.77729 2.99133 7.79688 2.94283C7.80532 2.92174 7.79253 2.88847 7.77158 2.87957C7.76385 2.87629 7.75611 2.88613 7.74833 2.88922L7.74829 2.88931Z" fill="#141413"/>
</g>
<g filter="url(#filter5_f_312_577)">
<path d="M7.93609 2.99383C7.99046 2.93947 7.89739 2.79514 7.8248 2.73609C7.77222 2.6933 7.61907 2.64846 7.62563 2.69509C7.63219 2.74171 7.70061 2.80128 7.74724 2.84678C7.80404 2.90278 7.91032 3.0197 7.93609 2.99383Z" fill="url(#paint3_linear_312_577)"/>
</g>
<path d="M6.83901 2.64731C6.95113 2.55429 7.08046 2.48423 7.21962 2.44112C7.50483 2.35302 7.82883 2.38784 8.08086 2.54773C8.16788 2.60293 8.24544 2.67154 8.32642 2.73537C8.4074 2.79919 8.49325 2.85908 8.59053 2.89329C8.64302 2.91176 8.69916 2.92249 8.75455 2.91672C8.8046 2.91147 8.85296 2.89273 8.89439 2.86424C8.93582 2.83575 8.97054 2.79779 8.99655 2.75472C9.04866 2.66863 9.06544 2.56423 9.05644 2.46403C9.03849 2.2636 8.92541 2.08665 8.83066 1.90918C8.80099 1.8536 8.77274 1.79704 8.73693 1.74516C8.62713 1.58602 8.45234 1.48105 8.26901 1.41956C8.08569 1.35808 7.89196 1.33587 7.7001 1.31169C7.61453 1.30091 7.52798 1.28966 7.44236 1.29997C7.34395 1.31183 7.25135 1.35152 7.15533 1.37612C7.10973 1.38784 7.06329 1.39604 7.01811 1.40911C6.97294 1.42219 6.92847 1.44051 6.89173 1.46985C6.83807 1.51277 6.80433 1.57716 6.78971 1.64432C6.77509 1.71147 6.77846 1.78134 6.78914 1.8492C6.81061 1.98491 6.86131 2.11744 6.85653 2.25475C6.85325 2.34903 6.82364 2.44163 6.82724 2.53592C6.82832 2.56404 6.83226 2.59108 6.83896 2.61793" fill="url(#paint4_linear_312_577)"/>
<g filter="url(#filter6_f_312_577)">
<path d="M7.78361 1.78564C7.76126 1.81376 7.74106 1.84432 7.72504 1.87796C7.8256 1.89961 7.92186 1.94104 8.00762 1.99807C8.17374 2.10839 8.2999 2.26969 8.38837 2.44912C8.40899 2.42625 8.42783 2.4017 8.44405 2.37442C8.3551 2.18754 8.22642 2.0185 8.05453 1.90439C7.97195 1.84956 7.87996 1.80814 7.78366 1.78583L7.78361 1.78564Z" fill="url(#paint5_linear_312_577)"/>
</g>
<g filter="url(#filter7_f_312_577)">
<path d="M5.84501 1.87749C5.83367 1.87725 5.82266 1.87828 5.81127 1.8788L5.78925 1.88011C5.85546 1.88611 5.9213 1.90392 5.9811 1.93072C6.06264 1.96728 6.13453 2.01943 6.19784 2.07881C6.31518 2.1887 6.40239 2.32437 6.46144 2.46824C6.44701 2.35952 6.41434 2.25402 6.36481 2.15618C6.34166 2.12947 6.31767 2.10322 6.29161 2.07886C6.22835 2.01953 6.15636 1.96742 6.07487 1.93077C6.00364 1.89876 5.92426 1.87885 5.84496 1.87744L5.84501 1.87749Z" fill="url(#paint6_linear_312_577)"/>
</g>
<path d="M5.65455 2.86519C5.63711 2.97045 5.63646 3.08085 5.67264 3.18119C5.69607 3.24745 5.7359 3.30757 5.78379 3.35926C5.81519 3.3931 5.85071 3.42384 5.89233 3.44376C5.93394 3.46367 5.98211 3.47216 6.02682 3.46096C6.06806 3.45065 6.10424 3.42393 6.13086 3.3908C6.15747 3.35767 6.17528 3.31803 6.18793 3.2774C6.22528 3.15743 6.21933 3.02612 6.18222 2.90606C6.15518 2.81857 6.11042 2.73417 6.04036 2.67517C6.00695 2.64705 5.96782 2.62502 5.92532 2.61486C5.88281 2.60469 5.83675 2.60712 5.79701 2.62517C5.75286 2.64522 5.71865 2.68342 5.69625 2.72639C5.67385 2.76936 5.66237 2.8173 5.65445 2.8651L5.65455 2.86519Z" fill="#020204"/>
<g filter="url(#filter8_f_312_577)">
<path d="M5.87604 2.78882C5.88738 2.81854 5.92543 2.82931 5.94633 2.85326C5.96662 2.87655 5.9879 2.90059 5.99905 2.92941C6.02037 2.98452 5.97796 3.06625 6.02248 3.10515C6.03645 3.11733 6.06443 3.11761 6.07816 3.10515C6.13181 3.05632 6.11986 2.95781 6.09868 2.88841C6.07947 2.82542 6.03181 2.76582 5.97309 2.73587C5.94591 2.72205 5.90514 2.71056 5.8819 2.73025C5.8669 2.7429 5.86906 2.77055 5.87604 2.78882Z" fill="url(#paint7_linear_312_577)"/>
</g>
<path d="M5.45675 4.17239C5.45956 4.18621 5.46486 4.19957 5.47207 4.21175C5.48454 4.23261 5.50272 4.24952 5.52236 4.26377C5.54199 4.27802 5.56327 4.29001 5.58384 4.3029C5.69322 4.37165 5.7823 4.46832 5.8615 4.57034C5.96774 4.70728 6.0617 4.85925 6.20359 4.95883C6.30379 5.02913 6.42366 5.06919 6.54541 5.08142C6.68834 5.09581 6.83314 5.07271 6.97101 5.03213C7.09876 4.9945 7.22234 4.94168 7.3357 4.87186C7.55126 4.73895 7.73121 4.54415 7.96834 4.4568C8.02021 4.43772 8.07425 4.42409 8.1242 4.40056C8.17416 4.37704 8.22121 4.3418 8.24511 4.29193C8.26854 4.24404 8.26713 4.18874 8.27463 4.13612C8.2826 4.07988 8.30059 4.02543 8.31043 3.96947C8.32027 3.91352 8.32145 3.85363 8.29731 3.80218C8.27725 3.75953 8.24084 3.72588 8.1989 3.70447C8.15696 3.68305 8.10986 3.67335 8.06281 3.67101C7.96881 3.66632 7.87593 3.69046 7.7822 3.69903C7.65802 3.71037 7.53299 3.69444 7.40838 3.69809C7.25336 3.70278 7.10059 3.73769 6.94566 3.74519C6.7689 3.75377 6.59255 3.72645 6.41574 3.71942C6.33917 3.71632 6.26203 3.71707 6.18649 3.72996C6.11095 3.74285 6.03676 3.76858 5.97373 3.81211C5.91235 3.85457 5.86333 3.9124 5.8069 3.96132C5.77869 3.98578 5.74833 4.00818 5.71477 4.02444C5.68122 4.04071 5.64415 4.05087 5.6068 4.05008C5.58806 4.04961 5.56791 4.04647 5.54963 4.05228C5.5382 4.05589 5.52807 4.06292 5.51945 4.07131C5.51083 4.0797 5.50375 4.08944 5.49705 4.09942C5.48147 4.12257 5.46787 4.14699 5.45642 4.17244L5.45675 4.17239Z" fill="url(#paint8_radial_312_577)"/>
<g filter="url(#filter9_f_312_577)">
<path d="M6.15007 4.3625C6.13255 4.43813 6.14367 4.51756 6.18128 4.58547C6.21889 4.65339 6.28033 4.70496 6.35373 4.73023C6.44643 4.76116 6.55088 4.74597 6.63748 4.7008C6.68763 4.67456 6.73355 4.63772 6.76261 4.58908C6.7773 4.56476 6.78695 4.53773 6.79096 4.5096C6.79471 4.48148 6.79213 4.45243 6.78229 4.42595C6.77151 4.3969 6.7523 4.37122 6.72858 4.35116C6.70487 4.3311 6.6768 4.31657 6.64737 4.30683C6.58842 4.28733 6.52506 4.28696 6.46301 4.28996C6.369 4.29447 6.27548 4.30627 6.18329 4.32524" fill="#D9B30D"/>
</g>
<g filter="url(#filter10_f_312_577)">
<path d="M5.84599 3.78185L5.66332 3.90196C5.63253 3.9238 5.60081 3.94742 5.58459 3.98144C5.57306 4.00558 5.57044 4.03299 5.57053 4.0597C5.57063 4.08641 5.57194 4.11331 5.56838 4.13937C5.56603 4.15746 5.56116 4.17526 5.56032 4.19349C5.55985 4.20263 5.56055 4.21177 5.56294 4.22067C5.56523 4.22956 5.56965 4.23775 5.57583 4.24453C5.58394 4.2531 5.59495 4.2584 5.60629 4.26187C5.61763 4.26533 5.62925 4.26702 5.64078 4.26983C5.69584 4.28277 5.74374 4.31655 5.78577 4.35437L5.90949 4.4704C6.02838 4.56713 6.18598 4.60724 6.33875 4.60972C6.49152 4.61221 6.64354 4.5802 6.79308 4.54646L7.14103 4.45067C7.31456 4.38671 7.47563 4.28984 7.61518 4.16847C7.67845 4.11345 7.73782 4.053 7.80887 4.00843C7.87166 3.96898 7.9421 3.94292 8.00597 3.9052C8.01169 3.90182 8.01736 3.89835 8.02247 3.89409C8.02757 3.88983 8.03212 3.88481 8.03512 3.87886C8.04027 3.86855 8.04027 3.85637 8.03699 3.84531C8.03371 3.83425 8.02734 3.8245 8.02012 3.8156C8.01216 3.80575 8.00311 3.79676 7.99341 3.78851C7.92668 3.73134 7.83609 3.71062 7.74851 3.70369C7.66092 3.69675 7.57231 3.70167 7.48608 3.68719C7.40454 3.67313 7.32707 3.64314 7.24839 3.61798C7.16585 3.59128 7.08144 3.57076 6.99585 3.55659C6.79458 3.52378 6.58735 3.53006 6.38772 3.57158C6.19755 3.61118 6.01423 3.68265 5.84693 3.78153L5.84599 3.78185Z" fill="#604405"/>
</g>
<path d="M5.82592 3.56912C5.73548 3.63004 5.65412 3.70423 5.58524 3.78867C5.54587 3.83694 5.51007 3.88943 5.49025 3.94857C5.47464 3.99505 5.46935 4.04426 5.4595 4.09229C5.45576 4.11029 5.45154 4.12838 5.45154 4.14665C5.45158 4.15584 5.45276 4.16507 5.45557 4.17383C5.45838 4.1826 5.46297 4.1908 5.46935 4.19741C5.47989 4.20837 5.49465 4.21428 5.50955 4.21737C5.52446 4.22046 5.53973 4.22088 5.55482 4.22262C5.62301 4.23035 5.68576 4.26348 5.74227 4.30238L5.90882 4.42319C6.03694 4.50426 6.18976 4.54025 6.34122 4.54611C6.49268 4.55197 6.64381 4.52896 6.7925 4.49925C6.9106 4.47567 7.02841 4.4477 7.14046 4.40346C7.31207 4.33579 7.46681 4.23162 7.61461 4.12125C7.68176 4.07111 7.74798 4.01942 7.80829 3.96122C7.82877 3.94144 7.84859 3.92092 7.87053 3.90283C7.89246 3.88474 7.91683 3.86899 7.94391 3.86028C7.98515 3.84702 8.02995 3.85081 8.07269 3.85793C8.10488 3.86332 8.13717 3.87059 8.16979 3.86918C8.1861 3.86853 8.20245 3.86571 8.21759 3.85962C8.23273 3.85353 8.24674 3.84416 8.25709 3.8315C8.27061 3.81459 8.27792 3.79355 8.27781 3.7719C8.2779 3.75043 8.27125 3.72925 8.26047 3.71074C8.23868 3.67372 8.20105 3.64874 8.16182 3.63131C8.10812 3.60741 8.05001 3.59569 7.99284 3.58182C7.81734 3.53946 7.64676 3.47685 7.48504 3.39653C7.40462 3.3566 7.32645 3.31236 7.24735 3.27C7.166 3.22642 7.0831 3.18452 6.99476 3.15776C6.79733 3.09792 6.58144 3.11756 6.38663 3.18523C6.17013 3.26039 5.97438 3.39437 5.82587 3.56893L5.82592 3.56912Z" fill="url(#paint9_linear_312_577)"/>
<g filter="url(#filter11_f_312_577)">
<path d="M7.21395 3.61261C7.20336 3.59921 7.18818 3.58975 7.17178 3.58497C7.15538 3.58019 7.1378 3.58028 7.12098 3.58262C7.08724 3.58839 7.05706 3.60605 7.02885 3.62597C6.94871 3.68108 6.87795 3.74912 6.81623 3.8242C6.73446 3.92355 6.66698 4.03845 6.64434 4.16512C6.64059 4.18644 6.63802 4.20823 6.64069 4.22979C6.64336 4.25135 6.65161 4.27267 6.66693 4.28804C6.68033 4.30154 6.69861 4.30978 6.71745 4.3125C6.73629 4.31522 6.75569 4.3126 6.77368 4.3065C6.80977 4.29432 6.83976 4.26901 6.86806 4.24371C7.0244 4.10382 7.16578 3.93592 7.22234 3.73385C7.22796 3.71356 7.23284 3.6928 7.23265 3.67175C7.23246 3.65071 7.22703 3.62911 7.214 3.61261H7.21395Z" fill="#F6DA4A"/>
</g>
<g opacity="0.8" filter="url(#filter12_f_312_577)">
<path d="M6.83776 3.32374C6.84854 3.35851 6.90468 3.3528 6.93711 3.36943C6.96555 3.38405 6.98838 3.41615 7.02038 3.41709C7.05084 3.41803 7.09836 3.40655 7.10239 3.37632C7.10764 3.33635 7.04925 3.31095 7.01171 3.29628C6.96345 3.27744 6.90145 3.26788 6.85613 3.29309C6.84573 3.29886 6.83439 3.3124 6.83795 3.32379L6.83776 3.32374Z" fill="url(#paint10_radial_312_577)"/>
</g>
<g opacity="0.8" filter="url(#filter13_f_312_577)">
<path d="M6.30541 3.30146C6.2638 3.28787 6.19496 3.3613 6.2174 3.39893C6.22359 3.40924 6.24248 3.42236 6.25518 3.41534C6.27439 3.40479 6.29004 3.36707 6.3108 3.35231C6.32467 3.34246 6.32158 3.30676 6.30537 3.30151L6.30541 3.30146Z" fill="url(#paint11_radial_312_577)"/>
</g>
<g filter="url(#filter14_f_312_577)">
<path d="M8.13852 4.0163C8.21247 4.0163 8.28074 3.94215 8.29099 3.85068C8.30124 3.75921 8.2496 3.68506 8.17565 3.68506C8.1017 3.68506 8.03344 3.75921 8.02318 3.85068C8.01293 3.94215 8.06457 4.0163 8.13852 4.0163Z" fill="url(#paint12_linear_312_577)"/>
</g>
<path d="M5.67429 2.50867C5.80011 2.43369 5.95335 2.41635 6.09919 2.43013C6.24503 2.44391 6.38622 2.48674 6.52751 2.52526C6.63117 2.55347 6.73614 2.57962 6.83329 2.62545C6.93043 2.67128 7.02074 2.73867 7.07426 2.83179L7.09956 2.87687C7.10865 2.89149 7.11938 2.90546 7.13311 2.91577C7.14685 2.92608 7.1639 2.93282 7.1811 2.93189C7.18972 2.93142 7.19825 2.92908 7.20566 2.92467C7.21306 2.92026 7.21939 2.91389 7.22337 2.9063C7.22796 2.89754 7.22937 2.88737 7.22885 2.87743C7.22808 2.86755 7.22624 2.85777 7.22337 2.84828C7.18799 2.71927 7.10458 2.60985 7.04108 2.49213L6.93339 2.27675C6.80133 2.03494 6.58454 1.84487 6.33823 1.72157C6.09193 1.59828 5.8168 1.539 5.54172 1.52288C5.22305 1.50422 4.90345 1.54209 4.589 1.59739C4.45263 1.62138 4.31439 1.64964 4.19367 1.71745C4.13336 1.75133 4.07806 1.7951 4.0349 1.84913C3.99174 1.90316 3.96105 1.96793 3.95111 2.03644C3.94155 2.10252 3.95158 2.17047 3.97454 2.23307C3.99751 2.29568 4.0335 2.35295 4.07563 2.40468C4.15984 2.50816 4.26776 2.58904 4.3672 2.67789C4.46665 2.76674 4.55934 2.86497 4.67007 2.93859C4.72565 2.97537 4.78597 3.00584 4.85017 3.02374C4.91437 3.04164 4.98279 3.0467 5.04811 3.0333C5.11583 3.01943 5.17853 2.9862 5.23341 2.94416C5.28828 2.90213 5.33585 2.85138 5.38093 2.79898C5.47114 2.6942 5.5554 2.57939 5.67415 2.50863L5.67429 2.50867Z" fill="url(#paint13_radial_312_577)"/>
<path d="M10.1147 7.00358C10.3999 7.23297 10.5808 7.57933 10.6368 7.94097C10.6805 8.22308 10.6521 8.51246 10.5885 8.79068C10.525 9.0689 10.4267 9.33784 10.3293 9.60608C10.2904 9.71307 10.2514 9.82104 10.2359 9.93379C10.2204 10.0465 10.2303 10.1659 10.2847 10.266C10.347 10.3806 10.4633 10.4595 10.5884 10.4967C10.7119 10.5334 10.8452 10.5326 10.9702 10.5014C11.0953 10.4703 11.2119 10.4094 11.3137 10.3304C11.5721 10.1297 11.7281 9.81725 11.7885 9.49568C11.8488 9.17411 11.8211 8.84195 11.765 8.51953C11.6885 8.07996 11.5597 7.65024 11.3958 7.23513C11.2752 6.92982 11.1341 6.62967 10.937 6.36724C10.744 6.11043 10.5008 5.89426 10.3118 5.63455C10.1805 5.45412 10.0753 5.25262 9.91791 5.09441C9.83918 5.01531 9.74733 4.94764 9.64329 4.90719C9.53926 4.86675 9.42243 4.8549 9.31502 4.88517C9.1735 4.925 9.05728 5.03653 8.99622 5.17019C8.93516 5.30384 8.92391 5.45712 8.94786 5.60226C8.97878 5.78947 9.06436 5.96324 9.16089 6.12665C9.26994 6.31114 9.39623 6.48875 9.56091 6.62592C9.73275 6.76908 9.94059 6.86351 10.1148 7.00363L10.1147 7.00358Z" fill="#020204"/>
<g filter="url(#filter15_f_312_577)">
<path d="M9.44299 6.56055L9.51456 6.62498C9.68951 6.76815 9.78268 6.92888 9.96007 7.0691C10.2504 7.29849 10.545 7.69443 10.6019 8.05602C10.6464 8.33813 10.5876 8.49137 10.5158 8.824C10.444 9.15663 10.2405 9.6276 10.1306 9.94832C10.0867 10.0763 10.2194 10.0234 10.202 10.1583C10.1933 10.2245 10.1927 10.2915 10.2003 10.3579L10.2037 10.3193C10.2248 10.1355 10.2811 9.95873 10.3425 9.78534C10.4605 9.45158 10.596 9.12458 10.6894 8.78211C10.7829 8.43964 10.7725 8.19333 10.7238 7.89903C10.6625 7.529 10.4472 7.18733 10.1424 6.96178C9.92672 6.80231 9.67257 6.70006 9.44314 6.56055H9.44299Z" fill="#838384"/>
</g>
<g opacity="0.25" filter="url(#filter16_f_312_577)">
<path d="M4.99765 6.3533C5.04525 6.42472 4.96806 6.67094 6.07757 6.51334C6.07757 6.51334 5.88272 6.53476 5.69064 6.57913C5.39204 6.67909 5.13185 6.79081 4.93117 6.9388C4.73232 7.08511 4.58675 7.27607 4.4043 7.44009C4.4043 7.44009 4.69976 6.90024 4.77338 6.73776C4.847 6.57529 4.76104 6.58312 4.81936 6.34346C4.87767 6.10381 5.0202 5.87451 5.0202 5.87451C5.0202 5.87451 4.9038 6.21239 4.99765 6.35326V6.3533Z" fill="url(#paint14_radial_312_577)"/>
</g>
<g opacity="0.42" filter="url(#filter17_f_312_577)">
<path d="M8.5655 6.28888C8.33939 6.44634 8.20691 6.42774 7.93253 6.45852C7.65815 6.48931 6.91571 6.47821 6.91571 6.47821C6.91571 6.47821 7.02321 6.47619 7.26146 6.52057C7.49971 6.56495 7.98563 6.60736 8.25925 6.71154C8.53288 6.81571 8.63265 6.84542 8.79897 6.95053C9.03562 7.10021 9.20939 7.33466 9.43569 7.49868C9.43569 7.49868 9.44665 7.28105 9.35527 7.11854C9.26389 6.95602 9.01786 6.69982 8.94607 6.46059C8.87428 6.22135 8.8395 5.75146 8.8395 5.75146C8.8395 5.75146 8.7917 6.13128 8.56555 6.28879L8.5655 6.28888Z" fill="url(#paint15_radial_312_577)"/>
</g>
<g opacity="0.2" filter="url(#filter18_f_312_577)">
<path d="M6.43783 5.95457L6.40517 6.15814C6.39861 6.19141 6.39134 6.22469 6.37892 6.25622C6.36651 6.28776 6.34875 6.31771 6.32363 6.34039C6.3016 6.36026 6.2747 6.37394 6.24771 6.38631C6.14236 6.43458 6.02961 6.46659 5.91461 6.48097L6.05215 6.49353C6.08097 6.49667 6.10989 6.50019 6.138 6.50741C6.16612 6.51462 6.19354 6.52615 6.21692 6.54279C6.2426 6.56153 6.26275 6.58721 6.27784 6.61524C6.30783 6.6711 6.31786 6.73534 6.32344 6.798C6.33047 6.87874 6.33103 6.96014 6.32499 7.04093C6.33042 6.98685 6.34176 6.93334 6.35873 6.8817C6.38933 6.78863 6.43858 6.70137 6.50494 6.62929C6.53127 6.60071 6.56024 6.57447 6.5921 6.55207C6.69087 6.48318 6.81183 6.45375 6.9312 6.46954C6.81013 6.47447 6.69107 6.43752 6.59407 6.3649C6.54524 6.32811 6.50269 6.28228 6.47316 6.22876C6.42731 6.14489 6.41475 6.04682 6.43797 5.9541L6.43783 5.95457Z" fill="url(#paint16_radial_312_577)"/>
</g>
<g opacity="0.1" filter="url(#filter19_f_312_577)">
<path d="M6.14803 7.54785C6.09038 7.76727 6.05079 7.99103 6.02966 8.2169C5.9998 8.53613 6.00697 8.85761 5.98982 9.17782C5.97576 9.44953 5.94343 9.72404 5.99057 9.992C6.01307 10.1198 6.05351 10.2444 6.11031 10.361C6.11932 10.3165 6.12592 10.2715 6.13008 10.2263C6.15009 10.009 6.11349 9.79106 6.10112 9.57324C6.07947 9.19145 6.13233 8.80939 6.15384 8.42802C6.17036 8.13481 6.16841 7.84086 6.14798 7.5479L6.14803 7.54785Z" fill="black"/>
</g>
<g filter="url(#filter20_f_312_577)">
<path d="M8.7828 4.25733C8.68148 4.34965 8.83032 4.48827 8.90089 4.65116C8.94475 4.75238 9.06617 4.89508 9.18356 4.87226C9.2719 4.85506 9.32668 4.72792 9.31834 4.63842C9.30222 4.46549 9.15634 4.42505 9.05043 4.36568C8.96654 4.31863 8.85393 4.19257 8.78284 4.25742L8.7828 4.25733Z" fill="#838384"/>
</g>
<g opacity="0.2" filter="url(#filter21_f_312_577)">
<path d="M12.0329 11.8158C12.0106 11.8891 11.9774 11.9587 11.9343 12.0226C11.839 12.1637 11.7007 12.27 11.5624 12.3679C11.3266 12.535 11.0811 12.6884 10.8616 12.8787C10.7146 13.006 10.5806 13.1487 10.4563 13.2989C10.35 13.4273 10.2501 13.5622 10.1291 13.6764C10.0068 13.7917 9.86295 13.8848 9.7079 13.9356C9.51936 13.9973 9.32013 13.9943 9.13852 13.9478C9.01124 13.9151 8.88713 13.8584 8.80831 13.7558C8.72915 13.6528 8.7035 13.5143 8.69435 13.3784C8.67814 13.138 8.70687 12.8925 8.733 12.6485C8.75475 12.4458 8.77477 12.2429 8.78304 12.0406C8.79748 11.6727 8.77356 11.3079 8.72376 10.95C8.71543 10.89 8.70634 10.8297 8.71139 10.7679C8.71644 10.7061 8.73713 10.6419 8.78049 10.5943C8.82053 10.5502 8.8764 10.5242 8.93208 10.5113C8.98775 10.4985 9.0442 10.4973 9.10017 10.4963C9.23202 10.4928 9.36465 10.4851 9.49453 10.4966C9.57648 10.5039 9.65685 10.5189 9.73865 10.5268C9.87522 10.5399 10.0168 10.533 10.1538 10.4928C10.3013 10.4496 10.4419 10.3685 10.5917 10.3463C10.6532 10.3371 10.7149 10.3382 10.7746 10.3466C10.8356 10.3551 10.8962 10.372 10.9431 10.4092C10.9787 10.4375 11.0048 10.4763 11.0252 10.5178C11.0555 10.5795 11.0743 10.6476 11.0849 10.7174C11.0944 10.7792 11.0977 10.843 11.1136 10.9028C11.1399 11.0012 11.1993 11.0849 11.2709 11.1531C11.3424 11.2212 11.4261 11.275 11.5096 11.3281C11.5928 11.3809 11.6764 11.4334 11.7653 11.4769C11.807 11.4973 11.8499 11.5158 11.8898 11.5394C11.9296 11.5629 11.9668 11.5918 11.9932 11.63C12.0291 11.6818 12.0436 11.7497 12.0328 11.8163" fill="url(#paint17_linear_312_577)"/>
</g>
<path d="M12.9686 11.9919C12.9372 12.0725 12.8924 12.1478 12.8367 12.2139C12.7137 12.3599 12.5429 12.4562 12.3729 12.5429C12.0829 12.6907 11.7824 12.8204 11.5097 12.9982C11.3271 13.1174 11.1584 13.2572 11.0008 13.4079C10.866 13.5368 10.7381 13.6744 10.5869 13.7836C10.4343 13.8938 10.2579 13.9736 10.0719 14.0016C9.84555 14.0355 9.6117 13.9916 9.40176 13.9001C9.25471 13.8361 9.11327 13.7444 9.02859 13.6082C8.94359 13.4714 8.92419 13.3041 8.92395 13.1431C8.92358 12.8583 8.97634 12.5761 9.02602 12.2962C9.06726 12.0632 9.10662 11.8297 9.13193 11.5944C9.17799 11.1666 9.17766 10.7344 9.14692 10.3051C9.14224 10.2332 9.13577 10.1606 9.14655 10.0893C9.15733 10.0181 9.18662 9.94702 9.24121 9.90001C9.29168 9.85657 9.3593 9.8374 9.42585 9.83375C9.49239 9.83009 9.55866 9.84064 9.62454 9.85024C9.7798 9.87293 9.93627 9.89078 10.088 9.93071C10.1838 9.95587 10.277 9.98975 10.3726 10.0155C10.532 10.0586 10.699 10.0793 10.8631 10.0601C11.0397 10.0395 11.2113 9.97312 11.3891 9.97743C11.462 9.97921 11.5343 9.99299 11.604 10.0149C11.675 10.0373 11.745 10.0694 11.7972 10.1225C11.8368 10.1628 11.8645 10.2136 11.8853 10.2663C11.9162 10.3448 11.9328 10.4283 11.94 10.5124C11.9463 10.5868 11.9453 10.662 11.9594 10.7354C11.9826 10.8561 12.0459 10.9661 12.1247 11.0604C12.2035 11.1547 12.2981 11.2347 12.3916 11.3139C12.4854 11.3926 12.5795 11.4711 12.6806 11.5401C12.7281 11.5725 12.777 11.6029 12.822 11.6385C12.867 11.6741 12.9085 11.7157 12.9366 11.7657C12.9748 11.8337 12.9865 11.9161 12.9686 11.9919L12.9686 11.9919Z" fill="url(#paint18_linear_312_577)"/>
<g filter="url(#filter22_f_312_577)">
<path d="M12.8222 11.8458C12.7932 11.9185 12.7525 11.9859 12.7018 12.0454C12.5892 12.1773 12.4332 12.2635 12.2782 12.3411C12.0133 12.4738 11.7392 12.5904 11.49 12.7505C11.3234 12.8575 11.1694 12.9832 11.0252 13.1188C10.902 13.2347 10.785 13.3586 10.6472 13.4566C10.5076 13.556 10.3465 13.6275 10.1769 13.6525C9.97019 13.683 9.75697 13.6434 9.56493 13.5613C9.43104 13.504 9.3017 13.4221 9.22414 13.2989C9.14701 13.1762 9.12901 13.0257 9.12855 12.8808C9.12794 12.6247 9.17625 12.3714 9.2218 12.1193C9.25962 11.9099 9.29561 11.7 9.31853 11.4884C9.36023 11.1038 9.35826 10.7153 9.33221 10.3293C9.32785 10.2646 9.32284 10.1993 9.33277 10.1353C9.34271 10.0713 9.36923 10.0075 9.41834 9.96517C9.46441 9.92548 9.52627 9.9081 9.58705 9.90491C9.64783 9.90172 9.70828 9.91156 9.7684 9.92037C9.91007 9.94123 10.053 9.95693 10.1916 9.99268C10.279 10.0153 10.3642 10.0457 10.4514 10.069C10.5972 10.1079 10.7496 10.1264 10.8994 10.1091C11.0606 10.0905 11.2175 10.0308 11.3798 10.0347C11.4463 10.0364 11.5124 10.0488 11.5761 10.0685C11.6409 10.0884 11.705 10.1169 11.7526 10.1651C11.7885 10.2015 11.8132 10.2473 11.833 10.2945C11.8623 10.3646 11.8814 10.4396 11.8829 10.5157C11.8846 10.5951 11.8672 10.6748 11.878 10.7534C11.8867 10.8173 11.9137 10.8775 11.9483 10.9319C11.9828 10.9864 12.0248 11.0355 12.0665 11.0847C12.147 11.1798 12.2277 11.2767 12.3286 11.3497C12.4435 11.4329 12.5799 11.4814 12.6986 11.5591C12.7339 11.5822 12.7682 11.6084 12.7931 11.6425C12.8139 11.6715 12.8275 11.7052 12.8326 11.7406C12.8376 11.776 12.8342 11.8121 12.8224 11.8458H12.8222Z" fill="#CD8907"/>
</g>
<g filter="url(#filter23_f_312_577)">
<path d="M12.8045 11.7618C12.7723 11.8348 12.7305 11.9029 12.6808 11.9633C12.5655 12.1036 12.4097 12.2001 12.2457 12.262C11.9756 12.3641 11.6808 12.3777 11.4157 12.4939C11.2542 12.5647 11.1088 12.6714 10.9615 12.7723C10.8425 12.8537 10.7209 12.9322 10.5902 12.9892C10.4427 13.0536 10.2857 13.0897 10.1282 13.1151C10.028 13.1312 9.92665 13.143 9.82547 13.1374C9.72429 13.1318 9.62279 13.1081 9.53356 13.0566C9.46585 13.0174 9.40501 12.9611 9.3688 12.8881C9.32863 12.8069 9.32166 12.7116 9.32263 12.6195C9.32509 12.3743 9.37758 12.1318 9.37597 11.8866C9.37458 11.6731 9.33232 11.4624 9.32016 11.2494C9.29676 10.8397 9.38471 10.4228 9.30731 10.0209C9.29499 9.95657 9.27828 9.89229 9.27908 9.82658C9.27951 9.79366 9.28444 9.76074 9.29595 9.73031C9.30747 9.69987 9.32611 9.67227 9.35085 9.65304C9.37174 9.63687 9.39638 9.62705 9.42172 9.62261C9.44705 9.61816 9.47298 9.61903 9.49842 9.62301C9.5492 9.63092 9.59762 9.65085 9.64705 9.66557C9.78857 9.70773 9.93806 9.7068 10.0818 9.73862C10.1721 9.7586 10.2595 9.79118 10.3488 9.81566C10.4987 9.85609 10.6552 9.87416 10.809 9.85608C10.9745 9.83674 11.1361 9.77668 11.3025 9.78101C11.3706 9.78274 11.4383 9.79545 11.5041 9.81508C11.5699 9.83472 11.6356 9.86244 11.6854 9.91268C11.7213 9.94894 11.747 9.99526 11.768 10.0432C11.7985 10.1132 11.8198 10.1893 11.8193 10.2666C11.819 10.3068 11.8128 10.3467 11.8093 10.3867C11.8057 10.4266 11.8045 10.4678 11.8141 10.5066C11.8236 10.5455 11.8438 10.5809 11.8667 10.6129C11.8897 10.6448 11.9157 10.6741 11.9395 10.7054C12.006 10.793 12.0536 10.8951 12.1054 10.9936C12.1571 11.092 12.2153 11.1895 12.2971 11.2604C12.4085 11.3569 12.553 11.3955 12.6772 11.4717C12.7136 11.4941 12.7488 11.5202 12.7743 11.556C12.7948 11.5848 12.8083 11.6187 12.8136 11.6546C12.8188 11.6905 12.8157 11.7272 12.8044 11.7614L12.8045 11.7618Z" fill="#F5C021"/>
</g>
<g filter="url(#filter24_f_312_577)">
<path d="M9.28052 10.0589C9.43404 10.0173 9.56479 10.1337 9.67613 10.2216C9.74807 10.283 9.85201 10.2675 9.94029 10.2704C10.0865 10.2651 10.232 10.295 10.3783 10.2768C10.6663 10.2524 10.9485 10.1817 11.2379 10.169C11.3761 10.1603 11.5312 10.1523 11.6506 10.233C11.699 10.2666 11.77 10.4083 11.8177 10.3551C11.7981 10.2061 11.6876 10.0619 11.5394 10.0223C11.4234 10.004 11.3051 10.0359 11.1884 10.0255C10.8405 10.0172 10.4951 9.95267 10.1464 9.97118C9.90388 9.97329 9.66156 9.96204 9.41937 9.95258C9.32424 9.93313 9.29064 10.0177 9.23895 10.0501" fill="url(#paint19_linear_312_577)"/>
</g>
<g opacity="0.75" filter="url(#filter25_f_312_577)">
<path d="M9.9669 7.22657C10.0225 7.21797 10.366 7.50999 10.3191 7.61894C10.2721 7.7279 10.1839 7.66203 10.1208 7.66276C10.0577 7.66349 9.88504 7.74186 9.85612 7.69241C9.8272 7.64297 9.93248 7.52746 9.98758 7.43096C10.0319 7.35323 9.91123 7.23573 9.96691 7.22712L9.9669 7.22657Z" fill="#7C7C7C"/>
</g>
<g opacity="0.25" filter="url(#filter26_f_312_577)">
<path d="M5.12023 5.3903C5.11467 5.32302 5.0186 5.31296 4.97575 5.34649C4.93957 5.37486 4.90564 5.47165 4.93685 5.50954C4.98759 5.57092 5.1278 5.4826 5.12022 5.39039L5.12023 5.3903Z" fill="#7C7C7C"/>
</g>
<g opacity="0.35" filter="url(#filter27_f_312_577)">
<path d="M11.3488 10.2933C11.3224 10.2416 11.2744 10.203 11.2208 10.1807C11.1673 10.1583 11.1085 10.1512 11.0505 10.1516C10.9345 10.1526 10.8193 10.1827 10.7037 10.1727C10.6061 10.1643 10.5135 10.1276 10.4179 10.1044C10.3196 10.081 10.2153 10.0716 10.1177 10.0977C10.0134 10.1261 9.92138 10.1959 9.86374 10.2873C9.81294 10.3679 9.78876 10.4632 9.78126 10.5582C9.77376 10.6531 9.78187 10.7487 9.79148 10.8435C9.79841 10.9122 9.80619 10.9809 9.82278 11.0479C9.83937 11.1149 9.86514 11.1802 9.90554 11.236C9.96365 11.3164 10.05 11.3738 10.1431 11.4082C10.297 11.4645 10.4662 11.4615 10.6179 11.3999C10.8832 11.2848 11.1077 11.0783 11.2445 10.8235C11.2935 10.7323 11.3315 10.6352 11.3561 10.5346C11.3659 10.4947 11.3735 10.4539 11.3739 10.4128C11.3743 10.3716 11.367 10.3298 11.3483 10.2933H11.3488Z" fill="url(#paint20_radial_312_577)"/>
</g>
<g opacity="0.35" filter="url(#filter28_f_312_577)">
<path d="M11.3488 10.2396C11.3224 10.2023 11.2744 10.1744 11.2208 10.1582C11.1673 10.1421 11.1085 10.1369 11.0505 10.1372C10.9345 10.1379 10.8193 10.1597 10.7037 10.1525C10.6061 10.1464 10.5135 10.1198 10.4179 10.1031C10.3196 10.0862 10.2153 10.0794 10.1177 10.0983C10.0134 10.1188 9.92138 10.1692 9.86374 10.2353C9.81294 10.2936 9.78876 10.3624 9.78126 10.4311C9.77376 10.4998 9.78187 10.5689 9.79148 10.6374C9.79841 10.687 9.80619 10.7367 9.82278 10.7851C9.83937 10.8336 9.86514 10.8808 9.90554 10.9212C9.96365 10.9793 10.05 11.0208 10.1431 11.0457C10.297 11.0863 10.4662 11.0842 10.6179 11.0397C10.8832 10.9564 11.1077 10.8071 11.2445 10.623C11.2935 10.557 11.3315 10.4868 11.3561 10.4141C11.3659 10.3852 11.3735 10.3558 11.3739 10.326C11.3743 10.2963 11.367 10.2661 11.3483 10.2396H11.3488Z" fill="url(#paint21_radial_312_577)"/>
</g>
<path d="M11.5682 9.80761C11.5493 9.75587 11.5159 9.71004 11.475 9.67312C11.4341 9.63619 11.386 9.60788 11.3352 9.58633C11.2337 9.54321 11.1234 9.52728 11.015 9.50685L10.7091 9.447C10.6027 9.42892 10.4927 9.41739 10.3874 9.44115C10.2953 9.46191 10.2101 9.50957 10.1404 9.5733C10.0706 9.63703 10.0162 9.71651 9.97703 9.80292C9.90805 9.95429 9.88636 10.1246 9.89952 10.2904C9.90937 10.4138 9.94053 10.541 10.0218 10.6344C10.0874 10.7099 10.1806 10.757 10.2765 10.7853C10.4417 10.8342 10.6217 10.8316 10.7854 10.778C11.0576 10.686 11.2931 10.5089 11.4569 10.2729C11.5104 10.1956 11.5559 10.1113 11.5766 10.0197C11.5923 9.94942 11.5929 9.87537 11.5682 9.80813V9.80761Z" fill="#020204"/>
<g filter="url(#filter29_f_312_577)">
<path d="M10.4457 9.39337C10.4201 9.39477 10.3947 9.39771 10.3695 9.40218C10.2069 9.4311 10.058 9.53387 9.97414 9.67605C9.91494 9.77741 9.88789 9.89434 9.89654 10.0114C9.89996 9.92976 9.92137 9.84986 9.96097 9.77849C10.0282 9.65749 10.1499 9.5662 10.2861 9.54127C10.3705 9.5259 10.4563 9.53518 10.5409 9.54568C10.6222 9.5558 10.704 9.56644 10.7841 9.58378C10.9078 9.61058 11.0303 9.65173 11.1341 9.72436C11.1583 9.74123 11.181 9.76045 11.2 9.78294C11.219 9.80544 11.2338 9.83158 11.2396 9.86054C11.2479 9.90291 11.2358 9.94738 11.2147 9.98501C11.1936 10.0226 11.1648 10.0556 11.1341 10.086C11.1093 10.1107 11.0828 10.1345 11.0565 10.1577C11.1765 10.1345 11.298 10.1016 11.3977 10.0318C11.4399 10.0023 11.478 9.96692 11.5031 9.92198C11.5282 9.87704 11.5388 9.82263 11.5266 9.77263C11.5183 9.73889 11.4998 9.70787 11.4768 9.68186C11.4537 9.65585 11.4262 9.63443 11.3977 9.61452C11.2721 9.52656 11.1252 9.47018 10.9731 9.4519C10.8756 9.43396 10.7772 9.41882 10.6788 9.40645C10.6018 9.39679 10.5232 9.38897 10.4459 9.39333L10.4457 9.39337Z" fill="url(#paint22_radial_312_577)"/>
</g>
<g filter="url(#filter30_f_312_577)">
<path d="M10.4457 9.39337C10.4201 9.39477 10.3947 9.39771 10.3695 9.40218C10.2069 9.4311 10.058 9.53387 9.97414 9.67605C9.91494 9.77741 9.88789 9.89434 9.89654 10.0114C9.89996 9.92976 9.92137 9.84986 9.96097 9.77849C10.0282 9.65749 10.1499 9.5662 10.2861 9.54127C10.3705 9.5259 10.4563 9.53518 10.5409 9.54568C10.6222 9.5558 10.704 9.56644 10.7841 9.58378C10.9078 9.61058 11.0303 9.65173 11.1341 9.72436C11.1583 9.74123 11.181 9.76045 11.2 9.78294C11.219 9.80544 11.2338 9.83158 11.2396 9.86054C11.2479 9.90291 11.2358 9.94738 11.2147 9.98501C11.1936 10.0226 11.1648 10.0556 11.1341 10.086C11.1093 10.1107 11.0828 10.1345 11.0565 10.1577C11.1765 10.1345 11.298 10.1016 11.3977 10.0318C11.4399 10.0023 11.478 9.96692 11.5031 9.92198C11.5282 9.87704 11.5388 9.82263 11.5266 9.77263C11.5183 9.73889 11.4998 9.70787 11.4768 9.68186C11.4537 9.65585 11.4262 9.63443 11.3977 9.61452C11.2721 9.52656 11.1252 9.47018 10.9731 9.4519C10.8756 9.43396 10.7772 9.41882 10.6788 9.40645C10.6018 9.39679 10.5232 9.38897 10.4459 9.39333L10.4457 9.39337Z" fill="url(#paint23_linear_312_577)"/>
</g>
<path d="M5.1171 5.08154L4.3241 6.07437C4.15853 6.27963 3.98903 6.48648 3.88125 6.72716C3.78865 6.93397 3.74488 7.15862 3.68138 7.37621C3.6093 7.62326 3.51146 7.86217 3.40161 8.09489C3.30015 8.30975 3.18839 8.5196 3.07639 8.72922C2.99494 8.88171 2.91213 9.03757 2.88388 9.20815C2.86157 9.34293 2.8745 9.48201 2.9089 9.61426C2.9433 9.7465 2.99794 9.87247 3.06064 9.99413C3.32621 10.5131 3.72468 10.9605 4.19668 11.3028C4.41084 11.4581 4.64032 11.5924 4.88096 11.7023C5.01133 11.7618 5.14873 11.815 5.29204 11.8174C5.36374 11.8187 5.43609 11.8069 5.5017 11.7781C5.56731 11.7493 5.62589 11.7029 5.66492 11.6428C5.71286 11.5688 5.72912 11.477 5.71952 11.3894C5.70991 11.3018 5.6757 11.2182 5.62987 11.1429C5.5174 10.9591 5.34096 10.8261 5.17081 10.6943C4.80341 10.4097 4.44795 10.1095 4.10787 9.79266C4.01181 9.70316 3.91583 9.61093 3.84872 9.49818C3.7834 9.38834 3.74806 9.26321 3.72416 9.13767C3.65856 8.79323 3.67543 8.43084 3.79258 8.10046C3.83842 7.97122 3.89896 7.84778 3.95745 7.72369C4.05867 7.50859 4.1546 7.28946 4.28782 7.0926C4.45362 6.8475 4.67524 6.6399 4.81034 6.37663C4.9244 6.1545 4.97061 5.90463 5.01475 5.65879L5.1171 5.08154Z" fill="#020204"/>
<g opacity="0.95" filter="url(#filter31_f_312_577)">
<path d="M4.35962 6.94742C4.25068 7.04779 4.15673 7.16328 4.08065 7.29036C3.95562 7.49937 3.88195 7.73406 3.79113 7.96003C3.72346 8.12826 3.64468 8.29711 3.63522 8.47814C3.63039 8.57111 3.64412 8.66399 3.64726 8.75706C3.6504 8.85013 3.64173 8.94685 3.59571 9.02811C3.55761 9.09606 3.49421 9.14949 3.42078 9.17545C3.52056 9.20905 3.60776 9.27222 3.67079 9.35657C3.72304 9.42686 3.75645 9.50906 3.80181 9.58385C3.83869 9.64468 3.88396 9.70101 3.93973 9.7453C3.9955 9.78958 4.06204 9.82121 4.13266 9.83026C4.18125 9.83615 4.23054 9.83149 4.27717 9.81659C4.32379 9.80169 4.36665 9.77691 4.40282 9.74394C4.31261 8.89873 4.39523 8.03547 4.64417 7.22274C4.65986 7.17143 4.67636 7.11974 4.68025 7.06622C4.68414 7.0127 4.67416 6.95619 4.64164 6.91354C4.6243 6.89081 4.60096 6.87277 4.57462 6.86162C4.54829 6.85046 4.51904 6.84639 4.49074 6.84981C4.46243 6.85323 4.43497 6.86415 4.41201 6.88121C4.38905 6.89826 4.37068 6.92137 4.3592 6.94752L4.35962 6.94742Z" fill="#7C7C7C"/>
</g>
<path d="M3.19997 9.60692C3.27495 9.57585 3.35921 9.57018 3.43897 9.58489C3.51873 9.59961 3.59408 9.6341 3.66124 9.67965C3.79545 9.77084 3.89499 9.90356 3.99035 10.0349C4.20929 10.3364 4.42008 10.6442 4.61105 10.9641C4.76597 11.2237 4.90834 11.4917 5.08735 11.7352C5.20423 11.8941 5.33605 12.0417 5.45349 12.2001C5.57093 12.3586 5.67506 12.5308 5.72717 12.7211C5.79484 12.9684 5.76864 13.241 5.65092 13.4687C5.56812 13.629 5.44117 13.7664 5.28671 13.8595C5.13225 13.9527 4.9507 14.0008 4.77047 13.994C4.48395 13.9833 4.22218 13.8401 3.95582 13.7339C3.41315 13.5178 2.82362 13.45 2.26422 13.2816C2.09224 13.2299 1.92325 13.1687 1.75014 13.1211C1.67329 13.1 1.59503 13.0813 1.52239 13.0484C1.44976 13.0155 1.38181 12.9664 1.34141 12.8977C1.3102 12.8445 1.29698 12.7819 1.29783 12.7203C1.29867 12.6586 1.31311 12.5977 1.3341 12.5398C1.37609 12.4238 1.4439 12.3188 1.48968 12.2044C1.56443 12.0174 1.57788 11.8113 1.5678 11.6101C1.55773 11.409 1.52516 11.2097 1.51133 11.0089C1.50524 10.9192 1.5029 10.8283 1.52 10.7401C1.53711 10.6519 1.57511 10.5655 1.63988 10.5032C1.69958 10.4457 1.77882 10.4116 1.85994 10.3946C1.94106 10.3777 2.02466 10.377 2.10756 10.3788C2.19046 10.3806 2.27346 10.3851 2.35612 10.3783C2.43879 10.3716 2.52169 10.353 2.59371 10.3119C2.66213 10.2728 2.71809 10.2146 2.76448 10.1509C2.81087 10.0873 2.84836 10.0176 2.88679 9.94878C2.92522 9.87999 2.96496 9.81138 3.01529 9.75074C3.06562 9.6901 3.12729 9.63719 3.20007 9.60701L3.19997 9.60692Z" fill="url(#paint24_linear_312_577)"/>
<g filter="url(#filter32_f_312_577)">
<path d="M3.31906 9.73606C3.38724 9.7086 3.46405 9.7056 3.5357 9.72181C3.60736 9.73803 3.67395 9.77336 3.73196 9.81774C3.84809 9.90743 3.92879 10.034 4.0063 10.1584C4.19234 10.4599 4.37417 10.7645 4.54596 11.0754C4.6761 11.3094 4.80019 11.5484 4.96009 11.7633C5.06618 11.9059 5.18723 12.0365 5.29553 12.1774C5.40383 12.3184 5.50032 12.4718 5.54826 12.6429C5.60993 12.8635 5.58495 13.1069 5.4782 13.3099C5.4009 13.4563 5.28428 13.5783 5.14144 13.662C4.99825 13.7452 4.83421 13.7857 4.66874 13.7786C4.40641 13.7665 4.16685 13.6355 3.91988 13.5466C3.44643 13.3748 2.93329 13.3518 2.44765 13.2177C2.27356 13.1704 2.10382 13.1074 1.92889 13.0633C1.85147 13.0437 1.77269 13.0278 1.69917 12.9967C1.62564 12.9657 1.55638 12.9175 1.5165 12.8484C1.48683 12.797 1.47498 12.7365 1.47681 12.6772C1.47863 12.6179 1.49368 12.56 1.5143 12.5041C1.55656 12.3932 1.62302 12.2932 1.66566 12.1819C1.73033 12.0144 1.7383 11.8302 1.7263 11.6511C1.7143 11.472 1.68319 11.2945 1.67227 11.1153C1.66739 11.0352 1.66664 10.9541 1.68286 10.8756C1.69907 10.797 1.73328 10.7209 1.79041 10.6641C1.85227 10.6027 1.93756 10.5693 2.02364 10.5562C2.10973 10.543 2.19731 10.5487 2.28396 10.5565C2.37061 10.5642 2.45759 10.574 2.54452 10.5688C2.63145 10.5636 2.7196 10.5424 2.79148 10.4934C2.85695 10.4492 2.90611 10.3845 2.9435 10.3155C2.9809 10.2464 3.00761 10.1723 3.0361 10.0991C3.0646 10.0259 3.09548 9.9528 3.14023 9.88822C3.18499 9.82364 3.24502 9.76614 3.31859 9.73662" fill="#D99A03"/>
</g>
<g filter="url(#filter33_f_312_577)">
<path d="M3.2536 9.56682C3.31968 9.53405 3.39747 9.52734 3.46992 9.54211C3.54237 9.55688 3.60947 9.59227 3.66655 9.63857C3.78066 9.73061 3.85307 9.86292 3.92055 9.99224C4.07543 10.2893 4.21967 10.5928 4.40501 10.8725C4.53951 11.075 4.69462 11.2645 4.83061 11.4664C5.01506 11.7403 5.16502 12.0415 5.22688 12.3642C5.2685 12.5812 5.26718 12.8152 5.16259 13.0111C5.0937 13.1398 4.98217 13.2458 4.85034 13.3114C4.71852 13.377 4.56715 13.4042 4.41968 13.3912C4.18752 13.3707 3.97664 13.2566 3.75812 13.177C3.37034 13.0357 2.95125 13.002 2.55217 12.8953C2.38384 12.8504 2.21944 12.7925 2.0484 12.7573C1.97313 12.7415 1.89637 12.7301 1.82453 12.703C1.75269 12.6758 1.6846 12.6309 1.64786 12.5645C1.62209 12.5177 1.61332 12.463 1.61721 12.41C1.6211 12.3569 1.6369 12.3053 1.65775 12.2562C1.69936 12.1579 1.76085 12.0679 1.79365 11.9664C1.84112 11.8172 1.82163 11.6554 1.78597 11.5031C1.7503 11.3507 1.69894 11.2012 1.68315 11.0456C1.67612 10.9764 1.67626 10.9057 1.69205 10.8378C1.70785 10.77 1.74018 10.7047 1.79093 10.656C1.85621 10.5934 1.94764 10.5622 2.03851 10.5534C2.12937 10.5447 2.2209 10.5566 2.31125 10.5695C2.4016 10.5824 2.49251 10.5971 2.58375 10.5925C2.67499 10.5879 2.76783 10.5645 2.83929 10.5086C2.90996 10.4534 2.95439 10.3711 2.97988 10.286C3.00537 10.2009 3.01362 10.112 3.02407 10.0239C3.03452 9.93582 3.0475 9.84691 3.08171 9.7648C3.11592 9.6827 3.17356 9.60704 3.25416 9.56705L3.2536 9.56682Z" fill="#F5BD0C"/>
</g>
<g filter="url(#filter34_f_312_577)">
<path d="M4.08173 10.3101C4.20385 10.5309 4.27836 10.7844 4.39945 11.0071C4.51089 11.212 4.6377 11.423 4.75092 11.6119C4.8013 11.6961 4.91883 11.8254 5.03772 12.0261C5.14541 12.2079 5.25413 12.4617 5.315 12.547C5.28004 12.4472 5.20816 12.1793 5.1224 11.9882C5.04273 11.8097 4.94901 11.7079 4.89151 11.6119C4.77829 11.423 4.6564 11.2532 4.54004 11.073C4.37954 10.8246 4.25718 10.5465 4.08173 10.3101V10.3101Z" fill="url(#paint25_linear_312_577)"/>
</g>
</g>
<defs>
<filter id="filter0_f_312_577" x="4.60203" y="3.06614" width="4.74229" height="3.51713" filterUnits="userSpaceOnUse" color-interpolation-filters="sRGB">
<feFlood flood-opacity="0" result="BackgroundImageFix"/>
<feBlend mode="normal" in="SourceGraphic" in2="BackgroundImageFix" result="shape"/>
<feGaussianBlur stdDeviation="0.436168" result="effect1_foregroundBlur_312_577"/>
</filter>
<filter id="filter1_f_312_577" x="5.06677" y="3.42437" width="3.63527" height="2.0702" filterUnits="userSpaceOnUse" color-interpolation-filters="sRGB">
<feFlood flood-opacity="0" result="BackgroundImageFix"/>
<feBlend mode="normal" in="SourceGraphic" in2="BackgroundImageFix" result="shape"/>
<feGaussianBlur stdDeviation="0.191623" result="effect1_foregroundBlur_312_577"/>
</filter>
<filter id="filter2_f_312_577" x="4.87183" y="2.49255" width="3.9917" height="2.59155" filterUnits="userSpaceOnUse" color-interpolation-filters="sRGB">
<feFlood flood-opacity="0" result="BackgroundImageFix"/>
<feBlend mode="normal" in="SourceGraphic" in2="BackgroundImageFix" result="shape"/>
<feGaussianBlur stdDeviation="0.291564" result="effect1_foregroundBlur_312_577"/>
</filter>
<filter id="filter3_f_312_577" x="6.88088" y="-0.170026" width="2.48995" height="2.44943" filterUnits="userSpaceOnUse" color-interpolation-filters="sRGB">
<feFlood flood-opacity="0" result="BackgroundImageFix"/>
<feBlend mode="normal" in="SourceGraphic" in2="BackgroundImageFix" result="shape"/>
<feGaussianBlur stdDeviation="0.429496" result="effect1_foregroundBlur_312_577"/>
</filter>
<filter id="filter4_f_312_577" x="7.51557" y="2.77222" width="0.390617" height="0.34716" filterUnits="userSpaceOnUse" color-interpolation-filters="sRGB">
<feFlood flood-opacity="0" result="BackgroundImageFix"/>
<feBlend mode="normal" in="SourceGraphic" in2="BackgroundImageFix" result="shape"/>
<feGaussianBlur stdDeviation="0.0533428" result="effect1_foregroundBlur_312_577"/>
</filter>
<filter id="filter5_f_312_577" x="7.40306" y="2.45292" width="0.771703" height="0.767003" filterUnits="userSpaceOnUse" color-interpolation-filters="sRGB">
<feFlood flood-opacity="0" result="BackgroundImageFix"/>
<feBlend mode="normal" in="SourceGraphic" in2="BackgroundImageFix" result="shape"/>
<feGaussianBlur stdDeviation="0.111184" result="effect1_foregroundBlur_312_577"/>
</filter>
<filter id="filter6_f_312_577" x="7.66163" y="1.72223" width="0.845817" height="0.790397" filterUnits="userSpaceOnUse" color-interpolation-filters="sRGB">
<feFlood flood-opacity="0" result="BackgroundImageFix"/>
<feBlend mode="normal" in="SourceGraphic" in2="BackgroundImageFix" result="shape"/>
<feGaussianBlur stdDeviation="0.0317057" result="effect1_foregroundBlur_312_577"/>
</filter>
<filter id="filter7_f_312_577" x="5.7314" y="1.8196" width="0.787863" height="0.706503" filterUnits="userSpaceOnUse" color-interpolation-filters="sRGB">
<feFlood flood-opacity="0" result="BackgroundImageFix"/>
<feBlend mode="normal" in="SourceGraphic" in2="BackgroundImageFix" result="shape"/>
<feGaussianBlur stdDeviation="0.0289208" result="effect1_foregroundBlur_312_577"/>
</filter>
<filter id="filter8_f_312_577" x="5.65087" y="2.49993" width="0.685507" height="0.834127" filterUnits="userSpaceOnUse" color-interpolation-filters="sRGB">
<feFlood flood-opacity="0" result="BackgroundImageFix"/>
<feBlend mode="normal" in="SourceGraphic" in2="BackgroundImageFix" result="shape"/>
<feGaussianBlur stdDeviation="0.109899" result="effect1_foregroundBlur_312_577"/>
</filter>
<filter id="filter9_f_312_577" x="5.75679" y="3.90339" width="1.421" height="1.22837" filterUnits="userSpaceOnUse" color-interpolation-filters="sRGB">
<feFlood flood-opacity="0" result="BackgroundImageFix"/>
<feBlend mode="normal" in="SourceGraphic" in2="BackgroundImageFix" result="shape"/>
<feGaussianBlur stdDeviation="0.192591" result="effect1_foregroundBlur_312_577"/>
</filter>
<filter id="filter10_f_312_577" x="5.23541" y="3.21087" width="3.1286" height="1.72376" filterUnits="userSpaceOnUse" color-interpolation-filters="sRGB">
<feFlood flood-opacity="0" result="BackgroundImageFix"/>
<feBlend mode="normal" in="SourceGraphic" in2="BackgroundImageFix" result="shape"/>
<feGaussianBlur stdDeviation="0.162385" result="effect1_foregroundBlur_312_577"/>
</filter>
<filter id="filter11_f_312_577" x="6.27583" y="3.2173" width="1.3206" height="1.45994" filterUnits="userSpaceOnUse" color-interpolation-filters="sRGB">
<feFlood flood-opacity="0" result="BackgroundImageFix"/>
<feBlend mode="normal" in="SourceGraphic" in2="BackgroundImageFix" result="shape"/>
<feGaussianBlur stdDeviation="0.18188" result="effect1_foregroundBlur_312_577"/>
</filter>
<filter id="filter12_f_312_577" x="6.79015" y="3.2307" width="0.359702" height="0.23342" filterUnits="userSpaceOnUse" color-interpolation-filters="sRGB">
<feFlood flood-opacity="0" result="BackgroundImageFix"/>
<feBlend mode="normal" in="SourceGraphic" in2="BackgroundImageFix" result="shape"/>
<feGaussianBlur stdDeviation="0.0235651" result="effect1_foregroundBlur_312_577"/>
</filter>
<filter id="filter13_f_312_577" x="6.16588" y="3.25267" width="0.200828" height="0.211936" filterUnits="userSpaceOnUse" color-interpolation-filters="sRGB">
<feFlood flood-opacity="0" result="BackgroundImageFix"/>
<feBlend mode="normal" in="SourceGraphic" in2="BackgroundImageFix" result="shape"/>
<feGaussianBlur stdDeviation="0.0235651" result="effect1_foregroundBlur_312_577"/>
</filter>
<filter id="filter14_f_312_577" x="7.87558" y="3.53872" width="0.563058" height="0.623727" filterUnits="userSpaceOnUse" color-interpolation-filters="sRGB">
<feFlood flood-opacity="0" result="BackgroundImageFix"/>
<feBlend mode="normal" in="SourceGraphic" in2="BackgroundImageFix" result="shape"/>
<feGaussianBlur stdDeviation="0.073168" result="effect1_foregroundBlur_312_577"/>
</filter>
<filter id="filter15_f_312_577" x="8.85851" y="5.97606" width="2.48629" height="4.96633" filterUnits="userSpaceOnUse" color-interpolation-filters="sRGB">
<feFlood flood-opacity="0" result="BackgroundImageFix"/>
<feBlend mode="normal" in="SourceGraphic" in2="BackgroundImageFix" result="shape"/>
<feGaussianBlur stdDeviation="0.292242" result="effect1_foregroundBlur_312_577"/>
</filter>
<filter id="filter16_f_312_577" x="4.10831" y="5.57852" width="2.26526" height="2.15741" filterUnits="userSpaceOnUse" color-interpolation-filters="sRGB">
<feFlood flood-opacity="0" result="BackgroundImageFix"/>
<feBlend mode="normal" in="SourceGraphic" in2="BackgroundImageFix" result="shape"/>
<feGaussianBlur stdDeviation="0.147995" result="effect1_foregroundBlur_312_577"/>
</filter>
<filter id="filter17_f_312_577" x="6.42813" y="5.26388" width="3.49555" height="2.72224" filterUnits="userSpaceOnUse" color-interpolation-filters="sRGB">
<feFlood flood-opacity="0" result="BackgroundImageFix"/>
<feBlend mode="normal" in="SourceGraphic" in2="BackgroundImageFix" result="shape"/>
<feGaussianBlur stdDeviation="0.243791" result="effect1_foregroundBlur_312_577"/>
</filter>
<filter id="filter18_f_312_577" x="5.57827" y="5.61776" width="1.68928" height="1.75959" filterUnits="userSpaceOnUse" color-interpolation-filters="sRGB">
<feFlood flood-opacity="0" result="BackgroundImageFix"/>
<feBlend mode="normal" in="SourceGraphic" in2="BackgroundImageFix" result="shape"/>
<feGaussianBlur stdDeviation="0.168169" result="effect1_foregroundBlur_312_577"/>
</filter>
<filter id="filter19_f_312_577" x="5.34633" y="6.9283" width="1.43813" height="4.05208" filterUnits="userSpaceOnUse" color-interpolation-filters="sRGB">
<feFlood flood-opacity="0" result="BackgroundImageFix"/>
<feBlend mode="normal" in="SourceGraphic" in2="BackgroundImageFix" result="shape"/>
<feGaussianBlur stdDeviation="0.309774" result="effect1_foregroundBlur_312_577"/>
</filter>
<filter id="filter20_f_312_577" x="8.3625" y="3.85322" width="1.3427" height="1.40733" filterUnits="userSpaceOnUse" color-interpolation-filters="sRGB">
<feFlood flood-opacity="0" result="BackgroundImageFix"/>
<feBlend mode="normal" in="SourceGraphic" in2="BackgroundImageFix" result="shape"/>
<feGaussianBlur stdDeviation="0.193019" result="effect1_foregroundBlur_312_577"/>
</filter>
<filter id="filter21_f_312_577" x="7.73054" y="9.38075" width="5.26481" height="5.56077" filterUnits="userSpaceOnUse" color-interpolation-filters="sRGB">
<feFlood flood-opacity="0" result="BackgroundImageFix"/>
<feBlend mode="normal" in="SourceGraphic" in2="BackgroundImageFix" result="shape"/>
<feGaussianBlur stdDeviation="0.479548" result="effect1_foregroundBlur_312_577"/>
</filter>
<filter id="filter22_f_312_577" x="7.08095" y="7.85671" width="7.80148" height="7.85348" filterUnits="userSpaceOnUse" color-interpolation-filters="sRGB">
<feFlood flood-opacity="0" result="BackgroundImageFix"/>
<feBlend mode="normal" in="SourceGraphic" in2="BackgroundImageFix" result="shape"/>
<feGaussianBlur stdDeviation="1.0238" result="effect1_foregroundBlur_312_577"/>
</filter>
<filter id="filter23_f_312_577" x="7.66561" y="8.00619" width="6.76387" height="6.74593" filterUnits="userSpaceOnUse" color-interpolation-filters="sRGB">
<feFlood flood-opacity="0" result="BackgroundImageFix"/>
<feBlend mode="normal" in="SourceGraphic" in2="BackgroundImageFix" result="shape"/>
<feGaussianBlur stdDeviation="0.806721" result="effect1_foregroundBlur_312_577"/>
</filter>
<filter id="filter24_f_312_577" x="9.03372" y="9.74448" width="2.98926" height="0.827453" filterUnits="userSpaceOnUse" color-interpolation-filters="sRGB">
<feFlood flood-opacity="0" result="BackgroundImageFix"/>
<feBlend mode="normal" in="SourceGraphic" in2="BackgroundImageFix" result="shape"/>
<feGaussianBlur stdDeviation="0.102615" result="effect1_foregroundBlur_312_577"/>
</filter>
<filter id="filter25_f_312_577" x="8.86911" y="6.24447" width="2.43647" height="2.4466" filterUnits="userSpaceOnUse" color-interpolation-filters="sRGB">
<feFlood flood-opacity="0" result="BackgroundImageFix"/>
<feBlend mode="normal" in="SourceGraphic" in2="BackgroundImageFix" result="shape"/>
<feGaussianBlur stdDeviation="0.491044" result="effect1_foregroundBlur_312_577"/>
</filter>
<filter id="filter26_f_312_577" x="4.65043" y="5.0535" width="0.744248" height="0.750413" filterUnits="userSpaceOnUse" color-interpolation-filters="sRGB">
<feFlood flood-opacity="0" result="BackgroundImageFix"/>
<feBlend mode="normal" in="SourceGraphic" in2="BackgroundImageFix" result="shape"/>
<feGaussianBlur stdDeviation="0.137066" result="effect1_foregroundBlur_312_577"/>
</filter>
<filter id="filter27_f_312_577" x="8.55979" y="8.8635" width="4.0327" height="3.80327" filterUnits="userSpaceOnUse" color-interpolation-filters="sRGB">
<feFlood flood-opacity="0" result="BackgroundImageFix"/>
<feBlend mode="normal" in="SourceGraphic" in2="BackgroundImageFix" result="shape"/>
<feGaussianBlur stdDeviation="0.609264" result="effect1_foregroundBlur_312_577"/>
</filter>
<filter id="filter28_f_312_577" x="9.30583" y="9.61442" width="2.54062" height="1.93277" filterUnits="userSpaceOnUse" color-interpolation-filters="sRGB">
<feFlood flood-opacity="0" result="BackgroundImageFix"/>
<feBlend mode="normal" in="SourceGraphic" in2="BackgroundImageFix" result="shape"/>
<feGaussianBlur stdDeviation="0.236245" result="effect1_foregroundBlur_312_577"/>
</filter>
<filter id="filter29_f_312_577" x="9.45579" y="8.95292" width="2.51505" height="1.64396" filterUnits="userSpaceOnUse" color-interpolation-filters="sRGB">
<feFlood flood-opacity="0" result="BackgroundImageFix"/>
<feBlend mode="normal" in="SourceGraphic" in2="BackgroundImageFix" result="shape"/>
<feGaussianBlur stdDeviation="0.219584" result="effect1_foregroundBlur_312_577"/>
</filter>
<filter id="filter30_f_312_577" x="9.45579" y="8.95292" width="2.51505" height="1.64396" filterUnits="userSpaceOnUse" color-interpolation-filters="sRGB">
<feFlood flood-opacity="0" result="BackgroundImageFix"/>
<feBlend mode="normal" in="SourceGraphic" in2="BackgroundImageFix" result="shape"/>
<feGaussianBlur stdDeviation="0.219584" result="effect1_foregroundBlur_312_577"/>
</filter>
<filter id="filter31_f_312_577" x="2.93576" y="6.36362" width="2.23028" height="3.95391" filterUnits="userSpaceOnUse" color-interpolation-filters="sRGB">
<feFlood flood-opacity="0" result="BackgroundImageFix"/>
<feBlend mode="normal" in="SourceGraphic" in2="BackgroundImageFix" result="shape"/>
<feGaussianBlur stdDeviation="0.242506" result="effect1_foregroundBlur_312_577"/>
</filter>
<filter id="filter32_f_312_577" x="-0.204638" y="8.03065" width="7.46732" height="7.42991" filterUnits="userSpaceOnUse" color-interpolation-filters="sRGB">
<feFlood flood-opacity="0" result="BackgroundImageFix"/>
<feBlend mode="normal" in="SourceGraphic" in2="BackgroundImageFix" result="shape"/>
<feGaussianBlur stdDeviation="0.840631" result="effect1_foregroundBlur_312_577"/>
</filter>
<filter id="filter33_f_312_577" x="0.5816" y="8.49994" width="5.70557" height="5.92933" filterUnits="userSpaceOnUse" color-interpolation-filters="sRGB">
<feFlood flood-opacity="0" result="BackgroundImageFix"/>
<feBlend mode="normal" in="SourceGraphic" in2="BackgroundImageFix" result="shape"/>
<feGaussianBlur stdDeviation="0.517366" result="effect1_foregroundBlur_312_577"/>
</filter>
<filter id="filter34_f_312_577" x="3.9232" y="10.1515" width="1.55033" height="2.55387" filterUnits="userSpaceOnUse" color-interpolation-filters="sRGB">
<feFlood flood-opacity="0" result="BackgroundImageFix"/>
<feBlend mode="normal" in="SourceGraphic" in2="BackgroundImageFix" result="shape"/>
<feGaussianBlur stdDeviation="0.0792644" result="effect1_foregroundBlur_312_577"/>
</filter>
<radialGradient id="paint0_radial_312_577" cx="0" cy="0" r="1" gradientUnits="userSpaceOnUse" gradientTransform="translate(181.018 264.019) rotate(-2.41003) scale(11.6631 28.5471)">
<stop stop-color="#FEFEFC"/>
<stop offset="0.757" stop-color="#FEFEFC"/>
<stop offset="1" stop-color="#D4D4D4"/>
</radialGradient>
<radialGradient id="paint1_radial_312_577" cx="0" cy="0" r="1" gradientUnits="userSpaceOnUse" gradientTransform="translate(324.932 276.515) rotate(-1.81001) scale(20.881 30.175)">
<stop stop-color="#FEFEFC"/>
<stop offset="0.757" stop-color="#FEFEFC"/>
<stop offset="1" stop-color="#D4D4D4"/>
</radialGradient>
<radialGradient id="paint2_radial_312_577" cx="0" cy="0" r="1" gradientUnits="userSpaceOnUse" gradientTransform="translate(346.639 -91.2185) rotate(-36.0086) scale(19.1305 12.6908)">
<stop stop-color="#020204"/>
<stop offset="0.734" stop-color="#020204"/>
<stop offset="1" stop-color="#5C5C5C"/>
</radialGradient>
<linearGradient id="paint3_linear_312_577" x1="106.701" y1="45.4569" x2="108.86" y2="48.0512" gradientUnits="userSpaceOnUse">
<stop stop-color="#949494" stop-opacity="0.392"/>
<stop offset="0.5" stop-color="#949494"/>
<stop offset="1" stop-color="#949494" stop-opacity="0.392"/>
</linearGradient>
<linearGradient id="paint4_linear_312_577" x1="205.609" y1="195.961" x2="244.641" y2="228.023" gradientUnits="userSpaceOnUse">
<stop stop-color="#747474"/>
<stop offset="0.125" stop-color="#8C8C8C"/>
<stop offset="0.25" stop-color="#A4A4A4"/>
<stop offset="0.5" stop-color="#D4D4D4"/>
<stop offset="0.619" stop-color="#D4D4D4"/>
<stop offset="1" stop-color="#7C7C7C"/>
</linearGradient>
<linearGradient id="paint5_linear_312_577" x1="18.8769" y1="71.8237" x2="28.332" y2="81.4971" gradientUnits="userSpaceOnUse">
<stop stop-color="#646464" stop-opacity="0"/>
<stop offset="0.306" stop-color="#646464" stop-opacity="0.583"/>
<stop offset="0.47" stop-color="#646464"/>
<stop offset="0.728" stop-color="#646464" stop-opacity="0.257"/>
<stop offset="1" stop-color="#646464" stop-opacity="0"/>
</linearGradient>
<linearGradient id="paint6_linear_312_577" x1="-11.5352" y1="64.895" x2="-3.64595" y2="73.5397" gradientUnits="userSpaceOnUse">
<stop stop-color="#646464" stop-opacity="0"/>
<stop offset="0.306" stop-color="#646464" stop-opacity="0.583"/>
<stop offset="0.47" stop-color="#646464"/>
<stop offset="0.728" stop-color="#646464" stop-opacity="0.257"/>
<stop offset="1" stop-color="#646464" stop-opacity="0"/>
</linearGradient>
<linearGradient id="paint7_linear_312_577" x1="46.212" y1="54.8402" x2="48.8982" y2="57.833" gradientUnits="userSpaceOnUse">
<stop stop-color="#757574" stop-opacity="0"/>
<stop offset="0.263" stop-color="#757574"/>
<stop offset="0.5" stop-color="#757574"/>
<stop offset="1" stop-color="#757574" stop-opacity="0"/>
</linearGradient>
<radialGradient id="paint8_radial_312_577" cx="0" cy="0" r="1" gradientUnits="userSpaceOnUse" gradientTransform="translate(858.626 -138.608) rotate(-22.428) scale(90.1348 31.3145)">
<stop stop-color="#D2940A"/>
<stop offset="0.751" stop-color="#D89C08"/>
<stop offset="0.866" stop-color="#B67E07"/>
<stop offset="1" stop-color="#946106"/>
</radialGradient>
<linearGradient id="paint9_linear_312_577" x1="137.882" y1="228.712" x2="297.481" y2="226.235" gradientUnits="userSpaceOnUse">
<stop stop-color="#AD780A"/>
<stop offset="0.12" stop-color="#D89E08"/>
<stop offset="0.255" stop-color="#EDB80B"/>
<stop offset="0.392" stop-color="#EBC80D"/>
<stop offset="0.527" stop-color="#F5D838"/>
<stop offset="0.769" stop-color="#F6D811"/>
<stop offset="1" stop-color="#F5CD31"/>
</linearGradient>
<radialGradient id="paint10_radial_312_577" cx="0" cy="0" r="1" gradientUnits="userSpaceOnUse" gradientTransform="translate(27.4548 15.2601) scale(0.857381 0.262485)">
<stop stop-color="#3A2903"/>
<stop offset="0.555" stop-color="#735208"/>
<stop offset="1" stop-color="#AC8C04"/>
</radialGradient>
<radialGradient id="paint11_radial_312_577" cx="0" cy="0" r="1" gradientUnits="userSpaceOnUse" gradientTransform="translate(12.9408 21.9234) scale(0.163598 0.193935)">
<stop stop-color="#3A2903"/>
<stop offset="0.555" stop-color="#735208"/>
<stop offset="1" stop-color="#AC8C04"/>
</radialGradient>
<linearGradient id="paint12_linear_312_577" x1="67.2968" y1="55.6962" x2="67.4666" y2="56.5773" gradientUnits="userSpaceOnUse">
<stop stop-color="#F5CE2D"/>
<stop offset="1" stop-color="#D79B08"/>
</linearGradient>
<radialGradient id="paint13_radial_312_577" cx="0" cy="0" r="1" gradientUnits="userSpaceOnUse" gradientTransform="translate(186.529 9.40868) rotate(-9.34942) scale(23.7859 10.2026)">
<stop stop-color="#C8C8C8"/>
<stop offset="1" stop-color="#797978"/>
</radialGradient>
<radialGradient id="paint14_radial_312_577" cx="0" cy="0" r="1" gradientUnits="userSpaceOnUse" gradientTransform="translate(-372.927 269.559) rotate(180) scale(32.0114 32.7349)">
<stop/>
<stop offset="1" stop-opacity="0.25"/>
</radialGradient>
<radialGradient id="paint15_radial_312_577" cx="0" cy="0" r="1" gradientUnits="userSpaceOnUse" gradientTransform="translate(780.099 320.833) scale(69.0359 36.5328)">
<stop/>
<stop offset="1" stop-opacity="0.25"/>
</radialGradient>
<radialGradient id="paint16_radial_312_577" cx="0" cy="0" r="1" gradientUnits="userSpaceOnUse" gradientTransform="translate(272.496 267.09) scale(11.0249 12.6027)">
<stop/>
<stop offset="1" stop-opacity="0.25"/>
</radialGradient>
<linearGradient id="paint17_linear_312_577" x1="103.353" y1="1190.14" x2="117.958" y2="1290.3" gradientUnits="userSpaceOnUse">
<stop/>
<stop offset="1" stop-opacity="0"/>
</linearGradient>
<linearGradient id="paint18_linear_312_577" x1="1800.43" y1="1562.88" x2="2004.15" y2="1242.64" gradientUnits="userSpaceOnUse">
<stop stop-color="#3E2A06"/>
<stop offset="1" stop-color="#AD780A"/>
</linearGradient>
<linearGradient id="paint19_linear_312_577" x1="125.707" y1="130.762" x2="125.611" y2="136.136" gradientUnits="userSpaceOnUse">
<stop stop-color="#F3CD0C"/>
<stop offset="1" stop-color="#F3CD0C" stop-opacity="0"/>
</linearGradient>
<radialGradient id="paint20_radial_312_577" cx="0" cy="0" r="1" gradientUnits="userSpaceOnUse" gradientTransform="translate(596.651 777.046) rotate(15) scale(36.4048 32.7227)">
<stop stop-color="#110800"/>
<stop offset="0.591" stop-color="#A65A00" stop-opacity="0.8"/>
<stop offset="1" stop-color="#FF921E" stop-opacity="0"/>
</radialGradient>
<radialGradient id="paint21_radial_312_577" cx="0" cy="0" r="1" gradientUnits="userSpaceOnUse" gradientTransform="translate(596.651 564.544) rotate(10.9628) scale(35.818 24.0436)">
<stop stop-color="#110800"/>
<stop offset="0.591" stop-color="#A65A00" stop-opacity="0.8"/>
<stop offset="1" stop-color="#FF921E" stop-opacity="0"/>
</radialGradient>
<radialGradient id="paint22_radial_312_577" cx="0" cy="0" r="1" gradientUnits="userSpaceOnUse" gradientTransform="translate(222.341 139.262) rotate(23.5217) scale(13.2071 2.85535)">
<stop stop-color="#7C7C7C"/>
<stop offset="1" stop-color="#7C7C7C" stop-opacity="0.33"/>
</radialGradient>
<linearGradient id="paint23_linear_312_577" x1="596.653" y1="223.287" x2="601.533" y2="222.853" gradientUnits="userSpaceOnUse">
<stop stop-color="#7C7C7C"/>
<stop offset="1" stop-color="#7C7C7C" stop-opacity="0.33"/>
</linearGradient>
<linearGradient id="paint24_linear_312_577" x1="551.223" y1="1341.63" x2="760.968" y2="1697.4" gradientUnits="userSpaceOnUse">
<stop stop-color="#B98309"/>
<stop offset="1" stop-color="#382605"/>
</linearGradient>
<linearGradient id="paint25_linear_312_577" x1="215.021" y1="731.101" x2="255.557" y2="773.169" gradientUnits="userSpaceOnUse">
<stop stop-color="#EBC40C"/>
<stop offset="1" stop-color="#EBC40C" stop-opacity="0"/>
</linearGradient>
<clipPath id="clip0_312_577">
<rect width="14" height="14" fill="white"/>
</clipPath>
</defs>
</svg>
