<svg width="24" height="24" viewBox="0 0 24 24" fill="none" xmlns="http://www.w3.org/2000/svg">
<path d="M22.4764 9.37676L12.9243 4.5443H12.8961C12.87 4.53387 12.843 4.52577 12.8155 4.52014H12.743L12.6867 4.5C12.6592 4.50564 12.6322 4.51373 12.6061 4.52416H12.5779L3.02175 9.37676C2.95579 9.41055 2.90043 9.4619 2.86177 9.52512C2.82311 9.58839 2.80266 9.66107 2.80266 9.73517C2.80266 9.80927 2.82311 9.88196 2.86177 9.94522C2.90043 10.0084 2.95579 10.0598 3.02175 10.0936L3.49292 10.3312V13.8347C3.22422 13.9297 2.99776 14.1167 2.85357 14.3625C2.70937 14.6083 2.65671 14.8971 2.7049 15.178C2.75309 15.4589 2.89903 15.7137 3.11692 15.8974C3.33482 16.0811 3.61063 16.1818 3.89561 16.1818C4.1806 16.1818 4.45642 16.0811 4.67432 15.8974C4.89222 15.7137 5.03816 15.4589 5.08633 15.178C5.13453 14.8971 5.08186 14.6083 4.93769 14.3625C4.79348 14.1167 4.567 13.9297 4.29831 13.8347V10.7419L6.36017 11.7849V18.9088C6.36017 18.9088 6.36017 18.9088 6.36017 18.933C6.42863 20.5438 12.0987 20.6082 12.7511 20.6082C13.4035 20.6082 19.0736 20.5599 19.13 18.933C19.13 18.933 19.13 18.933 19.13 18.9088V11.7849L22.4684 10.0936C22.5344 10.0598 22.5897 10.0084 22.6284 9.94522C22.667 9.88196 22.6875 9.80927 22.6875 9.73517C22.6875 9.66107 22.667 9.58839 22.6284 9.52512C22.5897 9.4619 22.5344 9.41055 22.4684 9.37676H22.4764ZM3.88353 15.3731C3.80389 15.3731 3.72603 15.3495 3.65981 15.3052C3.59358 15.2609 3.54197 15.198 3.51149 15.1245C3.48101 15.0509 3.47303 14.9699 3.48857 14.8918C3.50411 14.8137 3.54246 14.7419 3.59878 14.6856C3.6551 14.6293 3.72686 14.5909 3.80498 14.5754C3.88308 14.5598 3.96407 14.5678 4.03764 14.5983C4.11122 14.6288 4.17412 14.6804 4.21838 14.7466C4.26263 14.8128 4.28623 14.8907 4.28623 14.9703C4.28623 15.0771 4.24383 15.1796 4.16828 15.2551C4.09277 15.3306 3.99032 15.3731 3.88353 15.3731ZM18.3245 18.8766C18.1232 19.2108 16.1097 19.8028 12.735 19.8028C9.36032 19.8028 7.37096 19.2149 7.1535 18.8806V12.1917L12.5618 14.926H12.6102H12.6424C12.6758 14.93 12.7096 14.93 12.743 14.926C12.7765 14.93 12.8103 14.93 12.8437 14.926H12.8759H12.9243L18.3245 12.1917V18.8766ZM18.5702 11.1648L12.743 14.1166L4.87821 10.1379H12.743C12.8498 10.1379 12.9523 10.0954 13.0278 10.0199C13.1034 9.94442 13.1458 9.84197 13.1458 9.73517C13.1458 9.62838 13.1034 9.52593 13.0278 9.45042C12.9523 9.37491 12.8498 9.33247 12.743 9.33247H4.87821L12.743 5.35374L21.4052 9.73517L18.5702 11.1648Z" fill="black"/>
</svg>
