<svg width="14" height="14" viewBox="0 0 14 14" fill="none" xmlns="http://www.w3.org/2000/svg">
<path fill-rule="evenodd" clip-rule="evenodd" d="M0.953188 6.1164H3.1664C3.20406 5.35515 3.3382 4.58974 3.57883 3.86558H1.67131C1.27575 4.54471 1.02383 5.30716 0.953188 6.1164ZM2.32191 2.96525H3.94551C4.28523 2.27134 4.74004 1.64043 5.32055 1.12063C4.12879 1.44136 3.08949 2.09484 2.32191 2.96525ZM6.42069 1.41725C5.83387 1.81914 5.36006 2.35016 4.99669 2.96525H6.42069V1.41725ZM6.42069 3.86558H4.56411C4.29554 4.56558 4.1417 5.33202 4.09979 6.1164H6.42069V3.86558ZM7.35351 6.1164V3.86558H9.35666C9.65772 4.56727 9.83658 5.33362 9.88956 6.1164H7.35351ZM6.42069 7.01672H4.10043C4.14143 7.76899 4.28362 8.50323 4.51636 9.17107H6.42069V7.01672ZM7.35351 9.17107V7.01672H9.89499C9.85325 7.76741 9.6956 8.4995 9.42568 9.17107H7.35351ZM6.42069 10.0714H4.90754C4.92056 10.0959 4.93374 10.1202 4.94705 10.1443C5.33396 10.8463 5.83259 11.401 6.42069 11.7553V10.0714ZM5.27365 12.0367C4.81491 11.6285 4.43109 11.1252 4.12353 10.5672C4.03515 10.4069 3.95266 10.2413 3.87614 10.0714H2.20775C2.97524 10.9968 4.04161 11.6949 5.27365 12.0367ZM1.59601 9.17107H3.53825C3.32795 8.48539 3.20288 7.75457 3.16645 7.01672H0.950083C1.01195 7.78704 1.23802 8.5156 1.59601 9.17107ZM8.35444 12.1279C9.74367 11.8314 10.9486 11.0887 11.7923 10.0714H10.0331C9.629 10.8626 9.07094 11.5708 8.35444 12.1279ZM8.9724 10.0714H7.35351V11.715C8.02203 11.2994 8.56324 10.7333 8.9724 10.0714ZM10.4157 9.17107H12.404C12.762 8.51559 12.9881 7.78703 13.0499 7.01672H10.8288C10.792 7.74898 10.6551 8.4796 10.4157 9.17107ZM10.8239 6.1164H13.0468C12.9762 5.30715 12.7242 4.5447 12.3287 3.86558H10.3549C10.6217 4.58728 10.7772 5.35154 10.8239 6.1164ZM9.95086 2.96525C9.56372 2.24163 9.04845 1.58705 8.402 1.05263C9.70977 1.3422 10.8515 2.02794 11.6781 2.96525H9.95086ZM8.87846 2.96525H7.35351V1.41092C7.97245 1.81911 8.48188 2.35179 8.87846 2.96525ZM0 6.58508C0 2.93678 3.14604 0 7 0C10.8536 0 14 2.93658 14 6.58508C14 10.2334 10.854 13.1702 7 13.1702C3.14637 13.1702 0 10.2336 0 6.58508Z" fill="#555555"/>
</svg>
