<svg version="1.1" xmlns="http://www.w3.org/2000/svg" viewBox="0 0 512 512">
    <g>
        <path d="M416,48c-44.2,0-80,35.8-80,80c0,11.9,2.6,23.3,7.3,33.4L416,304l72.7-142.6c4.7-10.2,7.3-21.5,7.3-33.4
		C496,83.8,460.2,48,416,48z M416,176c-26.5,0-48-21.5-48-48s21.5-48,48-48s48,21.5,48,48S442.5,176,416,176z M439.9,327.5
		l29.1,58.2l-73.8,36.9l-24.8-123.8l4.2-4.2l0.4-0.4l-15.3-30L352,272l-96-64l-96,64l-64-64L0,400l128,64l128-64l128,64l128-64
		l-54-108L439.9,327.5z M116.8,422.6l-73.8-36.9L104.8,262l32.6,32.6l4.2,4.2L116.8,422.6z M240,372.2L150.5,417l23.1-115.6l4.1-2.8
		l62.3-41.5V372.2z M272,372.2V257.1l62.3,41.5l4.1,2.8L361.5,417L272,372.2z"/>
    </g>
</svg>
