<svg version="1.1" id="no-icon" xmlns="http://www.w3.org/2000/svg" x="0px" y="0px" viewBox="0 0 512 512">
    <g>
        <path d="M402.9,144.6H109.1c-5.6,0-10.1,4.5-10.1,10.1v202.6c0,5.6,4.5,10.1,10.1,10.1h293.7c5.6,0,10.1-4.5,10.1-10.1
		V154.7C413,149.1,408.5,144.6,402.9,144.6z M402.9,154.7v170.1L295,217c-2-2-5.2-2-7.2,0L240.8,264L214,237.2c-2-2-5.2-2-7.2,0
		l-97.7,97.7V154.7L402.9,154.7z M109.1,357.3v-8L210.4,248l57.2,57.2c2,1.9,5.2,1.9,7.2-0.1c1.9-2,1.9-5.1,0-7L248,271.2l43.5-43.5
		l111.4,111.4v18.2H109.1z"/>
        <path d="M284.9,308.1c-2-1.9-5.2-1.9-7.2,0.1c-1.9,2-1.9,5.1,0,7l5.1,5.1c2,1.9,5.2,1.9,7.2-0.1c1.9-2,1.9-5.1,0-7
		L284.9,308.1z"/>
        <path d="M210.4,220.5c14,0,25.3-11.3,25.3-25.3c0-14-11.3-25.3-25.3-25.3s-25.3,11.3-25.3,25.3
		C185.1,209.2,196.4,220.5,210.4,220.5z M210.4,180c8.4,0,15.2,6.8,15.2,15.2c0,8.4-6.8,15.2-15.2,15.2c-8.4,0-15.2-6.8-15.2-15.2
		C195.2,186.8,202,180,210.4,180z"/>
        <path d="M321.8,175h5.1c2.8,0,5.1-2.3,5.1-5.1s-2.3-5.1-5.1-5.1h-5.1c-2.8,0-5.1,2.3-5.1,5.1S319,175,321.8,175z"/>
        <path
            d="M342.1,175h45.6c2.8,0,5.1-2.3,5.1-5.1s-2.3-5.1-5.1-5.1h-45.6c-2.8,0-5.1,2.3-5.1,5.1S339.3,175,342.1,175z"
        />
    </g>
    <rect fill="none" stroke="#009FE3" stroke-miterlimit="10" x="28" y="28" class="st1" width="456" height="456"/>
</svg>


