<?xml version="1.0" encoding="utf-8"?>
<!-- Generator: Adobe Illustrator 23.0.3, SVG Export Plug-In . SVG Version: 6.00 Build 0)  -->
<svg version="1.1" id="Layer_1" xmlns="http://www.w3.org/2000/svg" xmlns:xlink="http://www.w3.org/1999/xlink" x="0px" y="0px"
     viewBox="0 0 349.7 512" style="enable-background:new 0 0 349.7 512;" xml:space="preserve">
<style type="text/css">
	.st0{opacity:0.5;}
	.st1{fill:#ff4d4d;stroke:#4C4C4C;stroke-miterlimit:10;}
</style>
    <g class="st0">
	<g>
		<path d="M139.4,65.2c-74.6,8-128.9,75.3-120.9,149.9c2.4,22.4,10.4,44.1,23.2,62.6L175,467.7c1.8,2.5,4.8,3.9,7.8,3.6
			c3.1-0.3,5.8-2.3,6.9-5.2l90.1-214.1c8.5-20.8,11.7-43.6,9.3-66C281.3,111.4,214,57.2,139.4,65.2z M161.2,268.2
			c-37.4,4-70.9-23.1-74.9-60.4s23.1-70.9,60.4-74.9c37.3-4,70.9,23.1,74.9,60.4S198.5,264.2,161.2,268.2z"/>
	</g>
</g>
    <g>
	<g>
		<path class="st1" d="M189.5,33.4c-78.4,0-142.1,63.8-142.1,142.1c0,23.6,5.9,46.9,17.1,67.5l117.2,212.1c1.6,2.8,4.5,4.6,7.7,4.6
			c3.2,0,6.2-1.7,7.7-4.6L314.5,243c11.2-20.7,17-44,17-67.5C331.6,97.2,267.9,33.4,189.5,33.4z M189.5,246.6c-39.2,0-71-31.9-71-71
			s31.9-71,71-71s71,31.9,71,71S228.7,246.6,189.5,246.6z"/>
	</g>
</g>
</svg>
