<svg width="27" height="27" viewBox="0 0 27 27" fill="none" xmlns="http://www.w3.org/2000/svg">
<path d="M26.5781 16.4801H25.5938H22.0626H18.0273L20.76 19.1725C19.0859 21.5841 16.34 23.1565 13.2359 23.1565C8.25078 23.1565 4.19955 19.0961 4.01649 14.0193H0.586084C0.769145 21.0391 6.35915 26.6719 13.2359 26.6719C17.3083 26.6719 20.9245 24.6907 23.2406 21.6223L26.5781 24.9142V16.4801ZM5.7118 8.19037C7.38057 5.76778 10.1238 4.18178 13.2359 4.18178C18.3377 4.18178 22.4738 8.43018 22.4738 13.6705C22.4738 13.7877 22.4606 13.9021 22.4579 14.022H25.8883C25.891 13.9049 25.8963 13.7904 25.8963 13.6705C25.8963 6.48992 20.2293 0.671875 13.2385 0.671875C9.16078 0.671875 5.53404 2.65301 3.22057 5.73235L0.578125 3.12717V11.5613H9.12894L5.7118 8.19037Z" fill="#DC3545"/>
</svg>
