<svg version="1.1" xmlns="http://www.w3.org/2000/svg" viewBox="0 0 410.5 410.5">
    <g>
        <path d="M388.8,13H21.7C9.7,13,0,22.7,0,34.7v341.1c0,12,9.7,21.7,21.7,21.7h367.1c12,0,21.7-9.7,21.7-21.7V34.7
		C410.5,22.7,400.8,13,388.8,13z M77.3,371.5h-60v-51h60V371.5z M77.3,307.5h-60v-65h60V307.5z M77.3,229.5h-60v-60.7h60V229.5z
		 M77.3,155.7h-60v-53.1h60V155.7z M161.9,371.5H90.3v-51h71.6V371.5z M161.9,307.5H90.3v-65h71.6V307.5z M161.9,229.5H90.3v-60.7
		h71.6V229.5z M161.9,155.7H90.3v-53.1h71.6V155.7z M239.9,371.5h-65v-51h65V371.5z M239.9,307.5h-65v-65h65V307.5z M239.9,229.5
		h-65v-60.7h65V229.5z M239.9,155.7h-65v-53.1h65V155.7z M313.6,371.5h-60.7v-51h60.7V371.5z M313.6,307.5h-60.7v-65h60.7V307.5z
		 M313.6,229.5h-60.7v-60.7h60.7V229.5z M313.6,155.7h-60.7v-53.1h60.7V155.7z M393.1,371.5h-66.5v-51h66.5L393.1,371.5L393.1,371.5
		L393.1,371.5z M393.1,307.5h-66.5v-65h66.5L393.1,307.5L393.1,307.5z M393.1,229.5h-66.5v-60.7h66.5L393.1,229.5L393.1,229.5
		L393.1,229.5z M393.1,155.7h-66.5v-53.1h66.5L393.1,155.7L393.1,155.7z"/>
    </g>
</svg>
